<svg xmlns="http://www.w3.org/2000/svg" xmlns:xlink="http://www.w3.org/1999/xlink" width="1000" zoomAndPan="magnify" viewBox="0 0 750 749.999995" height="1000" preserveAspectRatio="xMidYMid meet" version="1.0"><defs><g/><clipPath id="79ec5137a1"><path d="M 225 601 L 525 601 L 525 697.738281 L 225 697.738281 Z M 225 601 " clip-rule="nonzero"/></clipPath></defs><rect x="-75" width="900" fill="#ffffff" y="-74.999999" height="899.999994" fill-opacity="1"/><rect x="-75" width="900" fill="#ffffff" y="-74.999999" height="899.999994" fill-opacity="1"/><path fill="#000000" d="M 470.082031 8.78125 C 470.082031 13.289062 467.996094 26.164062 471.496094 28.117188 C 473.628906 29.308594 478.996094 26.894531 481.019531 26.136719 C 487.171875 23.835938 483.554688 27.515625 486.113281 28.96875 C 487.03125 29.488281 485.8125 31.292969 488.566406 31.75 C 490.457031 32.066406 492.972656 30.910156 494.699219 31.421875 C 503.164062 33.933594 497.894531 41.40625 508.660156 40.804688 C 515.242188 40.4375 514.375 47.738281 519.039062 50.851562 C 522.53125 53.183594 527.867188 52.203125 529.507812 56.699219 C 529.902344 57.78125 523.339844 58.78125 528.140625 61.371094 C 530.835938 62.820312 533.5625 62.511719 535.734375 64.71875 C 538.972656 68.007812 532.5625 68.835938 539.601562 70.09375 C 542.835938 70.671875 546.851562 68.789062 550.308594 69.148438 C 551.488281 69.273438 548.628906 110.898438 548.375 116.3125 C 545.355469 180.976562 544.851562 245.816406 544.082031 310.535156 C 543.691406 343.1875 543.464844 375.839844 543.261719 408.496094 C 543.148438 426.253906 543.09375 444.007812 543.09375 461.765625 C 543.09375 468.753906 543.113281 475.742188 543.140625 482.730469 C 543.164062 488.570312 545.167969 499.75 542.808594 505.226562 C 539.363281 513.21875 526.621094 512.816406 519.140625 514.183594 C 504.320312 516.894531 489.5625 519.984375 474.8125 523.046875 C 445.140625 529.21875 415.574219 536 385.753906 541.453125 C 354.660156 547.140625 323.859375 554.609375 292.792969 560.40625 C 277.511719 563.257812 262.011719 564.742188 246.609375 566.761719 C 239.542969 567.691406 232.542969 568.964844 225.53125 570.207031 C 223.863281 570.507812 220.695312 575.472656 218.042969 576.53125 C 205.625 581.472656 194.539062 572.894531 185.5 566.109375 C 180.257812 562.175781 174.808594 557.898438 171.679688 552.011719 C 168.652344 546.304688 170.804688 536.367188 170.773438 529.785156 C 170.59375 496.601562 170.386719 463.417969 170.21875 430.234375 C 169.871094 361.617188 169.558594 293.003906 169.199219 224.386719 C 169.039062 194.269531 171.71875 162.394531 168.425781 132.445312 C 167.125 120.609375 158.460938 101.886719 173.453125 95.769531 C 176.996094 94.320312 180.664062 92.484375 184.417969 91.695312 C 189.492188 90.625 193.730469 93.578125 199.175781 93.015625 C 228.628906 89.964844 259.152344 75.113281 287.035156 65.757812 C 317.933594 55.398438 348.808594 44.976562 379.796875 34.894531 C 395.769531 29.695312 411.738281 24.507812 427.730469 19.382812 C 435.613281 16.855469 464.734375 3.4375 470.082031 8.78125 " fill-opacity="1" fill-rule="nonzero"/><path fill="#ffcc00" d="M 465.460938 16.328125 C 409.46875 37.296875 351.851562 55.445312 296.425781 77.355469 C 271.675781 87.140625 245.863281 94.433594 220.871094 103.765625 C 215.25 105.867188 209.074219 108.964844 203.800781 108.671875 C 199.316406 108.421875 196.054688 105.972656 191.0625 106.976562 C 186.8125 107.824219 185.742188 109.601562 188.800781 113.105469 C 191.289062 115.953125 192.191406 112.34375 193.046875 112.820312 L 193.046875 111.3125 C 196.414062 118.304688 203.472656 121.78125 210.683594 123.574219 C 200.503906 120.238281 184.5625 114.894531 181.644531 102.945312 C 179.242188 93.105469 190.234375 99.273438 192.460938 98.855469 C 220.167969 93.636719 244.921875 82.839844 271.464844 74.042969 C 302.058594 63.90625 332.597656 53.59375 363.265625 43.671875 C 391.875 34.414062 421.425781 28.050781 449.707031 18.117188 C 453.585938 16.757812 466.734375 8.722656 465.460938 16.328125 " fill-opacity="1" fill-rule="nonzero"/><path fill="#ffcc00" d="M 466.214844 29.441406 C 426.511719 45.75 385.804688 58.941406 345.019531 72.234375 C 325.578125 78.570312 305.574219 83.03125 286.144531 89.621094 C 269.347656 95.320312 244.601562 108.773438 226.71875 106.691406 C 269.628906 91.578125 312.660156 76.808594 355.566406 61.699219 C 392.152344 48.816406 427.996094 31.753906 465.460938 21.796875 C 464.992188 24.574219 464.34375 27.339844 466.214844 29.441406 " fill-opacity="1" fill-rule="nonzero"/><path fill="#ffcc00" d="M 482.242188 30.949219 C 482.769531 32.546875 481.949219 33.402344 483.097656 34.8125 C 405.03125 59.5 327.816406 87.457031 248.117188 106.691406 C 290.507812 92.5 333.441406 80.148438 376.164062 67.015625 C 397.433594 60.476562 418.382812 53.09375 439.257812 45.394531 C 453.113281 40.28125 467.6875 32.890625 482.234375 30.949219 " fill-opacity="1" fill-rule="nonzero"/><path fill="#ffcc00" d="M 496.867188 38.585938 C 500.851562 47.023438 481.121094 48.304688 475.167969 49.71875 C 464.863281 52.164062 454.5 54.386719 444.152344 56.628906 C 424.277344 60.9375 404.574219 65.675781 385.085938 71.507812 C 403.371094 65.691406 421.550781 59.574219 439.78125 53.597656 C 447.757812 50.984375 493.179688 32.558594 496.867188 38.585938 " fill-opacity="1" fill-rule="nonzero"/><path fill="#ffcc00" d="M 515.183594 54.625 C 516.472656 54.878906 517.757812 55.128906 519.046875 55.378906 C 426.867188 77.914062 332.664062 91.402344 240.503906 114.332031 C 292.417969 97.957031 345.996094 87.535156 398.214844 72.792969 C 421.507812 66.21875 445.019531 61.71875 468.492188 55.847656 C 480.285156 52.902344 492.015625 49.703125 503.828125 46.851562 C 514.011719 44.394531 507.898438 51.640625 515.1875 54.625 " fill-opacity="1" fill-rule="nonzero"/><path fill="#ffcc00" d="M 522.804688 60 C 522.894531 68.039062 433.761719 77.738281 421.875 79.148438 C 439.046875 76.609375 456.179688 73.75 473.179688 70.222656 C 482.054688 68.378906 490.933594 66.570312 499.773438 64.550781 C 505.863281 63.15625 517.332031 58.398438 522.804688 60 " fill-opacity="1" fill-rule="nonzero"/><path fill="#ffcc00" d="M 529.695312 70.660156 C 484.074219 77.28125 439.449219 88.441406 394.160156 96.855469 C 353.117188 104.480469 311.089844 109.597656 269.542969 113.578125 C 312.878906 104.414062 356.238281 95.460938 399.871094 87.820312 C 443.316406 80.210938 487.21875 75.125 530.546875 66.886719 C 530.484375 67.261719 529.710938 70.628906 529.695312 70.660156 " fill-opacity="1" fill-rule="nonzero"/><path fill="#ffcc00" d="M 544.988281 73.773438 C 547.402344 206.597656 539.277344 339.722656 538.972656 472.578125 C 538.957031 478.183594 539.03125 483.753906 539.199219 489.355469 C 539.4375 497.238281 543.253906 505.503906 534.757812 507.09375 C 518.078125 510.21875 501.414062 513.414062 484.757812 516.65625 C 456.269531 522.199219 427.871094 528.238281 399.441406 534.089844 C 341.53125 546.003906 283.21875 554.9375 225.21875 565.878906 C 223.816406 433.40625 225.746094 300.8125 226.535156 168.34375 C 226.550781 165.585938 225.585938 124.464844 227.109375 124.292969 C 243.503906 122.476562 259.886719 120.609375 276.265625 118.667969 C 304.570312 115.304688 332.832031 111.121094 360.957031 106.5 C 421.914062 96.484375 483.574219 78.433594 544.988281 73.773438 " fill-opacity="1" fill-rule="nonzero"/><path fill="#ffcc00" d="M 193.796875 122.730469 C 196.933594 122.914062 198.191406 124.878906 200.871094 125.839844 C 207.15625 128.101562 213.675781 127.890625 220.585938 128.199219 C 214.445312 140.027344 197.5 130.316406 189.929688 125.839844 C 184.644531 122.71875 160.222656 104.753906 176.253906 99.050781 C 174.523438 109.972656 186.175781 117.714844 193.796875 122.730469 " fill-opacity="1" fill-rule="nonzero"/><path fill="#ffcc00" d="M 210.589844 115.085938 C 209.730469 114.726562 208.992188 114.628906 208.417969 113.578125 C 212.476562 111.785156 216.53125 109.992188 220.585938 108.199219 C 222.636719 114.332031 214.695312 114.253906 210.589844 115.085938 " fill-opacity="1" fill-rule="nonzero"/><path fill="#ffcc00" d="M 234.265625 115.085938 C 230.207031 115.621094 226.152344 116.15625 222.097656 116.691406 C 225.691406 114.261719 230.445312 115.269531 234.265625 115.085938 " fill-opacity="1" fill-rule="nonzero"/><path fill="#ffcc00" d="M 214.457031 138.859375 C 216.261719 137.8125 218.628906 137.167969 220.585938 136.5 C 219.808594 278.09375 219.03125 419.6875 218.253906 561.269531 C 218.21875 567.609375 220.863281 570.675781 213.132812 572.195312 C 201.703125 574.441406 191.601562 565.136719 183.46875 558.515625 C 170.941406 548.316406 175.289062 529.292969 175.167969 514.417969 C 175.023438 496.800781 174.886719 479.183594 174.746094 461.5625 C 174.246094 398.308594 173.753906 335.050781 173.304688 271.796875 C 173.085938 240.773438 172.875 209.757812 172.675781 178.738281 C 172.546875 158.964844 174.597656 137.015625 170.875 117.445312 C 182.304688 129.34375 197.199219 139.785156 214.457031 138.851562 " fill-opacity="1" fill-rule="nonzero"/><path fill="#ffcc00" d="M 219.832031 121.972656 C 218.796875 122.757812 217.757812 123.546875 216.71875 124.332031 C 217.816406 120.835938 216.804688 122.515625 215.210938 118.957031 C 215.964844 118.453125 216.71875 117.949219 217.472656 117.445312 C 217.921875 119.300781 219.289062 120.496094 219.832031 121.972656 " fill-opacity="1" fill-rule="nonzero"/><path fill="#ffcc00" d="M 394.25 188.566406 C 396.179688 189.703125 395.4375 198.601562 394.34375 202.339844 C 391.742188 196.414062 387.421875 190.125 380.480469 189.320312 C 387.347656 187.867188 389.394531 183.945312 389.722656 177.15625 C 391.152344 181.144531 388.132812 189.324219 394.25 188.566406 " fill-opacity="1" fill-rule="nonzero"/><path fill="#ffcc00" d="M 373.578125 180.832031 C 372.253906 183.511719 373.621094 186.257812 375.175781 188.566406 C 372.878906 187.605469 367.011719 184.730469 366.78125 181.964844 C 366.386719 177.121094 371.703125 178.703125 373.578125 180.832031 " fill-opacity="1" fill-rule="nonzero"/><path fill="#ffcc00" d="M 493.753906 284.222656 C 494.28125 289.984375 489.117188 294.828125 489.886719 301.863281 C 488.175781 298.453125 484.171875 294.917969 480.078125 296.484375 C 473.957031 298.820312 475.457031 309.21875 475.457031 314.125 C 473.488281 309.570312 467.023438 292.78125 470.832031 288.089844 C 473.273438 285.082031 489.855469 284.339844 493.753906 284.222656 " fill-opacity="1" fill-rule="nonzero"/><path fill="#ffcc00" d="M 509.78125 311.003906 C 509.816406 311.792969 509.84375 312.578125 509.878906 313.363281 C 508.414062 309.664062 506.800781 306.089844 504.546875 302.796875 C 501.984375 299.054688 495.886719 298.523438 496.199219 295.628906 C 496.925781 288.882812 510.414062 304.941406 509.78125 311.003906 " fill-opacity="1" fill-rule="nonzero"/><path fill="#ffcc00" d="M 435.566406 324.785156 C 430.496094 326.234375 425.332031 328.546875 421.132812 324.078125 C 418.730469 321.515625 410.625 322.246094 409.957031 320.917969 C 408.277344 317.570312 404.867188 305.945312 408.023438 302.621094 C 409.53125 301.03125 420.1875 300.507812 422.832031 299.789062 C 427.625 298.484375 432.339844 296.925781 437.167969 295.730469 C 436.601562 305.4375 435.132812 315.035156 435.566406 324.785156 " fill-opacity="1" fill-rule="nonzero"/><path fill="#ffcc00" d="M 492.242188 307.980469 C 495.746094 315.265625 497.878906 322.933594 499.128906 330.902344 C 496.097656 324.828125 490.265625 307.847656 480.828125 312.601562 C 481.082031 309.019531 481.332031 305.433594 481.585938 301.847656 C 486.328125 302.722656 486.839844 312.601562 492.242188 307.980469 " fill-opacity="1" fill-rule="nonzero"/><path fill="#ffcc00" d="M 369.71875 309.492188 C 372.304688 320.382812 359.171875 325.753906 363.683594 336.28125 C 344.183594 341.015625 354.335938 358.289062 348.402344 370.710938 C 348.273438 366.921875 347.296875 363.257812 347.078125 359.488281 C 346.832031 355.246094 349.167969 351.328125 349.15625 347.789062 C 349.148438 342.964844 346.085938 336.773438 345.949219 331.28125 C 345.804688 325.441406 346.445312 319.792969 344.628906 314.117188 C 352.921875 312.519531 361.730469 311.019531 369.71875 309.492188 " fill-opacity="1" fill-rule="nonzero"/><path fill="#ffcc00" d="M 474.617188 320.917969 C 480.890625 318.101562 486.21875 335.839844 485.371094 341.667969 C 480.855469 338.253906 479.992188 332.425781 476.457031 328.277344 C 474.769531 326.289062 469.203125 325.839844 468.488281 324.785156 C 467.078125 322.707031 468.488281 315.253906 468.488281 312.617188 C 471.316406 314.941406 471.867188 319.089844 474.617188 320.917969 " fill-opacity="1" fill-rule="nonzero"/><path fill="#ffcc00" d="M 465.460938 330.140625 C 466.53125 338.699219 470.015625 346.746094 470.835938 355.328125 C 466.640625 353.347656 460.578125 341.128906 454.800781 346.273438 C 450.230469 350.34375 458.394531 365.328125 457.816406 370.707031 C 450.929688 362.957031 448.621094 351.714844 447.910156 341.652344 C 460.53125 353.015625 457.167969 333.589844 457.0625 326.277344 C 458.601562 329.625 461.929688 332.042969 465.460938 330.140625 " fill-opacity="1" fill-rule="nonzero"/><path fill="#ffcc00" d="M 419.195312 332.949219 C 413.84375 332.429688 403.382812 332.257812 407.589844 341.160156 C 410.230469 346.746094 411.191406 333.890625 417.683594 338.328125 C 416.242188 341.539062 413.851562 344.804688 410.46875 346.109375 C 402.21875 349.292969 403.914062 335.90625 403.914062 332.101562 C 406.453125 335.074219 413.324219 326.359375 419.195312 332.949219 " fill-opacity="1" fill-rule="nonzero"/><path fill="#ffcc00" d="M 367.882812 339.730469 C 367.5625 341.070312 366.589844 342.476562 365.714844 343.601562 C 359.335938 336.664062 353.910156 354.539062 356.472656 359.636719 C 358.292969 363.261719 371.5 372.132812 374.105469 369.636719 C 374.898438 370.445312 376.621094 372.492188 377.125 373.503906 C 372.035156 373.25 366.941406 373 361.847656 372.75 C 371.316406 372 356.207031 365.371094 354.492188 362.085938 C 349.691406 352.917969 356.316406 337.015625 367.882812 339.730469 " fill-opacity="1" fill-rule="nonzero"/><path fill="#ffcc00" d="M 341.09375 382.648438 C 337.53125 384.316406 333.855469 383.503906 330.203125 384.582031 C 325.195312 386.058594 326.039062 389.972656 331.144531 389.675781 C 332.796875 389.582031 341.875 386.601562 341.976562 388.679688 C 342.441406 398.070312 344.949219 401.988281 336.757812 406.085938 C 333.332031 407.800781 327.792969 411.046875 324.683594 409.34375 C 320.980469 407.316406 322.746094 401.777344 321.003906 400.664062 C 310.285156 393.832031 317.980469 408.472656 319.023438 410.949219 C 315.976562 412.074219 312.9375 411.757812 309.875 410.804688 C 307.085938 409.9375 305.507812 405.714844 305.0625 405.570312 C 299.105469 403.644531 296.453125 416.550781 288.367188 417.835938 C 289.988281 413.609375 292.03125 409.160156 292.613281 404.628906 C 293.21875 399.910156 289.847656 395.988281 289.972656 392.554688 C 290.117188 388.632812 295.957031 380.972656 299.027344 378.785156 C 298.269531 378.027344 297.515625 377.273438 296.761719 376.515625 C 298.90625 374.867188 301.117188 373.503906 303.648438 372.746094 C 301.125 374.800781 300.847656 380.128906 304.683594 381.140625 C 307.023438 381.757812 307.335938 377.078125 310.296875 376.851562 C 312.71875 376.664062 313.632812 374.542969 315.625 373.691406 C 319.800781 371.910156 330.203125 365.523438 328.265625 375.199219 C 327.175781 380.640625 321.359375 388.855469 315.152344 387.273438 C 324.996094 386.355469 318.179688 378.4375 312.890625 381.894531 C 306.46875 386.09375 315.910156 389.894531 312.136719 393.402344 C 309.855469 389.441406 299.679688 382.261719 302.890625 391.046875 C 303.210938 391.917969 309.621094 398.003906 310.816406 398.402344 C 314.351562 399.582031 319.550781 394.847656 316.757812 391.800781 C 326.039062 392.101562 339.445312 374.65625 330.765625 367.320312 C 325.726562 363.058594 320.070312 365.679688 315.246094 368.570312 C 302.929688 375.9375 310.488281 369.945312 310.625 365.011719 C 319.453125 364.480469 322.375 355.269531 329.492188 351.710938 C 332.945312 349.984375 336.847656 350.910156 340.433594 350.484375 C 340.683594 361.128906 341.40625 372.171875 341.09375 382.648438 " fill-opacity="1" fill-rule="nonzero"/><path fill="#ffcc00" d="M 424.574219 366.515625 C 420.109375 372.257812 410.164062 371.066406 402.402344 371.984375 C 404.238281 371.023438 405.199219 367.878906 406.460938 367.269531 C 408.34375 366.363281 408.84375 367.558594 411.457031 366.984375 C 415.316406 366.140625 422.519531 363.960938 424.574219 366.515625 " fill-opacity="1" fill-rule="nonzero"/><path fill="#ffcc00" d="M 495.265625 397.402344 C 487.800781 400.472656 479.59375 401.613281 471.589844 402.117188 C 472.132812 394.191406 468.898438 380.78125 477.722656 376.082031 C 483.121094 373.207031 490.328125 375.796875 496.019531 372.3125 C 496.800781 380.617188 494.835938 389.375 495.265625 397.402344 " fill-opacity="1" fill-rule="nonzero"/><path fill="#ffcc00" d="M 458.570312 404.292969 C 456.023438 404.574219 453.476562 404.859375 450.929688 405.140625 C 456.277344 399.261719 461.621094 393.382812 466.964844 387.503906 C 466.582031 393.257812 469.394531 408.441406 458.570312 404.292969 " fill-opacity="1" fill-rule="nonzero"/><path fill="#000000" d="M 305.480469 401.269531 C 302.148438 402.523438 291.015625 401.273438 297.839844 398.34375 C 300.390625 397.253906 305.332031 399.25 305.480469 401.269531 " fill-opacity="1" fill-rule="nonzero"/><path fill="#ffcc00" d="M 494.511719 427.316406 C 486.769531 429.132812 478.734375 429.71875 470.832031 430.429688 C 470.832031 422.015625 466.40625 407.703125 476.164062 406.847656 C 482.328125 406.308594 489.429688 403.226562 495.265625 403.640625 C 495.015625 411.445312 494.761719 419.851562 494.511719 427.316406 " fill-opacity="1" fill-rule="nonzero"/><path fill="#ffcc00" d="M 313.878906 425.695312 C 312.257812 425.691406 310.953125 425.492188 311.046875 427.960938 C 311.222656 432.652344 321.097656 430.820312 322.914062 430.710938 C 330.269531 430.257812 328.578125 437.117188 330.054688 443.664062 C 331.265625 449.054688 333.347656 455.453125 332.933594 459.9375 C 332.503906 464.550781 335.664062 464.375 328.699219 466.191406 C 322.515625 467.8125 315.867188 467.859375 309.519531 467.859375 C 296.402344 467.859375 283.039062 465.46875 270.300781 462.480469 C 274.136719 453.554688 277.96875 444.621094 281.804688 435.695312 C 288.675781 446.484375 302.386719 431.984375 291.050781 423.523438 C 295.808594 422.660156 297.214844 418.941406 300.957031 416.636719 C 307.03125 412.902344 305.917969 415.664062 311.707031 416.636719 C 322.453125 418.445312 336 414.449219 344.628906 408.148438 C 336.648438 416.632812 327.34375 430.324219 313.878906 425.695312 " fill-opacity="1" fill-rule="nonzero"/><path fill="#ffcc00" d="M 466.214844 431.074219 C 458.324219 432.617188 450.429688 434.15625 442.539062 435.699219 C 442.539062 427.234375 439.074219 415.597656 446.878906 411.453125 C 452.339844 408.554688 460.300781 410.132812 466.214844 408.15625 L 466.214844 431.074219 " fill-opacity="1" fill-rule="nonzero"/><path fill="#ffcc00" d="M 378.632812 418.589844 C 374.078125 427.101562 364.273438 430.230469 380.992188 431.609375 C 379.539062 437.609375 381.410156 444.304688 374.855469 447.738281 C 372.605469 448.917969 366.472656 448.875 363.539062 449.8125 C 359.570312 451.082031 356.066406 452.703125 351.84375 453.113281 L 351.84375 436.671875 C 351.84375 429.773438 350.464844 425.933594 354.675781 423.023438 C 359.457031 419.714844 372.902344 417.882812 378.632812 418.589844 " fill-opacity="1" fill-rule="nonzero"/><path fill="#ffcc00" d="M 415.738281 440.320312 C 415.519531 434.054688 432.148438 423.386719 437.148438 418.90625 C 437.148438 421.199219 438.105469 436.277344 436.652344 436.542969 C 429.679688 437.800781 422.710938 439.058594 415.738281 440.320312 " fill-opacity="1" fill-rule="nonzero"/><path fill="#ffcc00" d="M 346.46875 459.910156 C 344.355469 458.125 342.734375 459.890625 339.867188 461.039062 C 335.542969 462.769531 335.714844 453.722656 334.960938 450.617188 C 333.242188 443.515625 334.035156 431.269531 331.1875 427.082031 C 335.945312 424.851562 341.449219 424.851562 346.566406 423.96875 C 346.566406 435.886719 346.972656 448.175781 346.46875 459.910156 " fill-opacity="1" fill-rule="nonzero"/><path fill="#ffcc00" d="M 470.082031 461.746094 C 470.222656 456.828125 467.78125 439.070312 470.835938 435.710938 C 475.230469 430.882812 489.15625 436.273438 494.515625 431.183594 L 494.515625 458.324219 C 494.515625 459.589844 472.867188 461.402344 470.082031 461.746094 " fill-opacity="1" fill-rule="nonzero"/><path fill="#ffcc00" d="M 465.460938 462.5 C 457.546875 464.101562 449.625 465.660156 441.6875 467.125 C 441.6875 460.191406 437.933594 441.871094 445.320312 440.382812 C 452.089844 439.019531 458.601562 436.683594 465.460938 435.714844 L 465.460938 462.5 " fill-opacity="1" fill-rule="nonzero"/><path fill="#ffcc00" d="M 436.300781 441.832031 C 436.300781 446.402344 439.121094 465.488281 436.300781 468.617188 C 434.433594 470.695312 417.625 471.921875 414.132812 472.484375 C 413.925781 468.058594 412.445312 447.847656 414.984375 444.941406 C 417.355469 442.226562 432.226562 443.242188 436.300781 441.832031 " fill-opacity="1" fill-rule="nonzero"/><path fill="#ffcc00" d="M 408.546875 472.179688 C 401.886719 473.542969 395.558594 476.148438 388.644531 475.289062 C 389.625 465.28125 393.199219 445.371094 407.699219 445.386719 C 407.980469 454.320312 408.265625 463.246094 408.546875 472.179688 " fill-opacity="1" fill-rule="nonzero"/><path fill="#ffcc00" d="M 370.242188 453.777344 C 366.195312 459.429688 362.070312 471.050781 356.472656 473.679688 C 359.21875 474.980469 358.035156 478.183594 357.226562 481.417969 C 354.75 477.835938 349.773438 474.480469 354.960938 470.660156 C 351.105469 467.671875 353.355469 462.582031 351.851562 458.398438 C 358.117188 457.570312 364.1875 453.84375 370.242188 453.777344 " fill-opacity="1" fill-rule="nonzero"/><path fill="#ffcc00" d="M 344.960938 471.421875 C 340.960938 472.242188 337.960938 471.101562 339.066406 467.039062 C 339.773438 464.4375 345.535156 464.683594 347.324219 462.179688 C 347.535156 465.492188 348.175781 469.613281 344.960938 471.421875 " fill-opacity="1" fill-rule="nonzero"/><path fill="#ffcc00" d="M 494.511719 485.417969 C 486.367188 486.707031 478.226562 487.996094 470.082031 489.285156 L 470.082031 467.636719 C 470.082031 466.21875 481.089844 465.222656 482.816406 465.046875 C 484.257812 464.898438 494.511719 463.730469 494.511719 465.339844 L 494.511719 485.417969 " fill-opacity="1" fill-rule="nonzero"/><path fill="#ffcc00" d="M 374.007812 466.042969 C 376.003906 472.144531 369.742188 482.886719 364.671875 480.757812 C 366.164062 477.027344 371.683594 466.382812 374.007812 466.042969 " fill-opacity="1" fill-rule="nonzero"/><path fill="#ffcc00" d="M 465.460938 490.039062 C 457.285156 491.582031 449.109375 493.121094 440.933594 494.664062 C 440.898438 491.90625 441.613281 489.878906 443.296875 488.53125 C 439.363281 485.652344 445.910156 480.613281 441.691406 480.136719 C 441.691406 470.898438 441.972656 472.207031 450.230469 470.894531 C 455.332031 470.078125 460.390625 468.878906 465.460938 467.875 C 465.460938 475.261719 465.460938 482.652344 465.460938 490.039062 " fill-opacity="1" fill-rule="nonzero"/><path fill="#ffcc00" d="M 295.253906 470.667969 C 296.230469 476.710938 286.152344 477.582031 282.046875 480.101562 C 272.773438 485.796875 269.011719 491.257812 269.972656 502.078125 C 264.640625 502.09375 259.148438 501.464844 253.9375 502.832031 L 253.9375 483.320312 C 253.9375 475.554688 252.851562 475.976562 259.785156 474.820312 C 263.449219 474.207031 277.46875 469.527344 277 474.675781 C 276.496094 480.222656 282.234375 483.949219 282.234375 477.507812 C 282.234375 467.441406 284.101562 469.191406 295.253906 470.667969 " fill-opacity="1" fill-rule="nonzero"/><path fill="#ffcc00" d="M 437.164062 494.339844 C 429.8125 495.597656 422.453125 496.945312 415 497.453125 L 415 495.09375 C 416.582031 495.242188 416.921875 494.707031 418.019531 494.335938 C 414.15625 492.894531 412.039062 480.046875 415 476.699219 C 417.214844 474.191406 432.117188 472.386719 436.316406 472.167969 C 436.617188 479.558594 435.746094 487.035156 437.164062 494.339844 " fill-opacity="1" fill-rule="nonzero"/><path fill="#ffcc00" d="M 315.90625 488.960938 C 319.503906 489.410156 330.871094 493.179688 330.058594 486.980469 C 329.179688 480.300781 313.390625 484.242188 317.699219 476.980469 C 322.003906 469.734375 343.109375 475.703125 348.355469 480 C 357.945312 487.855469 350.375 493.820312 343.402344 499.851562 C 331.269531 510.359375 292.691406 515.65625 279.308594 505.46875 C 266.210938 495.5 283.03125 482.078125 293.742188 480.660156 C 294.355469 487.195312 292.582031 495.472656 302.984375 494.8125 C 313.460938 494.144531 311.960938 483.269531 300.625 484.429688 C 302.921875 480.847656 305.214844 477.265625 307.511719 473.679688 C 313.132812 477.445312 308.417969 487.140625 315.90625 488.960938 " fill-opacity="1" fill-rule="nonzero"/><path fill="#ffcc00" d="M 408.761719 498.960938 C 401.996094 499.113281 395.707031 502.007812 388.953125 502.070312 C 388.933594 501.070312 390.125 495.382812 390.082031 495.328125 C 388.449219 493.085938 388.417969 488.667969 388.953125 486.035156 C 390.0625 480.554688 389.539062 481.53125 395.601562 480.378906 C 400.007812 479.535156 404.410156 478.644531 408.761719 477.546875 L 408.761719 498.960938 " fill-opacity="1" fill-rule="nonzero"/><path fill="#ffcc00" d="M 352.601562 505.742188 C 350.910156 511.546875 327.625 512.398438 321.285156 514.988281 L 321.285156 513.480469 C 328.746094 511.425781 336.140625 508.976562 343.027344 505.414062 C 349.121094 502.257812 349.34375 500.679688 352.601562 505.742188 " fill-opacity="1" fill-rule="nonzero"/><path fill="#ffcc00" d="M 278.460938 511.121094 C 278.507812 513.699219 276.988281 521.964844 279.96875 523.476562 C 285.441406 526.257812 283.796875 515.6875 283.839844 513.480469 C 293.976562 516.890625 305.707031 515.371094 316.003906 513.480469 C 308.945312 518.820312 299.777344 519.121094 291.480469 521.121094 C 278.707031 524.199219 266.160156 527.378906 253.183594 529.609375 C 253.46875 523.210938 253.394531 516.601562 255.636719 511.878906 C 256.789062 509.441406 256.625 510.488281 256.296875 508.199219 C 263.695312 504.789062 272.476562 506.410156 278.460938 511.121094 " fill-opacity="1" fill-rule="nonzero"/><path fill="#ffcc00" d="M 289.875 392.5625 C 292.03125 387.886719 294 381.539062 298.648438 378.980469 C 298.019531 378.160156 297.386719 377.34375 296.761719 376.527344 C 298.773438 374.351562 300.957031 372.933594 303.644531 372.753906 C 301.480469 374.359375 301.660156 377.492188 301.945312 379.546875 C 301.585938 379.226562 302.339844 379.25 302.230469 379.074219 C 305.515625 383.257812 314.039062 372.628906 319.210938 370.675781 C 336.371094 364.210938 325.78125 389.917969 315.152344 387.28125 C 324.691406 384.863281 317.070312 378.402344 312.417969 382.09375 C 307.65625 385.871094 313.609375 388.167969 313.265625 390.300781 C 312.664062 394.03125 312.746094 393.441406 308.929688 389.640625 C 305.78125 386.507812 299.582031 385.730469 302.890625 391.054688 C 306.859375 392.8125 309.402344 400.578125 314.398438 397.46875 C 314.59375 399.679688 313.945312 402.414062 314.683594 404.449219 C 315.324219 406.210938 318.84375 407.085938 318.738281 409.257812 C 318.4375 415.636719 307.949219 409.640625 305.25 408.222656 C 302.351562 406.695312 307.40625 402.492188 301.195312 405.863281 C 299.617188 406.722656 298.488281 410.753906 297.328125 412.183594 C 294.96875 415.101562 292.585938 417.960938 288.367188 417.84375 C 291.480469 409.855469 295.675781 400.253906 289.875 392.5625 " fill-opacity="1" fill-rule="nonzero"/><g fill="#000000" fill-opacity="1"><g transform="translate(245.119618, 264.990076)"><g><path d="M 5.53125 -0.78125 L -0.421875 -43.265625 L 17.703125 -45.796875 C 20.328125 -46.160156 22.597656 -46.0625 24.515625 -45.5 C 26.441406 -44.9375 27.976562 -43.957031 29.125 -42.5625 C 30.269531 -41.175781 30.988281 -39.445312 31.28125 -37.375 C 31.539062 -35.488281 31.316406 -33.757812 30.609375 -32.1875 C 29.898438 -30.625 28.753906 -29.289062 27.171875 -28.1875 L 27.25 -27.5625 C 30.019531 -27.257812 32.257812 -26.285156 33.96875 -24.640625 C 35.6875 -23.003906 36.734375 -20.847656 37.109375 -18.171875 C 37.679688 -14.097656 36.894531 -10.785156 34.75 -8.234375 C 32.601562 -5.691406 29.117188 -4.082031 24.296875 -3.40625 Z M 18.328125 -28.609375 C 22.253906 -29.160156 23.972656 -31.203125 23.484375 -34.734375 C 23.222656 -36.535156 22.546875 -37.804688 21.453125 -38.546875 C 20.359375 -39.296875 18.820312 -39.53125 16.84375 -39.25 L 8.859375 -38.140625 L 10.34375 -27.5 Z M 22.515625 -9.9375 C 27.148438 -10.582031 29.175781 -13.007812 28.59375 -17.21875 C 28 -21.4375 25.382812 -23.222656 20.75 -22.578125 L 11.21875 -21.25 L 12.984375 -8.609375 Z M 22.515625 -9.9375 "/></g></g></g><g fill="#000000" fill-opacity="1"><g transform="translate(286.683245, 259.169882)"><g><path d="M 29.6875 -18.65625 L 9.09375 -15.765625 C 9.707031 -13.003906 10.78125 -11.082031 12.3125 -10 C 13.84375 -8.925781 15.78125 -8.550781 18.125 -8.875 C 19.96875 -9.132812 21.414062 -9.6875 22.46875 -10.53125 C 23.519531 -11.382812 24.296875 -12.5625 24.796875 -14.0625 L 25.40625 -14.15625 L 31.234375 -11.46875 C 30.503906 -9.070312 29.175781 -7.023438 27.25 -5.328125 C 25.332031 -3.640625 22.609375 -2.546875 19.078125 -2.046875 C 15.765625 -1.585938 12.816406 -1.816406 10.234375 -2.734375 C 7.660156 -3.660156 5.539062 -5.273438 3.875 -7.578125 C 2.21875 -9.890625 1.132812 -12.835938 0.625 -16.421875 C 0.125 -20.066406 0.382812 -23.234375 1.40625 -25.921875 C 2.4375 -28.617188 4.035156 -30.742188 6.203125 -32.296875 C 8.367188 -33.859375 10.914062 -34.84375 13.84375 -35.25 C 18.375 -35.882812 22.015625 -35.164062 24.765625 -33.09375 C 27.523438 -31.03125 29.226562 -27.675781 29.875 -23.03125 C 30.113281 -21.34375 30.242188 -20.023438 30.265625 -19.078125 Z M 22.046875 -22.890625 C 21.628906 -25.316406 20.8125 -27.007812 19.59375 -27.96875 C 18.382812 -28.925781 16.757812 -29.265625 14.71875 -28.984375 C 10.644531 -28.410156 8.582031 -25.75 8.53125 -21 Z M 22.046875 -22.890625 "/></g></g></g><g fill="#000000" fill-opacity="1"><g transform="translate(321.532748, 254.289873)"><g><path d="M 15.078125 -1.484375 C 12.890625 -1.179688 10.847656 -1.15625 8.953125 -1.40625 C 7.066406 -1.664062 5.414062 -2.15625 4 -2.875 C 2.582031 -3.601562 1.484375 -4.507812 0.703125 -5.59375 L 4.5 -11.03125 L 5.125 -11.125 C 6.382812 -9.832031 7.789062 -8.925781 9.34375 -8.40625 C 10.894531 -7.894531 12.523438 -7.757812 14.234375 -8 C 15.796875 -8.21875 16.9375 -8.660156 17.65625 -9.328125 C 18.375 -10.003906 18.660156 -10.867188 18.515625 -11.921875 C 18.398438 -12.742188 18.015625 -13.390625 17.359375 -13.859375 C 16.710938 -14.328125 15.726562 -14.628906 14.40625 -14.765625 L 10.03125 -15.1875 C 6.75 -15.5 4.265625 -16.332031 2.578125 -17.6875 C 0.890625 -19.039062 -0.125 -20.921875 -0.46875 -23.328125 C -0.738281 -25.328125 -0.46875 -27.128906 0.34375 -28.734375 C 1.15625 -30.347656 2.429688 -31.671875 4.171875 -32.703125 C 5.910156 -33.742188 8.015625 -34.4375 10.484375 -34.78125 C 13.367188 -35.1875 15.816406 -35.101562 17.828125 -34.53125 C 19.847656 -33.96875 21.484375 -33.0625 22.734375 -31.8125 L 19.09375 -26.5625 L 18.515625 -26.46875 C 17.472656 -27.351562 16.363281 -27.953125 15.1875 -28.265625 C 14.007812 -28.578125 12.738281 -28.640625 11.375 -28.453125 C 8.195312 -28.003906 6.75 -26.785156 7.03125 -24.796875 C 7.144531 -23.960938 7.53125 -23.328125 8.1875 -22.890625 C 8.851562 -22.453125 9.953125 -22.171875 11.484375 -22.046875 L 15.578125 -21.75 C 18.921875 -21.5 21.453125 -20.707031 23.171875 -19.375 C 24.890625 -18.050781 25.929688 -16.09375 26.296875 -13.5 C 26.578125 -11.46875 26.320312 -9.601562 25.53125 -7.90625 C 24.75 -6.21875 23.460938 -4.816406 21.671875 -3.703125 C 19.890625 -2.597656 17.691406 -1.859375 15.078125 -1.484375 Z M 15.078125 -1.484375 "/></g></g></g><g fill="#000000" fill-opacity="1"><g transform="translate(351.092335, 250.150616)"><g><path d="M 21.03125 -10.734375 L 23.984375 -5.078125 C 23.210938 -4.234375 22.191406 -3.515625 20.921875 -2.921875 C 19.660156 -2.335938 18.195312 -1.925781 16.53125 -1.6875 C 13.0625 -1.207031 10.296875 -1.785156 8.234375 -3.421875 C 6.171875 -5.054688 4.882812 -7.671875 4.375 -11.265625 L 2.25 -26.515625 L -2.640625 -25.84375 L -3.546875 -32.234375 L 1.34375 -32.90625 L 0.46875 -39.15625 L 8.34375 -41.59375 L 9.390625 -34.046875 L 18.5 -35.3125 L 19.40625 -28.921875 L 10.296875 -27.65625 L 12.34375 -13 C 12.5625 -11.414062 13.050781 -10.300781 13.8125 -9.65625 C 14.582031 -9.019531 15.597656 -8.789062 16.859375 -8.96875 C 18.296875 -9.164062 19.488281 -9.726562 20.4375 -10.65625 Z M 21.03125 -10.734375 "/></g></g></g><g fill="#000000" fill-opacity="1"><g transform="translate(390.040069, 244.696727)"><g><path d="M 5.53125 -0.78125 L -0.421875 -43.265625 L 17.703125 -45.796875 C 20.328125 -46.160156 22.597656 -46.0625 24.515625 -45.5 C 26.441406 -44.9375 27.976562 -43.957031 29.125 -42.5625 C 30.269531 -41.175781 30.988281 -39.445312 31.28125 -37.375 C 31.539062 -35.488281 31.316406 -33.757812 30.609375 -32.1875 C 29.898438 -30.625 28.753906 -29.289062 27.171875 -28.1875 L 27.25 -27.5625 C 30.019531 -27.257812 32.257812 -26.285156 33.96875 -24.640625 C 35.6875 -23.003906 36.734375 -20.847656 37.109375 -18.171875 C 37.679688 -14.097656 36.894531 -10.785156 34.75 -8.234375 C 32.601562 -5.691406 29.117188 -4.082031 24.296875 -3.40625 Z M 18.328125 -28.609375 C 22.253906 -29.160156 23.972656 -31.203125 23.484375 -34.734375 C 23.222656 -36.535156 22.546875 -37.804688 21.453125 -38.546875 C 20.359375 -39.296875 18.820312 -39.53125 16.84375 -39.25 L 8.859375 -38.140625 L 10.34375 -27.5 Z M 22.515625 -9.9375 C 27.148438 -10.582031 29.175781 -13.007812 28.59375 -17.21875 C 28 -21.4375 25.382812 -23.222656 20.75 -22.578125 L 11.21875 -21.25 L 12.984375 -8.609375 Z M 22.515625 -9.9375 "/></g></g></g><g fill="#000000" fill-opacity="1"><g transform="translate(431.603696, 238.876533)"><g><path d="M 18.703125 -2 C 15.566406 -1.5625 12.722656 -1.816406 10.171875 -2.765625 C 7.628906 -3.722656 5.523438 -5.351562 3.859375 -7.65625 C 2.203125 -9.96875 1.125 -12.890625 0.625 -16.421875 C 0.132812 -19.953125 0.367188 -23.054688 1.328125 -25.734375 C 2.296875 -28.421875 3.875 -30.570312 6.0625 -32.1875 C 8.25 -33.8125 10.910156 -34.84375 14.046875 -35.28125 C 17.179688 -35.71875 20.03125 -35.457031 22.59375 -34.5 C 25.15625 -33.550781 27.265625 -31.914062 28.921875 -29.59375 C 30.585938 -27.28125 31.664062 -24.359375 32.15625 -20.828125 C 32.65625 -17.296875 32.421875 -14.191406 31.453125 -11.515625 C 30.492188 -8.847656 28.910156 -6.703125 26.703125 -5.078125 C 24.503906 -3.460938 21.835938 -2.4375 18.703125 -2 Z M 17.75 -8.828125 C 22.738281 -9.523438 24.773438 -13.140625 23.859375 -19.671875 C 23.390625 -23.066406 22.398438 -25.460938 20.890625 -26.859375 C 19.390625 -28.265625 17.425781 -28.796875 15 -28.453125 C 10.019531 -27.753906 7.988281 -24.128906 8.90625 -17.578125 C 9.820312 -11.046875 12.769531 -8.128906 17.75 -8.828125 Z M 17.75 -8.828125 "/></g></g></g><g fill="#000000" fill-opacity="1"><g transform="translate(468.865633, 233.658709)"><g><path d="M 18.703125 -2 C 15.566406 -1.5625 12.722656 -1.816406 10.171875 -2.765625 C 7.628906 -3.722656 5.523438 -5.351562 3.859375 -7.65625 C 2.203125 -9.96875 1.125 -12.890625 0.625 -16.421875 C 0.132812 -19.953125 0.367188 -23.054688 1.328125 -25.734375 C 2.296875 -28.421875 3.875 -30.570312 6.0625 -32.1875 C 8.25 -33.8125 10.910156 -34.84375 14.046875 -35.28125 C 17.179688 -35.71875 20.03125 -35.457031 22.59375 -34.5 C 25.15625 -33.550781 27.265625 -31.914062 28.921875 -29.59375 C 30.585938 -27.28125 31.664062 -24.359375 32.15625 -20.828125 C 32.65625 -17.296875 32.421875 -14.191406 31.453125 -11.515625 C 30.492188 -8.847656 28.910156 -6.703125 26.703125 -5.078125 C 24.503906 -3.460938 21.835938 -2.4375 18.703125 -2 Z M 17.75 -8.828125 C 22.738281 -9.523438 24.773438 -13.140625 23.859375 -19.671875 C 23.390625 -23.066406 22.398438 -25.460938 20.890625 -26.859375 C 19.390625 -28.265625 17.425781 -28.796875 15 -28.453125 C 10.019531 -27.753906 7.988281 -24.128906 8.90625 -17.578125 C 9.820312 -11.046875 12.769531 -8.128906 17.75 -8.828125 Z M 17.75 -8.828125 "/></g></g></g><g fill="#000000" fill-opacity="1"><g transform="translate(506.12757, 228.440884)"><g><path d="M 4.625 -0.640625 L -1.671875 -45.578125 L 6.375 -46.71875 L 9.875 -21.78125 L 10.671875 -21.890625 L 18.25 -35.25 L 26.421875 -36.390625 L 26.515625 -35.71875 L 17.578125 -20.125 L 32.015625 -5.234375 L 32.125 -4.5 L 23.625 -3.3125 L 11.578125 -15.40625 L 10.78125 -15.296875 L 12.671875 -1.78125 Z M 4.625 -0.640625 "/></g></g></g><g fill="#000000" fill-opacity="1"><g transform="translate(538.311592, 223.934125)"><g/></g></g><g fill="#000000" fill-opacity="1"><g transform="translate(341.475774, 310.192346)"><g><path d="M 4.765625 -0.734375 L 1.390625 -22.546875 L -2.46875 -21.953125 L -3.3125 -27.390625 L 0.546875 -27.984375 C 0.0859375 -29.097656 -0.21875 -30.15625 -0.375 -31.15625 C -0.644531 -32.882812 -0.476562 -34.421875 0.125 -35.765625 C 0.726562 -37.117188 1.71875 -38.226562 3.09375 -39.09375 C 4.476562 -39.96875 6.191406 -40.5625 8.234375 -40.875 C 11.242188 -41.34375 13.566406 -41.175781 15.203125 -40.375 L 14.375 -35.09375 L 13.890625 -34.921875 C 12.753906 -35.472656 11.390625 -35.628906 9.796875 -35.390625 C 8.554688 -35.191406 7.671875 -34.742188 7.140625 -34.046875 C 6.617188 -33.347656 6.441406 -32.484375 6.609375 -31.453125 C 6.671875 -31.015625 6.757812 -30.613281 6.875 -30.25 C 6.988281 -29.894531 7.15625 -29.492188 7.375 -29.046875 L 15.15625 -30.25 L 16 -24.8125 L 8.21875 -23.609375 L 11.59375 -1.796875 Z M 4.765625 -0.734375 "/></g></g></g><g fill="#000000" fill-opacity="1"><g transform="translate(361.125638, 307.151309)"><g><path d="M 15.90625 -1.921875 C 13.238281 -1.503906 10.8125 -1.6875 8.625 -2.46875 C 6.445312 -3.257812 4.632812 -4.625 3.1875 -6.5625 C 1.75 -8.507812 0.796875 -10.984375 0.328125 -13.984375 C -0.128906 -16.972656 0.03125 -19.613281 0.8125 -21.90625 C 1.601562 -24.195312 2.921875 -26.046875 4.765625 -27.453125 C 6.609375 -28.867188 8.863281 -29.785156 11.53125 -30.203125 C 14.195312 -30.609375 16.617188 -30.414062 18.796875 -29.625 C 20.984375 -28.84375 22.800781 -27.476562 24.25 -25.53125 C 25.707031 -23.59375 26.664062 -21.128906 27.125 -18.140625 C 27.59375 -15.140625 27.425781 -12.492188 26.625 -10.203125 C 25.832031 -7.910156 24.515625 -6.054688 22.671875 -4.640625 C 20.828125 -3.234375 18.570312 -2.328125 15.90625 -1.921875 Z M 15.015625 -7.734375 C 19.242188 -8.390625 20.925781 -11.492188 20.0625 -17.046875 C 19.613281 -19.921875 18.742188 -21.941406 17.453125 -23.109375 C 16.171875 -24.273438 14.5 -24.703125 12.4375 -24.390625 C 8.207031 -23.734375 6.519531 -20.628906 7.375 -15.078125 C 8.238281 -9.523438 10.785156 -7.078125 15.015625 -7.734375 Z M 15.015625 -7.734375 "/></g></g></g><g fill="#000000" fill-opacity="1"><g transform="translate(392.772783, 302.253559)"><g><path d="M 3.921875 -0.609375 L -0.296875 -27.828125 L 6.34375 -28.859375 L 6.96875 -24.8125 L 7.515625 -24.796875 C 7.941406 -26.421875 8.632812 -27.664062 9.59375 -28.53125 C 10.550781 -29.394531 11.796875 -29.945312 13.328125 -30.1875 C 14.867188 -30.425781 16.085938 -30.347656 16.984375 -29.953125 L 16.734375 -23.875 L 16.21875 -23.6875 C 15.75 -23.800781 15.300781 -23.867188 14.875 -23.890625 C 14.457031 -23.910156 13.945312 -23.875 13.34375 -23.78125 C 11.4375 -23.476562 10.085938 -22.582031 9.296875 -21.09375 C 8.503906 -19.601562 8.335938 -17.375 8.796875 -14.40625 L 10.765625 -1.671875 Z M 3.921875 -0.609375 "/></g></g></g><g fill="#000000" fill-opacity="1"><g transform="translate(253.547752, 383.985575)"><g><path d="M 10.453125 -31.1875 C 12.503906 -31.5 14.320312 -31.390625 15.90625 -30.859375 C 17.488281 -30.335938 18.757812 -29.453125 19.71875 -28.203125 C 20.6875 -26.953125 21.3125 -25.425781 21.59375 -23.625 C 21.875 -21.8125 21.742188 -20.171875 21.203125 -18.703125 C 20.660156 -17.234375 19.710938 -16.003906 18.359375 -15.015625 C 17.003906 -14.035156 15.300781 -13.390625 13.25 -13.078125 L 7.796875 -12.234375 L 9.46875 -1.46875 L 3.75 -0.578125 L -0.71875 -29.453125 Z M 11.796875 -17.46875 C 14.972656 -17.957031 16.328125 -19.710938 15.859375 -22.734375 C 15.390625 -25.753906 13.566406 -27.019531 10.390625 -26.53125 L 5.703125 -25.8125 L 7.109375 -16.75 Z M 11.796875 -17.46875 "/></g></g></g><g fill="#000000" fill-opacity="1"><g transform="translate(279.928028, 379.902932)"><g><path d="M 3.140625 -0.484375 L -0.234375 -22.265625 L 5.078125 -23.09375 L 5.578125 -19.859375 L 6 -19.84375 C 6.34375 -21.132812 6.898438 -22.125 7.671875 -22.8125 C 8.441406 -23.507812 9.4375 -23.953125 10.65625 -24.140625 C 11.894531 -24.335938 12.867188 -24.273438 13.578125 -23.953125 L 13.375 -19.09375 L 12.96875 -18.953125 C 12.601562 -19.046875 12.25 -19.097656 11.90625 -19.109375 C 11.5625 -19.117188 11.15625 -19.085938 10.6875 -19.015625 C 9.164062 -18.773438 8.082031 -18.054688 7.4375 -16.859375 C 6.800781 -15.671875 6.664062 -13.890625 7.03125 -11.515625 L 8.609375 -1.328125 Z M 3.140625 -0.484375 "/></g></g></g><g fill="#000000" fill-opacity="1"><g transform="translate(297.008072, 377.259603)"><g><path d="M 12.71875 -1.53125 C 10.59375 -1.207031 8.648438 -1.359375 6.890625 -1.984375 C 5.140625 -2.609375 3.691406 -3.695312 2.546875 -5.25 C 1.410156 -6.800781 0.65625 -8.78125 0.28125 -11.1875 C -0.0820312 -13.570312 0.0390625 -15.679688 0.65625 -17.515625 C 1.269531 -19.359375 2.316406 -20.84375 3.796875 -21.96875 C 5.285156 -23.09375 7.09375 -23.816406 9.21875 -24.140625 C 11.351562 -24.472656 13.289062 -24.328125 15.03125 -23.703125 C 16.78125 -23.078125 18.234375 -21.984375 19.390625 -20.421875 C 20.554688 -18.867188 21.320312 -16.898438 21.6875 -14.515625 C 22.0625 -12.109375 21.929688 -9.988281 21.296875 -8.15625 C 20.660156 -6.320312 19.601562 -4.84375 18.125 -3.71875 C 16.65625 -2.59375 14.851562 -1.863281 12.71875 -1.53125 Z M 12 -6.1875 C 15.375 -6.71875 16.71875 -9.203125 16.03125 -13.640625 C 15.675781 -15.929688 14.984375 -17.546875 13.953125 -18.484375 C 12.921875 -19.429688 11.582031 -19.773438 9.9375 -19.515625 C 6.550781 -18.992188 5.203125 -16.507812 5.890625 -12.0625 C 6.578125 -7.625 8.613281 -5.664062 12 -6.1875 Z M 12 -6.1875 "/></g></g></g><g fill="#000000" fill-opacity="1"><g transform="translate(322.322079, 373.341977)"><g><path d="M 12.703125 7.484375 C 9.117188 8.046875 6.390625 7.929688 4.515625 7.140625 C 2.640625 6.347656 1.554688 5.015625 1.265625 3.140625 C 1.085938 1.992188 1.3125 1 1.9375 0.15625 C 2.5625 -0.6875 3.535156 -1.335938 4.859375 -1.796875 L 4.796875 -2.21875 C 3.984375 -2.550781 3.375 -2.960938 2.96875 -3.453125 C 2.570312 -3.953125 2.316406 -4.5625 2.203125 -5.28125 C 1.929688 -7.03125 2.882812 -8.390625 5.0625 -9.359375 L 5 -9.765625 C 3.71875 -10.265625 2.707031 -10.960938 1.96875 -11.859375 C 1.226562 -12.753906 0.75 -13.910156 0.53125 -15.328125 C 0.300781 -16.773438 0.429688 -18.097656 0.921875 -19.296875 C 1.410156 -20.492188 2.25 -21.5 3.4375 -22.3125 C 4.625 -23.125 6.113281 -23.664062 7.90625 -23.9375 C 9.726562 -24.21875 11.234375 -24.132812 12.421875 -23.6875 C 12.929688 -24.757812 13.140625 -25.941406 13.046875 -27.234375 L 13.4375 -27.546875 L 17.5 -27.203125 C 17.550781 -26.140625 17.382812 -25.21875 17 -24.4375 C 16.613281 -23.664062 15.957031 -22.921875 15.03125 -22.203125 L 15.09375 -21.78125 C 16.476562 -20.882812 17.320312 -19.46875 17.625 -17.53125 C 17.832031 -16.195312 17.679688 -14.941406 17.171875 -13.765625 C 16.671875 -12.585938 15.828125 -11.585938 14.640625 -10.765625 C 13.453125 -9.953125 11.972656 -9.40625 10.203125 -9.125 L 9.390625 -9.03125 C 8.847656 -8.96875 8.472656 -8.921875 8.265625 -8.890625 C 7.753906 -8.816406 7.378906 -8.625 7.140625 -8.3125 C 6.898438 -8 6.816406 -7.628906 6.890625 -7.203125 C 6.953125 -6.742188 7.1875 -6.414062 7.59375 -6.21875 C 8.007812 -6.019531 8.570312 -5.96875 9.28125 -6.0625 L 14.203125 -6.625 C 19.035156 -7.226562 21.765625 -5.523438 22.390625 -1.515625 C 22.609375 -0.109375 22.441406 1.191406 21.890625 2.390625 C 21.347656 3.597656 20.320312 4.648438 18.8125 5.546875 C 17.300781 6.441406 15.265625 7.085938 12.703125 7.484375 Z M 9.609375 -12.953125 C 10.671875 -13.117188 11.445312 -13.5625 11.9375 -14.28125 C 12.4375 -15 12.597656 -15.929688 12.421875 -17.078125 C 12.253906 -18.210938 11.820312 -19.039062 11.125 -19.5625 C 10.4375 -20.082031 9.5625 -20.257812 8.5 -20.09375 C 7.445312 -19.9375 6.675781 -19.503906 6.1875 -18.796875 C 5.707031 -18.085938 5.550781 -17.164062 5.71875 -16.03125 C 5.90625 -14.863281 6.335938 -14.019531 7.015625 -13.5 C 7.691406 -12.976562 8.554688 -12.796875 9.609375 -12.953125 Z M 12.09375 3.515625 C 13.96875 3.222656 15.289062 2.75 16.0625 2.09375 C 16.832031 1.4375 17.148438 0.6875 17.015625 -0.15625 C 16.910156 -0.832031 16.613281 -1.296875 16.125 -1.546875 C 15.644531 -1.804688 14.929688 -1.875 13.984375 -1.75 L 9.65625 -1.28125 C 9.507812 -1.257812 9.367188 -1.242188 9.234375 -1.234375 C 9.109375 -1.234375 8.988281 -1.226562 8.875 -1.21875 C 7.945312 -1.070312 7.269531 -0.765625 6.84375 -0.296875 C 6.425781 0.171875 6.273438 0.753906 6.390625 1.453125 C 6.523438 2.367188 7.070312 3.007812 8.03125 3.375 C 8.988281 3.738281 10.34375 3.785156 12.09375 3.515625 Z M 12.09375 3.515625 "/></g></g></g><g fill="#000000" fill-opacity="1"><g transform="translate(344.970413, 369.836893)"><g><path d="M 3.140625 -0.484375 L -0.234375 -22.265625 L 5.078125 -23.09375 L 5.578125 -19.859375 L 6 -19.84375 C 6.34375 -21.132812 6.898438 -22.125 7.671875 -22.8125 C 8.441406 -23.507812 9.4375 -23.953125 10.65625 -24.140625 C 11.894531 -24.335938 12.867188 -24.273438 13.578125 -23.953125 L 13.375 -19.09375 L 12.96875 -18.953125 C 12.601562 -19.046875 12.25 -19.097656 11.90625 -19.109375 C 11.5625 -19.117188 11.15625 -19.085938 10.6875 -19.015625 C 9.164062 -18.773438 8.082031 -18.054688 7.4375 -16.859375 C 6.800781 -15.671875 6.664062 -13.890625 7.03125 -11.515625 L 8.609375 -1.328125 Z M 3.140625 -0.484375 "/></g></g></g><g fill="#000000" fill-opacity="1"><g transform="translate(362.050457, 367.193565)"><g><path d="M 8.5625 -0.890625 C 7.15625 -0.671875 5.898438 -0.738281 4.796875 -1.09375 C 3.691406 -1.457031 2.785156 -2.09375 2.078125 -3 C 1.367188 -3.90625 0.910156 -5.054688 0.703125 -6.453125 C 0.492188 -7.742188 0.597656 -8.867188 1.015625 -9.828125 C 1.429688 -10.796875 2.175781 -11.648438 3.25 -12.390625 C 4.332031 -13.128906 5.785156 -13.789062 7.609375 -14.375 C 8.867188 -14.789062 9.820312 -15.175781 10.46875 -15.53125 C 11.113281 -15.882812 11.523438 -16.238281 11.703125 -16.59375 C 11.890625 -16.957031 11.945312 -17.378906 11.875 -17.859375 C 11.769531 -18.554688 11.441406 -19.046875 10.890625 -19.328125 C 10.347656 -19.617188 9.515625 -19.675781 8.390625 -19.5 C 7.179688 -19.3125 6.066406 -18.863281 5.046875 -18.15625 C 4.035156 -17.457031 3.195312 -16.609375 2.53125 -15.609375 L 2.15625 -15.546875 L -0.6875 -18.625 C 0.238281 -20.03125 1.441406 -21.195312 2.921875 -22.125 C 4.398438 -23.050781 6.082031 -23.660156 7.96875 -23.953125 C 10.851562 -24.398438 13.035156 -24.113281 14.515625 -23.09375 C 15.992188 -22.070312 16.910156 -20.429688 17.265625 -18.171875 L 18.734375 -8.71875 C 18.878906 -7.75 19.378906 -7.332031 20.234375 -7.46875 C 20.566406 -7.519531 20.878906 -7.628906 21.171875 -7.796875 L 21.46875 -7.75 L 22.453125 -4 C 22.179688 -3.757812 21.785156 -3.535156 21.265625 -3.328125 C 20.742188 -3.117188 20.160156 -2.960938 19.515625 -2.859375 C 18.222656 -2.660156 17.171875 -2.753906 16.359375 -3.140625 C 15.546875 -3.523438 14.898438 -4.226562 14.421875 -5.25 L 13.984375 -5.21875 C 13.273438 -2.78125 11.46875 -1.335938 8.5625 -0.890625 Z M 9.65625 -5.25 C 10.925781 -5.445312 11.867188 -6.03125 12.484375 -7 C 13.109375 -7.96875 13.304688 -9.210938 13.078125 -10.734375 L 12.734375 -12.9375 L 12.34375 -12.953125 C 12.0625 -12.640625 11.664062 -12.347656 11.15625 -12.078125 C 10.644531 -11.816406 9.90625 -11.53125 8.9375 -11.21875 C 7.78125 -10.832031 6.976562 -10.359375 6.53125 -9.796875 C 6.09375 -9.234375 5.941406 -8.507812 6.078125 -7.625 C 6.222656 -6.6875 6.609375 -6.019531 7.234375 -5.625 C 7.867188 -5.226562 8.675781 -5.101562 9.65625 -5.25 Z M 9.65625 -5.25 "/></g></g></g><g fill="#000000" fill-opacity="1"><g transform="translate(385.014724, 363.639588)"><g><path d="M 3.140625 -0.484375 L -0.234375 -22.265625 L 5.015625 -23.078125 L 5.46875 -20.15625 L 5.890625 -20.140625 C 6.421875 -21.421875 7.117188 -22.410156 7.984375 -23.109375 C 8.859375 -23.804688 10.039062 -24.269531 11.53125 -24.5 C 13.175781 -24.757812 14.546875 -24.640625 15.640625 -24.140625 C 16.742188 -23.648438 17.625 -22.8125 18.28125 -21.625 L 18.703125 -21.6875 C 19.171875 -23.09375 19.882812 -24.191406 20.84375 -24.984375 C 21.800781 -25.773438 23.078125 -26.289062 24.671875 -26.53125 C 29.171875 -27.226562 31.8125 -25.066406 32.59375 -20.046875 L 34.859375 -5.390625 L 29.40625 -4.546875 L 27.25 -18.5 C 27.050781 -19.78125 26.65625 -20.664062 26.0625 -21.15625 C 25.476562 -21.644531 24.632812 -21.804688 23.53125 -21.640625 C 20.519531 -21.171875 19.328125 -18.925781 19.953125 -14.90625 L 21.734375 -3.359375 L 16.28125 -2.515625 L 14.125 -16.46875 C 13.925781 -17.75 13.523438 -18.632812 12.921875 -19.125 C 12.328125 -19.613281 11.476562 -19.773438 10.375 -19.609375 C 8.96875 -19.390625 7.941406 -18.742188 7.296875 -17.671875 C 6.648438 -16.609375 6.484375 -15.050781 6.796875 -13 L 8.609375 -1.328125 Z M 3.140625 -0.484375 "/></g></g></g><g fill="#000000" fill-opacity="1"><g transform="translate(422.689548, 357.808986)"><g><path d="M 3.140625 -0.484375 L -0.234375 -22.265625 L 5.015625 -23.078125 L 5.46875 -20.15625 L 5.890625 -20.140625 C 6.421875 -21.421875 7.117188 -22.410156 7.984375 -23.109375 C 8.859375 -23.804688 10.039062 -24.269531 11.53125 -24.5 C 13.175781 -24.757812 14.546875 -24.640625 15.640625 -24.140625 C 16.742188 -23.648438 17.625 -22.8125 18.28125 -21.625 L 18.703125 -21.6875 C 19.171875 -23.09375 19.882812 -24.191406 20.84375 -24.984375 C 21.800781 -25.773438 23.078125 -26.289062 24.671875 -26.53125 C 29.171875 -27.226562 31.8125 -25.066406 32.59375 -20.046875 L 34.859375 -5.390625 L 29.40625 -4.546875 L 27.25 -18.5 C 27.050781 -19.78125 26.65625 -20.664062 26.0625 -21.15625 C 25.476562 -21.644531 24.632812 -21.804688 23.53125 -21.640625 C 20.519531 -21.171875 19.328125 -18.925781 19.953125 -14.90625 L 21.734375 -3.359375 L 16.28125 -2.515625 L 14.125 -16.46875 C 13.925781 -17.75 13.523438 -18.632812 12.921875 -19.125 C 12.328125 -19.613281 11.476562 -19.773438 10.375 -19.609375 C 8.96875 -19.390625 7.941406 -18.742188 7.296875 -17.671875 C 6.648438 -16.609375 6.484375 -15.050781 6.796875 -13 L 8.609375 -1.328125 Z M 3.140625 -0.484375 "/></g></g></g><g fill="#000000" fill-opacity="1"><g transform="translate(460.364372, 351.978385)"><g><path d="M 2.109375 -25.28125 C 1.117188 -25.125 0.269531 -25.300781 -0.4375 -25.8125 C -1.15625 -26.320312 -1.585938 -27.050781 -1.734375 -28 C -1.878906 -28.9375 -1.6875 -29.75 -1.15625 -30.4375 C -0.632812 -31.125 0.117188 -31.546875 1.109375 -31.703125 C 1.765625 -31.804688 2.367188 -31.757812 2.921875 -31.5625 C 3.472656 -31.363281 3.925781 -31.046875 4.28125 -30.609375 C 4.632812 -30.171875 4.863281 -29.644531 4.96875 -29.03125 C 5.0625 -28.414062 5.003906 -27.84375 4.796875 -27.3125 C 4.585938 -26.78125 4.25 -26.332031 3.78125 -25.96875 C 3.320312 -25.613281 2.765625 -25.382812 2.109375 -25.28125 Z M 3.140625 -0.484375 L -0.234375 -22.265625 L 5.234375 -23.109375 L 8.609375 -1.328125 Z M 3.140625 -0.484375 "/></g></g></g><g fill="#000000" fill-opacity="1"><g transform="translate(472.093327, 350.163198)"><g><path d="M 3.140625 -0.484375 L -0.234375 -22.265625 L 5.015625 -23.078125 L 5.515625 -19.875 L 5.9375 -19.84375 C 6.914062 -22.519531 8.921875 -24.09375 11.953125 -24.5625 C 14.472656 -24.957031 16.429688 -24.5625 17.828125 -23.375 C 19.222656 -22.1875 20.125 -20.285156 20.53125 -17.671875 L 22.71875 -3.515625 L 17.234375 -2.671875 L 15.140625 -16.15625 C 14.921875 -17.601562 14.472656 -18.601562 13.796875 -19.15625 C 13.117188 -19.707031 12.144531 -19.882812 10.875 -19.6875 C 9.300781 -19.4375 8.15625 -18.734375 7.4375 -17.578125 C 6.71875 -16.429688 6.523438 -14.769531 6.859375 -12.59375 L 8.609375 -1.328125 Z M 3.140625 -0.484375 "/></g></g></g><g fill="#000000" fill-opacity="1"><g transform="translate(497.60479, 346.215013)"><g><path d="M 12.703125 7.484375 C 9.117188 8.046875 6.390625 7.929688 4.515625 7.140625 C 2.640625 6.347656 1.554688 5.015625 1.265625 3.140625 C 1.085938 1.992188 1.3125 1 1.9375 0.15625 C 2.5625 -0.6875 3.535156 -1.335938 4.859375 -1.796875 L 4.796875 -2.21875 C 3.984375 -2.550781 3.375 -2.960938 2.96875 -3.453125 C 2.570312 -3.953125 2.316406 -4.5625 2.203125 -5.28125 C 1.929688 -7.03125 2.882812 -8.390625 5.0625 -9.359375 L 5 -9.765625 C 3.71875 -10.265625 2.707031 -10.960938 1.96875 -11.859375 C 1.226562 -12.753906 0.75 -13.910156 0.53125 -15.328125 C 0.300781 -16.773438 0.429688 -18.097656 0.921875 -19.296875 C 1.410156 -20.492188 2.25 -21.5 3.4375 -22.3125 C 4.625 -23.125 6.113281 -23.664062 7.90625 -23.9375 C 9.726562 -24.21875 11.234375 -24.132812 12.421875 -23.6875 C 12.929688 -24.757812 13.140625 -25.941406 13.046875 -27.234375 L 13.4375 -27.546875 L 17.5 -27.203125 C 17.550781 -26.140625 17.382812 -25.21875 17 -24.4375 C 16.613281 -23.664062 15.957031 -22.921875 15.03125 -22.203125 L 15.09375 -21.78125 C 16.476562 -20.882812 17.320312 -19.46875 17.625 -17.53125 C 17.832031 -16.195312 17.679688 -14.941406 17.171875 -13.765625 C 16.671875 -12.585938 15.828125 -11.585938 14.640625 -10.765625 C 13.453125 -9.953125 11.972656 -9.40625 10.203125 -9.125 L 9.390625 -9.03125 C 8.847656 -8.96875 8.472656 -8.921875 8.265625 -8.890625 C 7.753906 -8.816406 7.378906 -8.625 7.140625 -8.3125 C 6.898438 -8 6.816406 -7.628906 6.890625 -7.203125 C 6.953125 -6.742188 7.1875 -6.414062 7.59375 -6.21875 C 8.007812 -6.019531 8.570312 -5.96875 9.28125 -6.0625 L 14.203125 -6.625 C 19.035156 -7.226562 21.765625 -5.523438 22.390625 -1.515625 C 22.609375 -0.109375 22.441406 1.191406 21.890625 2.390625 C 21.347656 3.597656 20.320312 4.648438 18.8125 5.546875 C 17.300781 6.441406 15.265625 7.085938 12.703125 7.484375 Z M 9.609375 -12.953125 C 10.671875 -13.117188 11.445312 -13.5625 11.9375 -14.28125 C 12.4375 -15 12.597656 -15.929688 12.421875 -17.078125 C 12.253906 -18.210938 11.820312 -19.039062 11.125 -19.5625 C 10.4375 -20.082031 9.5625 -20.257812 8.5 -20.09375 C 7.445312 -19.9375 6.675781 -19.503906 6.1875 -18.796875 C 5.707031 -18.085938 5.550781 -17.164062 5.71875 -16.03125 C 5.90625 -14.863281 6.335938 -14.019531 7.015625 -13.5 C 7.691406 -12.976562 8.554688 -12.796875 9.609375 -12.953125 Z M 12.09375 3.515625 C 13.96875 3.222656 15.289062 2.75 16.0625 2.09375 C 16.832031 1.4375 17.148438 0.6875 17.015625 -0.15625 C 16.910156 -0.832031 16.613281 -1.296875 16.125 -1.546875 C 15.644531 -1.804688 14.929688 -1.875 13.984375 -1.75 L 9.65625 -1.28125 C 9.507812 -1.257812 9.367188 -1.242188 9.234375 -1.234375 C 9.109375 -1.234375 8.988281 -1.226562 8.875 -1.21875 C 7.945312 -1.070312 7.269531 -0.765625 6.84375 -0.296875 C 6.425781 0.171875 6.273438 0.753906 6.390625 1.453125 C 6.523438 2.367188 7.070312 3.007812 8.03125 3.375 C 8.988281 3.738281 10.34375 3.785156 12.09375 3.515625 Z M 12.09375 3.515625 "/></g></g></g><path fill="#000000" d="M 235.1875 649.390625 C 235.1875 628.316406 252.269531 611.230469 273.34375 611.230469 C 294.417969 611.230469 311.503906 628.316406 311.503906 649.390625 C 311.503906 670.46875 294.417969 687.554688 273.34375 687.554688 C 252.269531 687.554688 235.1875 670.46875 235.1875 649.390625 " fill-opacity="1" fill-rule="nonzero"/><g clip-path="url(#79ec5137a1)"><path fill="#000000" d="M 230.375 649.390625 C 230.375 625.660156 249.613281 606.425781 273.347656 606.425781 C 297.078125 606.425781 316.316406 625.660156 316.316406 649.390625 C 316.316406 673.121094 297.078125 692.359375 273.347656 692.359375 C 249.613281 692.359375 230.375 673.121094 230.375 649.390625 Z M 476.65625 601.046875 L 273.347656 601.046875 C 246.648438 601.046875 225 622.691406 225 649.390625 C 225 676.09375 246.648438 697.738281 273.347656 697.738281 L 476.65625 697.738281 C 503.355469 697.738281 525 676.09375 525 649.390625 C 525 622.691406 503.355469 601.046875 476.65625 601.046875 " fill-opacity="1" fill-rule="nonzero"/></g><path fill="#ffffff" d="M 273.34375 687.554688 C 252.269531 687.554688 235.1875 670.46875 235.1875 649.390625 C 235.1875 628.316406 252.269531 611.230469 273.34375 611.230469 C 294.417969 611.230469 311.503906 628.316406 311.503906 649.390625 C 311.503906 670.46875 294.417969 687.554688 273.34375 687.554688 Z M 273.34375 606.457031 C 249.632812 606.457031 230.410156 625.679688 230.410156 649.390625 C 230.410156 673.105469 249.632812 692.328125 273.34375 692.328125 C 297.054688 692.328125 316.28125 673.105469 316.28125 649.390625 C 316.28125 625.679688 297.054688 606.457031 273.34375 606.457031 " fill-opacity="1" fill-rule="nonzero"/><path fill="#ffffff" d="M 347.046875 661.601562 L 350.820312 661.601562 C 354.03125 661.601562 355.835938 659.839844 355.835938 655.984375 C 355.835938 652.300781 354.167969 650.273438 350.167969 650.273438 L 347.046875 650.273438 Z M 350.164062 646.292969 C 353.929688 646.292969 355.058594 644.757812 355.058594 641.722656 C 355.058594 638.75 353.492188 637.203125 350.453125 637.203125 L 347.046875 637.203125 L 347.046875 646.292969 Z M 342.105469 633.152344 L 351.5 633.152344 C 356.863281 633.152344 359.914062 636.195312 359.914062 641.261719 C 359.914062 645.441406 357.917969 647.394531 356.089844 648.0625 C 358.4375 648.980469 360.898438 651.136719 360.898438 656.058594 C 360.898438 662.109375 357.054688 665.582031 351.332031 665.582031 L 342.105469 665.582031 L 342.105469 633.152344 " fill-opacity="1" fill-rule="nonzero"/><path fill="#ffffff" d="M 369.980469 633.152344 L 369.980469 655.617188 C 369.980469 658.585938 370.769531 661.867188 374.582031 661.867188 C 378.324219 661.867188 379.167969 659.109375 379.167969 655.636719 L 379.167969 633.152344 L 384.210938 633.152344 L 384.210938 655.714844 C 384.210938 661.566406 381.988281 666.128906 374.488281 666.128906 C 367.15625 666.128906 364.921875 661.839844 364.921875 655.785156 L 364.921875 633.152344 L 369.980469 633.152344 " fill-opacity="1" fill-rule="nonzero"/><path fill="#ffffff" d="M 395.046875 665.582031 L 395.046875 653.804688 C 395.046875 653.453125 394.984375 653.164062 394.835938 652.832031 L 386.640625 633.152344 L 392.277344 633.152344 C 394.226562 638.375 396.753906 645.097656 397.726562 648.4375 C 398.890625 644.746094 401.445312 638.121094 403.238281 633.152344 L 408.558594 633.152344 L 400.269531 652.886719 C 400.175781 653.09375 400.09375 653.433594 400.09375 653.890625 L 400.09375 665.582031 L 395.046875 665.582031 " fill-opacity="1" fill-rule="nonzero"/><path fill="#ffffff" d="M 420.058594 665.582031 L 420.058594 633.152344 L 425.898438 633.152344 C 433.375 652.621094 434.652344 655.914062 435.050781 657.441406 L 435.097656 657.441406 C 434.839844 653.386719 434.8125 648.578125 434.8125 643.28125 L 434.8125 633.152344 L 439.367188 633.152344 L 439.367188 665.582031 L 433.773438 665.582031 C 426.03125 644.945312 424.832031 641.664062 424.425781 640.246094 L 424.378906 640.246094 C 424.621094 644.261719 424.632812 649.21875 424.632812 655.039062 L 424.632812 665.582031 L 420.058594 665.582031 " fill-opacity="1" fill-rule="nonzero"/><path fill="#ffffff" d="M 449.222656 649.023438 C 449.222656 657.246094 450.628906 661.851562 454.238281 661.851562 C 458.015625 661.851562 459.277344 657.511719 459.277344 649.050781 C 459.277344 640.863281 457.925781 636.953125 454.226562 636.953125 C 450.589844 636.953125 449.222656 641.246094 449.222656 649.023438 Z M 464.453125 649.109375 C 464.453125 660.695312 461.429688 666.113281 454.109375 666.113281 C 447.230469 666.113281 444.046875 660.8125 444.046875 649.082031 C 444.046875 637.601562 447.765625 632.65625 454.339844 632.65625 C 461.289062 632.65625 464.453125 637.9375 464.453125 649.109375 " fill-opacity="1" fill-rule="nonzero"/><path fill="#ffffff" d="M 478.023438 665.582031 L 472.976562 665.582031 L 466.71875 633.152344 L 472.097656 633.152344 C 473.609375 642.136719 475.347656 653.054688 475.796875 658.5625 L 475.847656 658.5625 C 476.6875 652.898438 479.359375 640.433594 480.730469 633.152344 L 485.296875 633.152344 C 486.605469 639.882812 489.296875 652.796875 490.019531 658.316406 L 490.117188 658.316406 C 490.820312 651.894531 493.140625 639.742188 494.140625 633.152344 L 499.167969 633.152344 L 492.460938 665.582031 L 487.386719 665.582031 C 486.074219 658.605469 483.636719 647.113281 482.839844 641.339844 L 482.757812 641.339844 C 481.902344 647.316406 479.375 658.984375 478.023438 665.582031 " fill-opacity="1" fill-rule="nonzero"/><path fill="#ffffff" d="M 292.117188 640.105469 L 288.144531 654.136719 L 268.0625 654.136719 L 264.191406 640.105469 Z M 295.335938 637.667969 C 295.050781 637.289062 294.597656 637.0625 294.125 637.0625 L 263.355469 637.0625 L 263.253906 636.699219 C 262.109375 632.550781 258.300781 629.652344 253.996094 629.652344 L 252.566406 629.652344 C 251.726562 629.652344 251.046875 630.332031 251.046875 631.167969 C 251.046875 632.007812 251.726562 632.6875 252.566406 632.6875 L 253.996094 632.6875 C 256.941406 632.6875 259.542969 634.671875 260.324219 637.507812 L 265.847656 657.535156 C 266.300781 659.183594 267.203125 660.695312 268.433594 661.882812 C 267.101562 662.476562 266.195312 663.8125 266.195312 665.34375 C 266.195312 667.433594 267.894531 669.136719 269.984375 669.136719 C 272.078125 669.136719 273.777344 667.433594 273.777344 665.34375 C 273.777344 665.050781 273.742188 664.761719 273.675781 664.480469 C 274.152344 664.550781 274.632812 664.589844 275.105469 664.589844 L 282.992188 664.589844 C 282.941406 664.835938 282.917969 665.089844 282.917969 665.34375 C 282.917969 667.433594 284.617188 669.136719 286.707031 669.136719 C 288.800781 669.136719 290.5 667.433594 290.5 665.34375 C 290.5 663.253906 288.800781 661.550781 286.707031 661.550781 L 275.105469 661.550781 C 272.316406 661.550781 269.835938 659.773438 268.917969 657.175781 L 289.296875 657.175781 C 289.972656 657.175781 290.574219 656.722656 290.757812 656.070312 L 295.585938 638.996094 C 295.714844 638.539062 295.621094 638.042969 295.335938 637.667969 " fill-opacity="1" fill-rule="nonzero"/></svg>