<svg xmlns="http://www.w3.org/2000/svg" xmlns:xlink="http://www.w3.org/1999/xlink" width="1000" zoomAndPan="magnify" viewBox="0 0 750 749.999995" height="1000" preserveAspectRatio="xMidYMid meet" version="1.0"><defs><g/><clipPath id="67fc0674e5"><path d="M 165.414062 75 L 544 75 L 544 600.75 L 165.414062 600.75 Z M 165.414062 75 " clip-rule="nonzero"/></clipPath><clipPath id="d031826327"><path d="M 209 378 L 584.664062 378 L 584.664062 566 L 209 566 Z M 209 378 " clip-rule="nonzero"/></clipPath></defs><rect x="-75" width="900" fill="#ffffff" y="-74.999999" height="899.999994" fill-opacity="1"/><rect x="-75" width="900" fill="#d9d9d9" y="-74.999999" height="899.999994" fill-opacity="1"/><path fill="#000000" d="M 210.757812 300.910156 L 315.488281 300.910156 C 316.308594 298.445312 316.71875 295.570312 317.128906 292.695312 L 210.757812 292.695312 C 208.292969 292.695312 206.652344 294.335938 206.652344 296.800781 C 206.652344 299.265625 208.292969 300.910156 210.757812 300.910156 Z M 210.757812 300.910156 " fill-opacity="1" fill-rule="nonzero"/><path fill="#000000" d="M 287.148438 333.769531 L 210.757812 333.769531 C 208.292969 333.769531 206.652344 335.410156 206.652344 337.875 C 206.652344 340.339844 208.292969 341.984375 210.757812 341.984375 L 280.988281 341.984375 C 283.042969 339.105469 285.097656 336.230469 287.148438 333.769531 Z M 287.148438 333.769531 " fill-opacity="1" fill-rule="nonzero"/><path fill="#000000" d="M 498.25 333.769531 L 434.59375 333.769531 C 436.644531 336.230469 439.109375 339.105469 441.164062 341.984375 L 498.25 341.984375 C 500.714844 341.984375 502.359375 340.339844 502.359375 337.875 C 502.359375 335.410156 500.714844 333.769531 498.25 333.769531 Z M 498.25 333.769531 " fill-opacity="1" fill-rule="nonzero"/><path fill="#000000" d="M 498.25 251.621094 L 408.308594 251.621094 C 407.484375 252.441406 406.253906 253.261719 405.019531 254.082031 C 403.378906 255.726562 401.734375 257.78125 400.503906 259.835938 L 498.25 259.835938 C 500.714844 259.835938 502.359375 258.191406 502.359375 255.726562 C 502.359375 253.261719 500.714844 251.621094 498.25 251.621094 Z M 498.25 251.621094 " fill-opacity="1" fill-rule="nonzero"/><path fill="#000000" d="M 210.757812 259.835938 L 308.917969 259.835938 C 307.273438 257.78125 305.632812 255.726562 303.988281 254.082031 C 302.757812 253.671875 301.523438 252.851562 300.292969 251.621094 L 210.757812 251.621094 C 208.292969 251.621094 206.652344 253.261719 206.652344 255.726562 C 206.652344 258.191406 208.292969 259.835938 210.757812 259.835938 Z M 210.757812 259.835938 " fill-opacity="1" fill-rule="nonzero"/><path fill="#000000" d="M 206.652344 378.949219 C 206.652344 381.414062 208.292969 383.058594 210.757812 383.058594 L 262.507812 383.058594 C 263.328125 380.179688 264.148438 377.304688 264.972656 374.84375 L 210.757812 374.84375 C 208.292969 374.84375 206.652344 376.484375 206.652344 378.949219 Z M 206.652344 378.949219 " fill-opacity="1" fill-rule="nonzero"/><path fill="#000000" d="M 498.25 374.84375 L 460.054688 374.84375 C 460.875 376.484375 461.289062 378.128906 462.109375 379.769531 C 462.519531 380.59375 462.929688 381.824219 463.339844 383.058594 L 498.25 383.058594 C 500.714844 383.058594 502.359375 381.414062 502.359375 378.949219 C 502.359375 376.484375 500.714844 374.84375 498.25 374.84375 Z M 498.25 374.84375 " fill-opacity="1" fill-rule="nonzero"/><path fill="#000000" d="M 364.773438 438.097656 C 365.183594 438.097656 366.003906 438.097656 366.414062 438.097656 C 366.824219 438.097656 367.648438 438.097656 368.058594 438.097656 C 368.46875 438.097656 369.289062 438.097656 369.699219 437.683594 L 369.699219 426.183594 C 375.449219 424.953125 379.96875 422.898438 383.253906 419.203125 C 386.539062 415.503906 388.183594 410.988281 388.183594 405.648438 C 388.183594 402.773438 387.773438 400.308594 386.949219 398.664062 C 386.128906 397.023438 385.308594 394.96875 383.664062 393.734375 C 382.023438 392.503906 380.789062 390.859375 378.734375 390.039062 C 376.683594 389.21875 374.628906 387.984375 372.164062 387.164062 L 368.46875 385.519531 C 366.414062 384.699219 364.773438 383.878906 363.128906 383.058594 C 361.488281 382.234375 360.253906 381.414062 359.023438 380.59375 C 357.789062 379.769531 356.96875 378.539062 356.558594 377.71875 C 356.148438 376.894531 355.738281 375.253906 355.738281 373.609375 C 355.738281 370.324219 356.96875 367.859375 359.023438 366.214844 C 361.074219 364.574219 364.363281 363.75 368.46875 363.75 C 371.34375 363.75 374.21875 364.164062 376.273438 364.574219 C 378.734375 364.984375 380.789062 365.804688 382.433594 366.214844 C 383.664062 363.339844 384.074219 360.875 384.484375 358 C 382.433594 357.179688 380.378906 356.769531 377.503906 356.359375 C 375.039062 355.949219 372.164062 355.535156 369.289062 355.535156 L 369.289062 346.5 C 368.878906 346.089844 367.648438 346.089844 366.414062 346.089844 C 365.183594 346.089844 363.949219 346.089844 363.128906 346.5 L 363.128906 355.949219 C 357.378906 356.769531 352.863281 358.824219 349.988281 362.109375 C 347.113281 365.394531 345.46875 369.503906 345.46875 374.429688 C 345.46875 376.894531 345.878906 379.359375 346.289062 381.003906 C 347.113281 382.644531 347.933594 384.289062 349.164062 385.933594 C 350.398438 387.574219 351.628906 388.394531 353.273438 389.21875 C 354.914062 390.039062 356.558594 391.273438 358.613281 391.683594 L 363.128906 393.734375 C 365.59375 394.558594 367.238281 395.789062 369.289062 396.199219 C 370.933594 397.023438 372.574219 397.84375 373.398438 398.664062 C 374.628906 399.488281 375.449219 400.71875 375.859375 401.949219 C 376.273438 403.183594 376.683594 404.824219 376.683594 406.46875 C 376.683594 410.164062 375.449219 413.039062 372.574219 415.09375 C 369.699219 417.148438 366.003906 418.378906 360.664062 418.378906 C 357.378906 418.378906 354.503906 417.96875 352.039062 417.558594 C 349.578125 417.148438 347.523438 416.328125 345.058594 415.503906 C 344.648438 416.738281 344.238281 418.378906 343.828125 419.613281 C 343.414062 421.253906 343.003906 422.488281 343.003906 424.132812 C 344.238281 424.542969 345.878906 424.953125 347.113281 425.363281 C 348.34375 425.773438 349.578125 426.183594 351.21875 426.183594 C 352.453125 426.59375 354.09375 426.59375 355.738281 426.59375 C 357.378906 426.59375 359.023438 426.59375 361.074219 426.59375 C 361.074219 426.59375 361.488281 426.59375 361.488281 426.59375 C 361.488281 426.59375 361.898438 426.59375 362.308594 426.59375 L 362.308594 437.273438 C 363.539062 438.097656 364.363281 438.097656 364.773438 438.097656 Z M 364.773438 438.097656 " fill-opacity="1" fill-rule="nonzero"/><g clip-path="url(#67fc0674e5)"><path fill="#000000" d="M 535.214844 580.214844 C 535.214844 587.195312 529.875 592.535156 522.894531 592.535156 L 186.117188 592.535156 C 179.132812 592.535156 173.796875 587.195312 173.796875 580.214844 L 173.796875 95.539062 C 173.796875 88.554688 179.132812 83.214844 186.117188 83.214844 L 522.894531 83.214844 C 529.875 83.214844 535.214844 88.554688 535.214844 95.539062 L 535.214844 373.609375 C 537.679688 372.378906 540.554688 371.554688 543.429688 371.144531 L 543.429688 95.539062 C 543.429688 84.035156 534.394531 75 522.894531 75 L 186.117188 75 C 174.617188 75 165.582031 84.035156 165.582031 95.539062 L 165.582031 580.214844 C 165.582031 591.714844 174.617188 600.75 186.117188 600.75 L 522.894531 600.75 C 534.394531 600.75 543.429688 591.714844 543.429688 580.214844 L 543.429688 551.050781 C 540.554688 550.640625 537.679688 549.816406 535.214844 548.585938 Z M 535.214844 580.214844 " fill-opacity="1" fill-rule="nonzero"/></g><path fill="#000000" d="M 390.234375 318.160156 C 390.234375 318.160156 390.648438 318.570312 391.058594 318.570312 C 407.894531 329.660156 431.304688 345.269531 446.914062 385.933594 C 448.964844 391.273438 450.199219 397.023438 450.609375 403.183594 L 458.824219 400.71875 C 458.003906 394.96875 456.769531 388.808594 454.714844 383.46875 C 439.519531 344.035156 418.164062 327.195312 395.984375 312.410156 C 395.984375 312.410156 395.984375 312.410156 395.574219 312 C 400.914062 307.480469 407.074219 304.605469 413.644531 303.785156 C 421.449219 302.960938 428.429688 305.425781 433.769531 310.355469 C 435.414062 312 437.878906 311.585938 439.519531 309.945312 C 441.164062 308.300781 440.753906 305.835938 439.109375 304.195312 C 432.128906 297.621094 422.679688 294.746094 412.824219 295.570312 C 405.433594 296.390625 398.039062 299.265625 391.878906 304.195312 C 394.34375 291.460938 407.074219 281.601562 422.269531 281.601562 C 424.734375 281.601562 426.378906 279.960938 426.378906 277.496094 C 426.378906 275.03125 424.734375 273.386719 422.269531 273.386719 C 405.84375 273.386719 391.46875 282.835938 385.71875 295.980469 C 384.484375 291.460938 383.664062 286.941406 383.664062 282.015625 C 384.074219 269.691406 389.414062 257.371094 399.269531 247.101562 C 400.09375 247.101562 400.914062 246.691406 401.324219 245.867188 C 402.96875 244.226562 402.96875 241.761719 401.324219 240.117188 C 398.039062 236.832031 393.109375 236.832031 389.003906 237.242188 C 386.949219 237.242188 384.074219 237.242188 383.253906 236.832031 C 382.023438 236.011719 380.789062 233.546875 379.558594 231.902344 C 377.503906 228.207031 375.449219 224.097656 370.933594 222.867188 C 366.414062 221.636719 362.308594 224.097656 358.613281 226.5625 C 356.558594 227.796875 354.503906 229.027344 353.273438 229.027344 C 352.039062 229.027344 349.578125 227.796875 347.933594 226.5625 C 344.238281 224.511719 340.128906 222.046875 335.613281 222.867188 C 331.09375 224.097656 329.042969 228.207031 326.988281 231.902344 C 325.753906 233.957031 324.523438 236.421875 323.292969 236.832031 C 322.46875 237.242188 319.59375 237.242188 317.542969 237.242188 C 313.433594 237.242188 308.507812 236.832031 305.21875 240.117188 C 303.578125 241.761719 303.578125 244.226562 305.21875 245.867188 C 305.632812 246.28125 306.453125 246.691406 307.273438 247.101562 C 307.273438 247.101562 307.273438 247.511719 307.683594 247.511719 C 326.988281 263.121094 329.453125 298.03125 317.128906 313.640625 L 315.078125 315.285156 C 301.523438 327.605469 280.578125 346.5 269.488281 385.109375 C 267.847656 390.449219 267.023438 396.199219 267.023438 401.539062 L 275.238281 408.523438 C 274.828125 401.128906 275.648438 394.148438 277.292969 387.164062 C 288.792969 351.019531 307.683594 334.179688 321.648438 321.445312 L 324.113281 319.390625 C 324.113281 319.390625 324.523438 318.980469 324.523438 318.980469 C 325.753906 317.339844 326.988281 315.695312 327.808594 313.640625 C 335.613281 321.855469 345.46875 326.375 356.148438 327.195312 C 356.96875 327.195312 358.199219 327.195312 359.023438 327.195312 C 369.699219 327.195312 379.96875 323.089844 388.59375 316.105469 C 389.414062 316.925781 389.824219 317.339844 390.234375 318.160156 Z M 356.558594 318.980469 C 346.703125 318.160156 337.664062 313.230469 331.09375 305.015625 C 336.84375 286.121094 333.148438 260.65625 318.363281 245.046875 C 322.058594 245.046875 325.34375 245.046875 328.628906 243.40625 C 331.914062 241.761719 333.558594 238.476562 335.203125 235.191406 C 336.023438 233.546875 337.664062 230.261719 338.898438 230.261719 C 340.128906 229.851562 342.59375 231.902344 344.648438 232.726562 C 347.523438 234.777344 350.808594 236.421875 354.503906 236.421875 C 358.199219 236.421875 361.074219 234.367188 364.363281 232.726562 C 366.414062 231.492188 368.878906 229.851562 370.113281 230.261719 C 370.933594 230.671875 372.574219 233.546875 373.808594 235.191406 C 375.449219 238.476562 377.503906 241.761719 380.378906 243.40625 C 383.253906 245.046875 386.949219 245.046875 390.648438 245.046875 C 390.648438 245.046875 391.058594 245.046875 391.058594 245.046875 C 382.023438 255.726562 377.09375 268.460938 376.683594 281.191406 C 376.273438 291.050781 379.148438 300.910156 384.484375 309.125 C 375.859375 316.515625 366.414062 319.800781 356.558594 318.980469 Z M 356.558594 318.980469 " fill-opacity="1" fill-rule="nonzero"/><g clip-path="url(#d031826327)"><path fill="#000000" d="M 563.964844 378.949219 L 547.535156 378.949219 C 536.035156 378.949219 527 387.984375 527 399.488281 L 527 408.933594 L 510.984375 400.308594 C 510.570312 400.308594 510.570312 399.898438 510.160156 399.898438 C 502.359375 397.84375 497.839844 396.609375 492.910156 397.433594 C 492.5 397.433594 492.5 397.433594 492.089844 397.433594 L 370.933594 438.097656 C 355.738281 441.382812 339.71875 454.527344 339.71875 470.957031 C 339.71875 479.992188 343.828125 488.617188 350.398438 494.777344 C 356.148438 499.707031 363.539062 502.582031 371.34375 502.582031 C 372.574219 502.582031 374.21875 502.582031 375.449219 502.171875 C 375.859375 502.171875 375.859375 502.171875 376.273438 502.171875 L 451.839844 479.171875 C 453.894531 478.347656 455.128906 476.296875 454.714844 474.242188 C 453.894531 472.1875 451.839844 470.957031 449.789062 471.367188 L 373.808594 493.957031 C 367.238281 494.777344 360.664062 492.726562 355.738281 488.207031 C 350.808594 483.6875 347.933594 477.527344 347.933594 470.542969 C 347.933594 459.042969 360.664062 448.363281 372.988281 445.898438 C 372.988281 445.898438 373.398438 445.898438 373.398438 445.898438 L 494.964844 406.058594 C 498.25 405.648438 501.535156 406.46875 508.109375 408.113281 L 527.410156 418.378906 L 527.410156 509.566406 C 520.839844 508.332031 514.269531 510.386719 508.519531 512.441406 L 379.148438 557.621094 C 375.449219 558.855469 370.933594 557.621094 368.058594 555.15625 L 225.953125 442.203125 C 216.917969 434.808594 215.277344 421.667969 222.257812 413.039062 C 225.542969 408.523438 230.882812 406.058594 236.222656 405.238281 C 241.5625 404.824219 247.3125 406.46875 251.417969 409.753906 L 331.914062 476.296875 C 331.503906 474.652344 331.503906 472.597656 331.503906 470.957031 C 331.503906 469.3125 331.503906 467.667969 331.914062 465.617188 L 256.347656 403.183594 C 250.1875 398.253906 242.792969 395.789062 234.988281 396.609375 C 227.1875 397.433594 220.203125 401.128906 215.277344 407.289062 C 205.828125 419.613281 207.882812 437.683594 220.203125 447.953125 L 361.898438 560.90625 C 365.59375 563.785156 370.113281 565.425781 375.039062 565.425781 C 377.09375 565.425781 378.734375 565.015625 380.789062 564.605469 L 508.519531 519.832031 L 510.160156 519.421875 C 516.320312 517.371094 522.070312 515.726562 526.589844 517.371094 L 526.589844 522.296875 C 526.589844 533.800781 535.625 542.835938 547.125 542.835938 L 563.554688 542.835938 C 566.839844 542.835938 569.714844 542.015625 572.589844 540.78125 C 573 540.78125 573.820312 540.371094 574.230469 539.960938 C 580.390625 536.261719 584.089844 529.691406 584.089844 522.296875 L 584.089844 399.488281 C 584.5 387.984375 575.464844 378.949219 563.964844 378.949219 Z M 576.285156 522.710938 C 576.285156 529.691406 570.945312 535.03125 563.964844 535.03125 L 547.535156 535.03125 C 540.554688 535.03125 535.214844 529.691406 535.214844 522.710938 L 535.214844 399.488281 C 535.214844 392.503906 540.554688 387.164062 547.535156 387.164062 L 563.964844 387.164062 C 570.945312 387.164062 576.285156 392.503906 576.285156 399.488281 Z M 576.285156 522.710938 " fill-opacity="1" fill-rule="nonzero"/></g><path fill="#000000" d="M 555.75 502.171875 C 548.765625 502.171875 543.429688 507.511719 543.429688 514.496094 C 543.429688 521.476562 548.765625 526.816406 555.75 526.816406 C 562.730469 526.816406 568.070312 521.476562 568.070312 514.496094 C 568.070312 507.511719 562.730469 502.171875 555.75 502.171875 Z M 555.75 518.601562 C 553.285156 518.601562 551.640625 516.957031 551.640625 514.496094 C 551.640625 512.03125 553.285156 510.386719 555.75 510.386719 C 558.214844 510.386719 559.855469 512.03125 559.855469 514.496094 C 559.855469 516.957031 558.214844 518.601562 555.75 518.601562 Z M 555.75 518.601562 " fill-opacity="1" fill-rule="nonzero"/><path fill="#000000" d="M 498.25 177.6875 L 210.757812 177.6875 C 208.292969 177.6875 206.652344 179.328125 206.652344 181.792969 C 206.652344 184.257812 208.292969 185.902344 210.757812 185.902344 L 498.25 185.902344 C 500.714844 185.902344 502.359375 184.257812 502.359375 181.792969 C 502.359375 179.328125 500.714844 177.6875 498.25 177.6875 Z M 498.25 177.6875 " fill-opacity="1" fill-rule="nonzero"/><path fill="#000000" d="M 266.613281 102.519531 C 265.792969 102.519531 265.382812 102.519531 264.5625 102.519531 C 263.738281 102.519531 262.917969 102.519531 262.507812 102.519531 C 261.6875 102.519531 261.273438 102.519531 260.453125 102.929688 L 260.453125 162.078125 L 292.078125 162.078125 C 292.078125 160.84375 292.488281 159.613281 292.488281 158.378906 C 292.488281 157.96875 292.488281 157.148438 292.488281 156.738281 C 292.488281 156.328125 292.488281 155.503906 292.488281 154.683594 L 269.488281 154.683594 L 269.488281 102.519531 C 268.257812 102.519531 267.4375 102.519531 266.613281 102.519531 Z M 266.613281 102.519531 " fill-opacity="1" fill-rule="nonzero"/><path fill="#000000" d="M 310.148438 160.433594 C 313.433594 162.078125 317.128906 162.488281 321.238281 162.488281 C 325.34375 162.488281 329.042969 161.667969 332.328125 160.433594 C 335.613281 158.792969 338.078125 156.738281 340.128906 154.273438 C 342.183594 151.398438 343.828125 148.523438 344.648438 144.414062 C 345.46875 140.71875 346.289062 136.613281 346.289062 132.09375 C 346.289062 127.574219 345.878906 123.46875 344.648438 119.769531 C 343.828125 116.074219 342.183594 113.199219 340.128906 110.324219 C 338.078125 107.449219 335.613281 105.394531 332.328125 104.164062 C 329.042969 102.519531 325.34375 101.699219 321.238281 101.699219 C 317.128906 101.699219 313.433594 102.519531 310.148438 104.164062 C 306.863281 105.804688 304.398438 107.859375 302.34375 110.324219 C 300.292969 112.789062 298.648438 116.074219 297.828125 119.769531 C 297.007812 123.46875 296.183594 127.574219 296.183594 132.09375 C 296.183594 136.613281 296.59375 140.71875 297.828125 144.414062 C 298.648438 148.113281 300.292969 151.398438 302.34375 154.273438 C 304.808594 156.738281 307.273438 158.792969 310.148438 160.433594 Z M 306.453125 122.644531 C 307.273438 119.769531 308.09375 117.304688 309.328125 115.253906 C 310.558594 113.199219 312.203125 111.554688 314.253906 110.734375 C 316.308594 109.503906 318.773438 109.089844 321.238281 109.089844 C 323.703125 109.089844 326.167969 109.503906 328.21875 110.734375 C 330.273438 111.96875 331.917969 113.199219 333.148438 115.253906 C 334.378906 117.304688 335.613281 119.769531 336.023438 122.644531 C 336.433594 125.519531 336.84375 128.808594 336.84375 132.503906 C 336.84375 136.199219 336.433594 139.488281 336.023438 142.363281 C 335.203125 145.238281 334.378906 147.703125 333.148438 149.753906 C 331.917969 151.808594 330.273438 153.453125 328.21875 154.273438 C 326.167969 155.503906 323.703125 155.917969 321.238281 155.917969 C 318.773438 155.917969 316.308594 155.503906 314.253906 154.273438 C 312.203125 153.042969 310.558594 151.808594 309.328125 149.753906 C 308.09375 147.703125 306.863281 145.238281 306.453125 142.363281 C 305.632812 139.488281 305.632812 136.199219 305.632812 132.503906 C 305.21875 128.808594 305.632812 125.519531 306.453125 122.644531 Z M 306.453125 122.644531 " fill-opacity="1" fill-rule="nonzero"/><path fill="#000000" d="M 356.96875 162.078125 C 357.789062 162.078125 358.199219 162.078125 359.023438 161.667969 L 363.128906 148.113281 L 385.71875 148.113281 L 389.824219 161.667969 C 390.648438 161.667969 391.058594 161.667969 391.878906 162.078125 C 392.699219 162.078125 393.523438 162.078125 393.933594 162.078125 C 394.753906 162.078125 395.574219 162.078125 396.394531 162.078125 C 397.21875 162.078125 398.039062 162.078125 398.449219 161.667969 L 379.558594 102.519531 C 378.734375 102.519531 377.914062 102.519531 377.09375 102.109375 C 376.273438 102.109375 375.449219 102.109375 374.628906 102.109375 C 373.808594 102.109375 372.988281 102.109375 372.164062 102.109375 C 371.34375 102.109375 370.523438 102.109375 369.699219 102.519531 L 350.398438 161.667969 C 350.808594 161.667969 351.628906 161.667969 352.453125 162.078125 C 353.273438 162.078125 354.09375 162.078125 354.914062 162.078125 C 355.738281 162.078125 356.148438 162.078125 356.96875 162.078125 Z M 374.21875 110.734375 L 383.253906 140.71875 L 365.183594 140.71875 Z M 374.21875 110.734375 " fill-opacity="1" fill-rule="nonzero"/><path fill="#000000" d="M 413.234375 162.078125 C 414.058594 162.078125 414.46875 162.078125 415.289062 161.667969 L 415.289062 117.71875 L 440.753906 161.667969 C 441.164062 161.667969 441.984375 161.667969 442.804688 162.078125 C 443.628906 162.078125 444.039062 162.078125 444.859375 162.078125 C 445.269531 162.078125 446.089844 162.078125 446.914062 162.078125 C 447.734375 162.078125 448.144531 162.078125 448.964844 161.667969 L 448.964844 102.519531 C 448.554688 102.519531 447.734375 102.519531 446.914062 102.109375 C 446.089844 102.109375 445.679688 102.109375 444.859375 102.109375 C 444.039062 102.109375 443.628906 102.109375 442.804688 102.109375 C 441.984375 102.109375 441.574219 102.109375 440.753906 102.519531 L 440.753906 146.878906 L 414.878906 102.519531 C 414.46875 102.519531 413.644531 102.519531 412.824219 102.109375 C 412.003906 102.109375 411.59375 102.109375 410.769531 102.109375 C 410.359375 102.109375 409.539062 102.109375 408.71875 102.109375 C 407.894531 102.109375 407.484375 102.109375 406.664062 102.519531 L 406.664062 161.667969 C 407.074219 161.667969 407.894531 161.667969 408.71875 162.078125 C 409.539062 162.078125 409.949219 162.078125 410.769531 162.078125 C 411.59375 162.078125 412.414062 162.078125 413.234375 162.078125 Z M 413.234375 162.078125 " fill-opacity="1" fill-rule="nonzero"/><path fill="#000000" d="M 498.25 292.695312 L 438.289062 292.695312 C 440.753906 294.335938 443.214844 295.980469 445.269531 297.621094 C 446.089844 298.445312 446.914062 299.675781 447.734375 300.910156 L 498.25 300.910156 C 500.714844 300.910156 502.359375 299.265625 502.359375 296.800781 C 502.359375 294.335938 500.714844 292.695312 498.25 292.695312 Z M 498.25 292.695312 " fill-opacity="1" fill-rule="nonzero"/><g fill="#000000" fill-opacity="1"><g transform="translate(127.828121, 693.374986)"><g><path d="M 4.453125 0 L 4.453125 -34.265625 L 19.078125 -34.265625 C 21.191406 -34.265625 22.976562 -33.929688 24.4375 -33.265625 C 25.894531 -32.609375 27 -31.664062 27.75 -30.4375 C 28.5 -29.207031 28.875 -27.757812 28.875 -26.09375 C 28.875 -24.570312 28.503906 -23.234375 27.765625 -22.078125 C 27.035156 -20.921875 25.984375 -19.992188 24.609375 -19.296875 L 24.609375 -18.796875 C 26.765625 -18.234375 28.425781 -17.207031 29.59375 -15.71875 C 30.769531 -14.238281 31.359375 -12.421875 31.359375 -10.265625 C 31.359375 -6.984375 30.367188 -4.453125 28.390625 -2.671875 C 26.421875 -0.890625 23.488281 0 19.59375 0 Z M 17.671875 -20.609375 C 20.828125 -20.609375 22.40625 -22.03125 22.40625 -24.875 C 22.40625 -26.320312 22.015625 -27.398438 21.234375 -28.109375 C 20.453125 -28.828125 19.265625 -29.1875 17.671875 -29.1875 L 11.234375 -29.1875 L 11.234375 -20.609375 Z M 18.921875 -5.375 C 22.648438 -5.375 24.515625 -7.066406 24.515625 -10.453125 C 24.515625 -13.859375 22.648438 -15.5625 18.921875 -15.5625 L 11.234375 -15.5625 L 11.234375 -5.375 Z M 18.921875 -5.375 "/></g></g></g><g fill="#000000" fill-opacity="1"><g transform="translate(161.335562, 693.374986)"><g><path d="M 15.03125 0.5 C 12.5 0.5 10.273438 -0.0195312 8.359375 -1.0625 C 6.441406 -2.101562 4.957031 -3.628906 3.90625 -5.640625 C 2.851562 -7.648438 2.328125 -10.078125 2.328125 -12.921875 C 2.328125 -15.765625 2.851562 -18.191406 3.90625 -20.203125 C 4.957031 -22.222656 6.441406 -23.75 8.359375 -24.78125 C 10.273438 -25.820312 12.5 -26.34375 15.03125 -26.34375 C 17.5625 -26.34375 19.78125 -25.820312 21.6875 -24.78125 C 23.601562 -23.75 25.09375 -22.222656 26.15625 -20.203125 C 27.21875 -18.191406 27.75 -15.765625 27.75 -12.921875 C 27.75 -10.078125 27.21875 -7.648438 26.15625 -5.640625 C 25.09375 -3.628906 23.601562 -2.101562 21.6875 -1.0625 C 19.78125 -0.0195312 17.5625 0.5 15.03125 0.5 Z M 15.03125 -5.015625 C 19.039062 -5.015625 21.046875 -7.648438 21.046875 -12.921875 C 21.046875 -15.648438 20.53125 -17.648438 19.5 -18.921875 C 18.46875 -20.203125 16.976562 -20.84375 15.03125 -20.84375 C 11.007812 -20.84375 9 -18.203125 9 -12.921875 C 9 -7.648438 11.007812 -5.015625 15.03125 -5.015625 Z M 15.03125 -5.015625 "/></g></g></g><g fill="#000000" fill-opacity="1"><g transform="translate(191.3751, 693.374986)"><g><path d="M 3.734375 0 L 3.734375 -25.859375 L 10.03125 -25.859375 L 10.03125 -22.015625 L 10.53125 -21.921875 C 11.15625 -23.359375 11.972656 -24.410156 12.984375 -25.078125 C 14.003906 -25.753906 15.238281 -26.09375 16.6875 -26.09375 C 18.15625 -26.09375 19.273438 -25.84375 20.046875 -25.34375 L 18.9375 -19.734375 L 18.453125 -19.640625 C 18.023438 -19.816406 17.613281 -19.941406 17.21875 -20.015625 C 16.832031 -20.097656 16.359375 -20.140625 15.796875 -20.140625 C 13.984375 -20.140625 12.597656 -19.5 11.640625 -18.21875 C 10.691406 -16.945312 10.21875 -14.90625 10.21875 -12.09375 L 10.21875 0 Z M 3.734375 0 "/></g></g></g><g fill="#000000" fill-opacity="1"><g transform="translate(211.643592, 693.374986)"><g><path d="M 3.734375 0 L 3.734375 -25.859375 L 10.03125 -25.859375 L 10.03125 -22.015625 L 10.53125 -21.921875 C 11.15625 -23.359375 11.972656 -24.410156 12.984375 -25.078125 C 14.003906 -25.753906 15.238281 -26.09375 16.6875 -26.09375 C 18.15625 -26.09375 19.273438 -25.84375 20.046875 -25.34375 L 18.9375 -19.734375 L 18.453125 -19.640625 C 18.023438 -19.816406 17.613281 -19.941406 17.21875 -20.015625 C 16.832031 -20.097656 16.359375 -20.140625 15.796875 -20.140625 C 13.984375 -20.140625 12.597656 -19.5 11.640625 -18.21875 C 10.691406 -16.945312 10.21875 -14.90625 10.21875 -12.09375 L 10.21875 0 Z M 3.734375 0 "/></g></g></g><g fill="#000000" fill-opacity="1"><g transform="translate(231.912085, 693.374986)"><g><path d="M 15.03125 0.5 C 12.5 0.5 10.273438 -0.0195312 8.359375 -1.0625 C 6.441406 -2.101562 4.957031 -3.628906 3.90625 -5.640625 C 2.851562 -7.648438 2.328125 -10.078125 2.328125 -12.921875 C 2.328125 -15.765625 2.851562 -18.191406 3.90625 -20.203125 C 4.957031 -22.222656 6.441406 -23.75 8.359375 -24.78125 C 10.273438 -25.820312 12.5 -26.34375 15.03125 -26.34375 C 17.5625 -26.34375 19.78125 -25.820312 21.6875 -24.78125 C 23.601562 -23.75 25.09375 -22.222656 26.15625 -20.203125 C 27.21875 -18.191406 27.75 -15.765625 27.75 -12.921875 C 27.75 -10.078125 27.21875 -7.648438 26.15625 -5.640625 C 25.09375 -3.628906 23.601562 -2.101562 21.6875 -1.0625 C 19.78125 -0.0195312 17.5625 0.5 15.03125 0.5 Z M 15.03125 -5.015625 C 19.039062 -5.015625 21.046875 -7.648438 21.046875 -12.921875 C 21.046875 -15.648438 20.53125 -17.648438 19.5 -18.921875 C 18.46875 -20.203125 16.976562 -20.84375 15.03125 -20.84375 C 11.007812 -20.84375 9 -18.203125 9 -12.921875 C 9 -7.648438 11.007812 -5.015625 15.03125 -5.015625 Z M 15.03125 -5.015625 "/></g></g></g><g fill="#000000" fill-opacity="1"><g transform="translate(261.951623, 693.374986)"><g><path d="M 13.875 0 L 7.078125 0 L 0.9375 -25.859375 L 6.96875 -25.859375 L 10.765625 -8.375 L 11.25 -8.375 L 16.171875 -25.859375 L 21.796875 -25.859375 L 26.890625 -8.375 L 27.375 -8.375 L 31.03125 -25.859375 L 36.890625 -25.859375 L 30.828125 0 L 24 0 L 19.109375 -17.609375 L 18.609375 -17.609375 Z M 13.875 0 "/></g></g></g><g fill="#000000" fill-opacity="1"><g transform="translate(299.747084, 693.374986)"><g/></g></g><g fill="#000000" fill-opacity="1"><g transform="translate(311.064638, 693.374986)"><g><path d="M 10.078125 0.5 C 8.421875 0.5 6.984375 0.191406 5.765625 -0.421875 C 4.546875 -1.035156 3.609375 -1.929688 2.953125 -3.109375 C 2.296875 -4.285156 1.96875 -5.703125 1.96875 -7.359375 C 1.96875 -8.890625 2.296875 -10.175781 2.953125 -11.21875 C 3.609375 -12.257812 4.625 -13.109375 6 -13.765625 C 7.375 -14.429688 9.171875 -14.945312 11.390625 -15.3125 C 12.941406 -15.5625 14.117188 -15.832031 14.921875 -16.125 C 15.722656 -16.425781 16.265625 -16.765625 16.546875 -17.140625 C 16.828125 -17.515625 16.96875 -17.988281 16.96875 -18.5625 C 16.96875 -19.394531 16.675781 -20.03125 16.09375 -20.46875 C 15.519531 -20.90625 14.5625 -21.125 13.21875 -21.125 C 11.78125 -21.125 10.410156 -20.800781 9.109375 -20.15625 C 7.816406 -19.519531 6.695312 -18.675781 5.75 -17.625 L 5.28125 -17.625 L 2.5625 -21.734375 C 3.875 -23.179688 5.472656 -24.3125 7.359375 -25.125 C 9.253906 -25.9375 11.316406 -26.34375 13.546875 -26.34375 C 16.972656 -26.34375 19.453125 -25.613281 20.984375 -24.15625 C 22.515625 -22.707031 23.28125 -20.648438 23.28125 -17.984375 L 23.28125 -6.75 C 23.28125 -5.59375 23.785156 -5.015625 24.796875 -5.015625 C 25.191406 -5.015625 25.578125 -5.085938 25.953125 -5.234375 L 26.28125 -5.140625 L 26.75 -0.609375 C 26.382812 -0.378906 25.878906 -0.1875 25.234375 -0.03125 C 24.597656 0.113281 23.898438 0.1875 23.140625 0.1875 C 21.585938 0.1875 20.378906 -0.109375 19.515625 -0.703125 C 18.648438 -1.296875 18.03125 -2.226562 17.65625 -3.5 L 17.15625 -3.546875 C 15.894531 -0.847656 13.535156 0.5 10.078125 0.5 Z M 12.140625 -4.359375 C 13.640625 -4.359375 14.835938 -4.863281 15.734375 -5.875 C 16.640625 -6.882812 17.09375 -8.285156 17.09375 -10.078125 L 17.09375 -12.703125 L 16.640625 -12.796875 C 16.253906 -12.484375 15.742188 -12.222656 15.109375 -12.015625 C 14.472656 -11.804688 13.5625 -11.597656 12.375 -11.390625 C 10.96875 -11.160156 9.957031 -10.757812 9.34375 -10.1875 C 8.726562 -9.613281 8.421875 -8.804688 8.421875 -7.765625 C 8.421875 -6.648438 8.75 -5.800781 9.40625 -5.21875 C 10.0625 -4.644531 10.972656 -4.359375 12.140625 -4.359375 Z M 12.140625 -4.359375 "/></g></g></g><g fill="#000000" fill-opacity="1"><g transform="translate(338.315812, 693.374986)"><g><path d="M 3.734375 0 L 3.734375 -25.859375 L 9.96875 -25.859375 L 9.96875 -22.0625 L 10.453125 -21.9375 C 12.066406 -24.875 14.675781 -26.34375 18.28125 -26.34375 C 21.269531 -26.34375 23.460938 -25.53125 24.859375 -23.90625 C 26.253906 -22.28125 26.953125 -19.914062 26.953125 -16.8125 L 26.953125 0 L 20.46875 0 L 20.46875 -16.015625 C 20.46875 -17.734375 20.125 -18.96875 19.4375 -19.71875 C 18.75 -20.476562 17.644531 -20.859375 16.125 -20.859375 C 14.269531 -20.859375 12.820312 -20.253906 11.78125 -19.046875 C 10.738281 -17.847656 10.21875 -15.960938 10.21875 -13.390625 L 10.21875 0 Z M 3.734375 0 "/></g></g></g><g fill="#000000" fill-opacity="1"><g transform="translate(368.589667, 693.374986)"><g><path d="M 12.78125 0.5 C 10.726562 0.5 8.914062 0.00390625 7.34375 -0.984375 C 5.78125 -1.984375 4.550781 -3.488281 3.65625 -5.5 C 2.769531 -7.507812 2.328125 -9.984375 2.328125 -12.921875 C 2.328125 -15.867188 2.78125 -18.347656 3.6875 -20.359375 C 4.601562 -22.367188 5.867188 -23.867188 7.484375 -24.859375 C 9.109375 -25.847656 10.984375 -26.34375 13.109375 -26.34375 C 14.710938 -26.34375 16.101562 -26.066406 17.28125 -25.515625 C 18.46875 -24.960938 19.46875 -24.097656 20.28125 -22.921875 L 20.765625 -23.046875 L 20.765625 -36.234375 L 27.265625 -36.234375 L 27.265625 0 L 20.765625 0 L 20.765625 -3.359375 L 20.28125 -3.453125 C 19.5625 -2.234375 18.578125 -1.269531 17.328125 -0.5625 C 16.078125 0.144531 14.5625 0.5 12.78125 0.5 Z M 14.890625 -5.015625 C 16.710938 -5.015625 18.15625 -5.664062 19.21875 -6.96875 C 20.28125 -8.28125 20.8125 -10.265625 20.8125 -12.921875 C 20.8125 -15.578125 20.28125 -17.5625 19.21875 -18.875 C 18.15625 -20.1875 16.710938 -20.84375 14.890625 -20.84375 C 12.984375 -20.84375 11.523438 -20.203125 10.515625 -18.921875 C 9.503906 -17.648438 9 -15.648438 9 -12.921875 C 9 -10.203125 9.503906 -8.203125 10.515625 -6.921875 C 11.523438 -5.648438 12.984375 -5.015625 14.890625 -5.015625 Z M 14.890625 -5.015625 "/></g></g></g><g fill="#000000" fill-opacity="1"><g transform="translate(399.566465, 693.374986)"><g/></g></g><g fill="#000000" fill-opacity="1"><g transform="translate(410.88403, 693.374986)"><g><path d="M 11.234375 -34.265625 L 11.234375 -5.671875 L 26.625 -5.671875 L 26.625 0 L 4.453125 0 L 4.453125 -34.265625 Z M 11.234375 -34.265625 "/></g></g></g><g fill="#000000" fill-opacity="1"><g transform="translate(438.627254, 693.374986)"><g><path d="M 15.03125 0.5 C 12.5 0.5 10.273438 -0.0195312 8.359375 -1.0625 C 6.441406 -2.101562 4.957031 -3.628906 3.90625 -5.640625 C 2.851562 -7.648438 2.328125 -10.078125 2.328125 -12.921875 C 2.328125 -15.765625 2.851562 -18.191406 3.90625 -20.203125 C 4.957031 -22.222656 6.441406 -23.75 8.359375 -24.78125 C 10.273438 -25.820312 12.5 -26.34375 15.03125 -26.34375 C 17.5625 -26.34375 19.78125 -25.820312 21.6875 -24.78125 C 23.601562 -23.75 25.09375 -22.222656 26.15625 -20.203125 C 27.21875 -18.191406 27.75 -15.765625 27.75 -12.921875 C 27.75 -10.078125 27.21875 -7.648438 26.15625 -5.640625 C 25.09375 -3.628906 23.601562 -2.101562 21.6875 -1.0625 C 19.78125 -0.0195312 17.5625 0.5 15.03125 0.5 Z M 15.03125 -5.015625 C 19.039062 -5.015625 21.046875 -7.648438 21.046875 -12.921875 C 21.046875 -15.648438 20.53125 -17.648438 19.5 -18.921875 C 18.46875 -20.203125 16.976562 -20.84375 15.03125 -20.84375 C 11.007812 -20.84375 9 -18.203125 9 -12.921875 C 9 -7.648438 11.007812 -5.015625 15.03125 -5.015625 Z M 15.03125 -5.015625 "/></g></g></g><g fill="#000000" fill-opacity="1"><g transform="translate(468.666803, 693.374986)"><g><path d="M 10.078125 0.5 C 8.421875 0.5 6.984375 0.191406 5.765625 -0.421875 C 4.546875 -1.035156 3.609375 -1.929688 2.953125 -3.109375 C 2.296875 -4.285156 1.96875 -5.703125 1.96875 -7.359375 C 1.96875 -8.890625 2.296875 -10.175781 2.953125 -11.21875 C 3.609375 -12.257812 4.625 -13.109375 6 -13.765625 C 7.375 -14.429688 9.171875 -14.945312 11.390625 -15.3125 C 12.941406 -15.5625 14.117188 -15.832031 14.921875 -16.125 C 15.722656 -16.425781 16.265625 -16.765625 16.546875 -17.140625 C 16.828125 -17.515625 16.96875 -17.988281 16.96875 -18.5625 C 16.96875 -19.394531 16.675781 -20.03125 16.09375 -20.46875 C 15.519531 -20.90625 14.5625 -21.125 13.21875 -21.125 C 11.78125 -21.125 10.410156 -20.800781 9.109375 -20.15625 C 7.816406 -19.519531 6.695312 -18.675781 5.75 -17.625 L 5.28125 -17.625 L 2.5625 -21.734375 C 3.875 -23.179688 5.472656 -24.3125 7.359375 -25.125 C 9.253906 -25.9375 11.316406 -26.34375 13.546875 -26.34375 C 16.972656 -26.34375 19.453125 -25.613281 20.984375 -24.15625 C 22.515625 -22.707031 23.28125 -20.648438 23.28125 -17.984375 L 23.28125 -6.75 C 23.28125 -5.59375 23.785156 -5.015625 24.796875 -5.015625 C 25.191406 -5.015625 25.578125 -5.085938 25.953125 -5.234375 L 26.28125 -5.140625 L 26.75 -0.609375 C 26.382812 -0.378906 25.878906 -0.1875 25.234375 -0.03125 C 24.597656 0.113281 23.898438 0.1875 23.140625 0.1875 C 21.585938 0.1875 20.378906 -0.109375 19.515625 -0.703125 C 18.648438 -1.296875 18.03125 -2.226562 17.65625 -3.5 L 17.15625 -3.546875 C 15.894531 -0.847656 13.535156 0.5 10.078125 0.5 Z M 12.140625 -4.359375 C 13.640625 -4.359375 14.835938 -4.863281 15.734375 -5.875 C 16.640625 -6.882812 17.09375 -8.285156 17.09375 -10.078125 L 17.09375 -12.703125 L 16.640625 -12.796875 C 16.253906 -12.484375 15.742188 -12.222656 15.109375 -12.015625 C 14.472656 -11.804688 13.5625 -11.597656 12.375 -11.390625 C 10.96875 -11.160156 9.957031 -10.757812 9.34375 -10.1875 C 8.726562 -9.613281 8.421875 -8.804688 8.421875 -7.765625 C 8.421875 -6.648438 8.75 -5.800781 9.40625 -5.21875 C 10.0625 -4.644531 10.972656 -4.359375 12.140625 -4.359375 Z M 12.140625 -4.359375 "/></g></g></g><g fill="#000000" fill-opacity="1"><g transform="translate(495.917977, 693.374986)"><g><path d="M 3.734375 0 L 3.734375 -25.859375 L 9.96875 -25.859375 L 9.96875 -22.0625 L 10.453125 -21.9375 C 12.066406 -24.875 14.675781 -26.34375 18.28125 -26.34375 C 21.269531 -26.34375 23.460938 -25.53125 24.859375 -23.90625 C 26.253906 -22.28125 26.953125 -19.914062 26.953125 -16.8125 L 26.953125 0 L 20.46875 0 L 20.46875 -16.015625 C 20.46875 -17.734375 20.125 -18.96875 19.4375 -19.71875 C 18.75 -20.476562 17.644531 -20.859375 16.125 -20.859375 C 14.269531 -20.859375 12.820312 -20.253906 11.78125 -19.046875 C 10.738281 -17.847656 10.21875 -15.960938 10.21875 -13.390625 L 10.21875 0 Z M 3.734375 0 "/></g></g></g><g fill="#000000" fill-opacity="1"><g transform="translate(526.19181, 693.374986)"><g/></g></g><g fill="#000000" fill-opacity="1"><g transform="translate(537.509375, 693.374986)"><g><path d="M 11.234375 -34.265625 L 11.234375 -5.671875 L 26.625 -5.671875 L 26.625 0 L 4.453125 0 L 4.453125 -34.265625 Z M 11.234375 -34.265625 "/></g></g></g><g fill="#000000" fill-opacity="1"><g transform="translate(565.252599, 693.374986)"><g><path d="M 15.03125 0.5 C 12.5 0.5 10.273438 -0.0195312 8.359375 -1.0625 C 6.441406 -2.101562 4.957031 -3.628906 3.90625 -5.640625 C 2.851562 -7.648438 2.328125 -10.078125 2.328125 -12.921875 C 2.328125 -15.765625 2.851562 -18.191406 3.90625 -20.203125 C 4.957031 -22.222656 6.441406 -23.75 8.359375 -24.78125 C 10.273438 -25.820312 12.5 -26.34375 15.03125 -26.34375 C 17.5625 -26.34375 19.78125 -25.820312 21.6875 -24.78125 C 23.601562 -23.75 25.09375 -22.222656 26.15625 -20.203125 C 27.21875 -18.191406 27.75 -15.765625 27.75 -12.921875 C 27.75 -10.078125 27.21875 -7.648438 26.15625 -5.640625 C 25.09375 -3.628906 23.601562 -2.101562 21.6875 -1.0625 C 19.78125 -0.0195312 17.5625 0.5 15.03125 0.5 Z M 15.03125 -5.015625 C 19.039062 -5.015625 21.046875 -7.648438 21.046875 -12.921875 C 21.046875 -15.648438 20.53125 -17.648438 19.5 -18.921875 C 18.46875 -20.203125 16.976562 -20.84375 15.03125 -20.84375 C 11.007812 -20.84375 9 -18.203125 9 -12.921875 C 9 -7.648438 11.007812 -5.015625 15.03125 -5.015625 Z M 15.03125 -5.015625 "/></g></g></g><g fill="#000000" fill-opacity="1"><g transform="translate(595.292148, 693.374986)"><g><path d="M 13.40625 10.96875 C 9.144531 10.96875 6 10.34375 3.96875 9.09375 C 1.9375 7.84375 0.921875 6.101562 0.921875 3.875 C 0.921875 2.507812 1.351562 1.390625 2.21875 0.515625 C 3.082031 -0.347656 4.328125 -0.925781 5.953125 -1.21875 L 5.953125 -1.71875 C 5.078125 -2.25 4.445312 -2.835938 4.0625 -3.484375 C 3.6875 -4.128906 3.5 -4.882812 3.5 -5.75 C 3.5 -7.820312 4.847656 -9.21875 7.546875 -9.9375 L 7.546875 -10.4375 C 6.160156 -11.226562 5.113281 -12.210938 4.40625 -13.390625 C 3.707031 -14.578125 3.359375 -16.003906 3.359375 -17.671875 C 3.359375 -19.390625 3.75 -20.898438 4.53125 -22.203125 C 5.320312 -23.515625 6.476562 -24.53125 8 -25.25 C 9.53125 -25.976562 11.359375 -26.34375 13.484375 -26.34375 C 15.640625 -26.34375 17.359375 -25.96875 18.640625 -25.21875 C 19.429688 -26.375 19.890625 -27.710938 20.015625 -29.234375 L 20.515625 -29.53125 L 25.171875 -28.390625 C 25.035156 -27.148438 24.675781 -26.113281 24.09375 -25.28125 C 23.519531 -24.445312 22.625 -23.703125 21.40625 -23.046875 L 21.40625 -22.53125 C 22.851562 -21.25 23.578125 -19.457031 23.578125 -17.15625 C 23.578125 -15.5625 23.175781 -14.128906 22.375 -12.859375 C 21.582031 -11.597656 20.425781 -10.597656 18.90625 -9.859375 C 17.382812 -9.128906 15.578125 -8.765625 13.484375 -8.765625 L 12.5 -8.796875 C 11.875 -8.828125 11.4375 -8.84375 11.1875 -8.84375 C 10.59375 -8.84375 10.125 -8.679688 9.78125 -8.359375 C 9.445312 -8.035156 9.28125 -7.625 9.28125 -7.125 C 9.28125 -6.582031 9.5 -6.15625 9.9375 -5.84375 C 10.375 -5.539062 11.015625 -5.375 11.859375 -5.34375 L 17.65625 -5.140625 C 23.375 -4.960938 26.234375 -2.5 26.234375 2.25 C 26.234375 3.925781 25.804688 5.414062 24.953125 6.71875 C 24.097656 8.019531 22.71875 9.050781 20.8125 9.8125 C 18.90625 10.582031 16.4375 10.96875 13.40625 10.96875 Z M 13.484375 -13.3125 C 14.734375 -13.3125 15.707031 -13.675781 16.40625 -14.40625 C 17.113281 -15.144531 17.46875 -16.195312 17.46875 -17.5625 C 17.46875 -18.914062 17.113281 -19.957031 16.40625 -20.6875 C 15.707031 -21.414062 14.734375 -21.78125 13.484375 -21.78125 C 12.210938 -21.78125 11.234375 -21.414062 10.546875 -20.6875 C 9.859375 -19.957031 9.515625 -18.914062 9.515625 -17.5625 C 9.515625 -16.1875 9.859375 -15.132812 10.546875 -14.40625 C 11.234375 -13.675781 12.210938 -13.3125 13.484375 -13.3125 Z M 13.40625 6.265625 C 15.625 6.265625 17.238281 5.953125 18.25 5.328125 C 19.257812 4.703125 19.765625 3.890625 19.765625 2.890625 C 19.765625 2.078125 19.503906 1.476562 18.984375 1.09375 C 18.472656 0.707031 17.65625 0.5 16.53125 0.46875 L 11.421875 0.234375 C 11.242188 0.234375 11.082031 0.222656 10.9375 0.203125 C 10.789062 0.191406 10.644531 0.1875 10.5 0.1875 C 9.40625 0.1875 8.570312 0.421875 8 0.890625 C 7.4375 1.359375 7.15625 2.007812 7.15625 2.84375 C 7.15625 3.9375 7.675781 4.78125 8.71875 5.375 C 9.769531 5.96875 11.332031 6.265625 13.40625 6.265625 Z M 13.40625 6.265625 "/></g></g></g></svg>