<svg xmlns="http://www.w3.org/2000/svg" xmlns:xlink="http://www.w3.org/1999/xlink" width="1000" zoomAndPan="magnify" viewBox="0 0 750 749.999995" height="1000" preserveAspectRatio="xMidYMid meet" version="1.0"><defs><g/><clipPath id="8275a51d9c"><path d="M 75 93.988281 L 588 93.988281 L 588 445 L 75 445 Z M 75 93.988281 " clip-rule="nonzero"/></clipPath><clipPath id="60b308ded4"><path d="M 437 478 L 507 478 L 507 548.488281 L 437 548.488281 Z M 437 478 " clip-rule="nonzero"/></clipPath><clipPath id="d94399e08e"><path d="M 239 478 L 309 478 L 309 548.488281 L 239 548.488281 Z M 239 478 " clip-rule="nonzero"/></clipPath></defs><rect x="-75" width="900" fill="#ffffff" y="-74.999999" height="899.999994" fill-opacity="1"/><rect x="-75" width="900" fill="#edecea" y="-74.999999" height="899.999994" fill-opacity="1"/><path fill="#000000" d="M 362.847656 360.847656 C 363.246094 360.847656 363.644531 361.246094 364.046875 361.246094 C 365.648438 361.246094 367.25 360.046875 368.050781 358.445312 L 378.054688 330.4375 C 378.855469 328.4375 377.65625 326.039062 375.65625 325.238281 C 373.652344 324.4375 371.25 325.636719 370.453125 327.640625 L 360.445312 355.644531 C 359.644531 358.046875 360.84375 360.046875 362.847656 360.847656 Z M 362.847656 360.847656 " fill-opacity="1" fill-rule="nonzero"/><path fill="#000000" d="M 353.238281 300.433594 L 326.820312 312.835938 C 324.820312 313.636719 324.019531 316.4375 324.820312 318.4375 C 325.621094 320.035156 326.820312 320.835938 328.421875 320.835938 C 328.824219 320.835938 329.621094 320.835938 330.023438 320.4375 L 356.441406 308.035156 C 358.441406 307.234375 359.242188 304.433594 358.441406 302.433594 C 357.640625 300.433594 355.242188 299.632812 353.238281 300.433594 Z M 353.238281 300.433594 " fill-opacity="1" fill-rule="nonzero"/><path fill="#000000" d="M 362.445312 274.027344 C 363.246094 272.027344 362.046875 269.625 360.042969 268.824219 L 332.425781 258.824219 C 330.421875 258.023438 328.023438 259.222656 327.222656 261.222656 C 326.421875 263.222656 327.621094 265.625 329.621094 266.425781 L 357.242188 276.425781 C 357.640625 276.425781 358.042969 276.828125 358.84375 276.828125 C 360.445312 276.828125 361.644531 275.628906 362.445312 274.027344 Z M 362.445312 274.027344 " fill-opacity="1" fill-rule="nonzero"/><path fill="#000000" d="M 383.261719 257.222656 C 383.660156 257.222656 384.460938 257.222656 384.859375 256.824219 C 386.863281 256.023438 387.664062 253.222656 386.863281 251.222656 L 374.453125 224.417969 C 373.652344 222.414062 370.851562 221.617188 368.851562 222.414062 C 367.25 223.214844 366.449219 226.015625 367.25 228.015625 L 379.65625 254.824219 C 380.457031 256.023438 381.660156 257.222656 383.261719 257.222656 Z M 383.261719 257.222656 " fill-opacity="1" fill-rule="nonzero"/><path fill="#000000" d="M 414.882812 260.824219 C 416.484375 260.824219 418.085938 259.625 418.882812 258.023438 L 428.890625 230.015625 C 429.691406 228.015625 428.492188 225.617188 426.488281 224.816406 C 424.488281 224.015625 422.085938 225.214844 421.285156 227.214844 L 411.28125 255.222656 C 410.480469 257.222656 411.679688 259.625 413.679688 260.425781 C 413.679688 260.824219 414.082031 260.824219 414.882812 260.824219 Z M 414.882812 260.824219 " fill-opacity="1" fill-rule="nonzero"/><path fill="#000000" d="M 434.09375 286.03125 C 434.496094 286.03125 435.296875 286.03125 435.695312 285.628906 L 462.113281 273.226562 C 464.117188 272.425781 464.917969 269.625 464.117188 267.625 C 463.316406 265.625 460.511719 264.824219 458.511719 265.625 L 432.09375 278.027344 C 430.09375 278.828125 429.292969 281.628906 430.09375 283.628906 C 431.292969 284.828125 432.894531 286.03125 434.09375 286.03125 Z M 434.09375 286.03125 " fill-opacity="1" fill-rule="nonzero"/><g clip-path="url(#8275a51d9c)"><path fill="#000000" d="M 545.371094 172.40625 L 198.332031 172.40625 C 186.324219 115.992188 153.5 112.390625 150.699219 111.992188 L 125.480469 111.992188 C 121.480469 102.390625 112.273438 93.988281 101.066406 93.988281 C 86.65625 93.988281 75.046875 105.589844 75.046875 119.992188 C 75.046875 134.394531 86.65625 146.398438 101.066406 146.398438 C 112.273438 146.398438 121.480469 137.597656 125.480469 127.996094 L 149.097656 127.996094 C 149.898438 127.996094 171.914062 134.796875 180.320312 180.804688 C 191.128906 242.019531 219.148438 395.652344 219.148438 395.652344 C 219.148438 412.859375 229.554688 444.0625 267.980469 444.0625 L 416.082031 444.0625 L 410.078125 428.460938 L 267.578125 428.460938 C 251.167969 428.460938 243.964844 416.457031 240.761719 408.054688 C 266.78125 406.457031 338.027344 401.65625 400.871094 397.253906 L 395.269531 377.648438 C 331.222656 382.050781 260.375 386.851562 237.558594 388.453125 C 232.355469 362.445312 212.742188 252.023438 201.933594 192.007812 L 542.570312 192.007812 C 558.179688 192.007812 569.390625 204.8125 567.386719 220.414062 L 552.976562 338.042969 C 552.976562 338.441406 552.578125 340.839844 550.976562 344.042969 L 568.589844 352.84375 C 571.789062 346.042969 572.589844 341.242188 572.589844 340.441406 L 587.402344 219.613281 C 590.203125 193.609375 571.789062 172.40625 545.371094 172.40625 Z M 545.371094 172.40625 " fill-opacity="1" fill-rule="nonzero"/></g><path fill="#000000" d="M 506.144531 386.050781 L 539.769531 372.847656 C 542.96875 371.648438 544.972656 368.847656 544.972656 365.648438 C 544.972656 362.445312 543.371094 359.246094 540.570312 357.644531 L 398.871094 286.03125 C 396.070312 284.429688 392.464844 284.828125 389.664062 287.230469 C 387.261719 289.230469 386.0625 292.832031 387.261719 296.03125 L 435.296875 450.867188 C 436.097656 454.066406 439.296875 456.46875 442.5 456.867188 C 445.703125 457.265625 448.90625 455.265625 450.507812 452.464844 L 469.71875 415.65625 L 510.949219 470.46875 C 512.148438 472.070312 514.152344 473.269531 516.550781 473.671875 C 516.953125 473.671875 517.351562 473.671875 517.753906 473.671875 C 519.355469 473.671875 521.355469 473.269531 522.957031 472.070312 L 548.175781 452.464844 C 549.773438 451.265625 550.976562 449.265625 551.375 446.863281 C 551.777344 444.464844 550.976562 442.464844 549.773438 440.464844 Z M 518.953125 453.667969 L 474.921875 395.253906 C 473.324219 393.253906 470.921875 392.054688 468.519531 392.054688 C 468.117188 392.054688 468.117188 392.054688 467.71875 392.054688 C 464.917969 392.453125 462.515625 394.054688 460.914062 396.453125 L 444.902344 427.261719 L 408.476562 310.035156 L 516.152344 364.445312 L 489.734375 374.847656 C 487.332031 375.648438 485.332031 378.050781 484.929688 380.449219 C 484.128906 382.851562 484.929688 385.652344 486.53125 387.652344 L 531.363281 444.464844 Z M 518.953125 453.667969 " fill-opacity="1" fill-rule="nonzero"/><g clip-path="url(#60b308ded4)"><path fill="#000000" d="M 472.121094 478.871094 C 453.308594 478.871094 437.699219 494.476562 437.699219 513.679688 C 437.699219 532.882812 453.308594 548.488281 472.121094 548.488281 C 490.933594 548.488281 506.546875 532.882812 506.546875 513.679688 C 506.546875 494.476562 490.933594 478.871094 472.121094 478.871094 Z M 472.121094 531.683594 C 462.113281 531.683594 454.109375 523.683594 454.109375 513.679688 C 454.109375 503.675781 462.113281 495.675781 472.121094 495.675781 C 482.128906 495.675781 490.132812 503.675781 490.132812 513.679688 C 490.132812 523.28125 482.128906 531.683594 472.121094 531.683594 Z M 472.121094 531.683594 " fill-opacity="1" fill-rule="nonzero"/></g><g clip-path="url(#d94399e08e)"><path fill="#000000" d="M 273.984375 478.871094 C 255.171875 478.871094 239.5625 494.476562 239.5625 513.679688 C 239.5625 532.882812 255.171875 548.488281 273.984375 548.488281 C 292.796875 548.488281 308.410156 532.882812 308.410156 513.679688 C 308.410156 494.476562 292.796875 478.871094 273.984375 478.871094 Z M 273.984375 531.683594 C 263.976562 531.683594 255.972656 523.683594 255.972656 513.679688 C 255.972656 503.675781 263.976562 495.675781 273.984375 495.675781 C 283.992188 495.675781 291.996094 503.675781 291.996094 513.679688 C 291.996094 523.28125 283.992188 531.683594 273.984375 531.683594 Z M 273.984375 531.683594 " fill-opacity="1" fill-rule="nonzero"/></g><g fill="#000000" fill-opacity="1"><g transform="translate(128.244577, 615.47471)"><g><path d="M 9.359375 -12.546875 L 9.359375 -4.734375 L 22.984375 -4.734375 L 22.984375 0 L 3.71875 0 L 3.71875 -28.5625 L 22.671875 -28.5625 L 22.671875 -23.828125 L 9.359375 -23.828125 L 9.359375 -17.15625 L 21 -17.15625 L 21 -12.546875 Z M 9.359375 -12.546875 "/></g></g></g><g fill="#000000" fill-opacity="1"><g transform="translate(152.792965, 615.47471)"><g><path d="M 13.671875 -11.484375 L 1.703125 -11.484375 L 1.703125 -16.25 L 13.671875 -16.25 Z M 13.671875 -11.484375 "/></g></g></g><g fill="#000000" fill-opacity="1"><g transform="translate(168.201621, 615.47471)"><g><path d="M 12.5625 0.40625 C 10.476562 0.40625 8.632812 -0.0234375 7.03125 -0.890625 C 5.425781 -1.753906 4.175781 -3.023438 3.28125 -4.703125 C 2.382812 -6.390625 1.9375 -8.410156 1.9375 -10.765625 C 1.9375 -13.128906 2.382812 -15.148438 3.28125 -16.828125 C 4.175781 -18.515625 5.414062 -19.789062 7 -20.65625 C 8.59375 -21.519531 10.414062 -21.953125 12.46875 -21.953125 C 17.007812 -21.953125 19.914062 -20.304688 21.1875 -17.015625 L 17.484375 -14.359375 L 17.078125 -14.359375 C 16.628906 -15.367188 16.050781 -16.117188 15.34375 -16.609375 C 14.632812 -17.109375 13.675781 -17.359375 12.46875 -17.359375 C 10.90625 -17.359375 9.6875 -16.816406 8.8125 -15.734375 C 7.9375 -14.660156 7.5 -13.003906 7.5 -10.765625 C 7.5 -8.546875 7.941406 -6.894531 8.828125 -5.8125 C 9.710938 -4.726562 10.957031 -4.1875 12.5625 -4.1875 C 13.726562 -4.1875 14.71875 -4.5 15.53125 -5.125 C 16.351562 -5.757812 16.9375 -6.671875 17.28125 -7.859375 L 17.703125 -7.890625 L 21.546875 -5.78125 C 20.992188 -3.957031 19.976562 -2.46875 18.5 -1.3125 C 17.03125 -0.164062 15.050781 0.40625 12.5625 0.40625 Z M 12.5625 0.40625 "/></g></g></g><g fill="#000000" fill-opacity="1"><g transform="translate(190.406488, 615.47471)"><g><path d="M 12.515625 0.40625 C 10.410156 0.40625 8.5625 -0.0234375 6.96875 -0.890625 C 5.375 -1.753906 4.132812 -3.019531 3.25 -4.6875 C 2.375 -6.363281 1.9375 -8.390625 1.9375 -10.765625 C 1.9375 -13.128906 2.375 -15.148438 3.25 -16.828125 C 4.132812 -18.515625 5.375 -19.789062 6.96875 -20.65625 C 8.5625 -21.519531 10.410156 -21.953125 12.515625 -21.953125 C 14.628906 -21.953125 16.484375 -21.519531 18.078125 -20.65625 C 19.671875 -19.789062 20.910156 -18.515625 21.796875 -16.828125 C 22.679688 -15.148438 23.125 -13.128906 23.125 -10.765625 C 23.125 -8.390625 22.679688 -6.363281 21.796875 -4.6875 C 20.910156 -3.019531 19.671875 -1.753906 18.078125 -0.890625 C 16.484375 -0.0234375 14.628906 0.40625 12.515625 0.40625 Z M 12.515625 -4.1875 C 15.867188 -4.1875 17.546875 -6.378906 17.546875 -10.765625 C 17.546875 -13.046875 17.113281 -14.710938 16.25 -15.765625 C 15.394531 -16.828125 14.148438 -17.359375 12.515625 -17.359375 C 9.171875 -17.359375 7.5 -15.160156 7.5 -10.765625 C 7.5 -6.378906 9.171875 -4.1875 12.515625 -4.1875 Z M 12.515625 -4.1875 "/></g></g></g><g fill="#000000" fill-opacity="1"><g transform="translate(215.443104, 615.47471)"><g><path d="M 3.109375 0 L 3.109375 -21.546875 L 8.296875 -21.546875 L 8.296875 -18.65625 L 8.71875 -18.578125 C 9.414062 -19.734375 10.234375 -20.582031 11.171875 -21.125 C 12.117188 -21.675781 13.332031 -21.953125 14.8125 -21.953125 C 16.4375 -21.953125 17.742188 -21.628906 18.734375 -20.984375 C 19.722656 -20.335938 20.445312 -19.398438 20.90625 -18.171875 L 21.3125 -18.171875 C 21.976562 -19.453125 22.832031 -20.398438 23.875 -21.015625 C 24.925781 -21.640625 26.234375 -21.953125 27.796875 -21.953125 C 32.265625 -21.953125 34.5 -19.46875 34.5 -14.5 L 34.5 0 L 29.078125 0 L 29.078125 -13.8125 C 29.078125 -15.070312 28.828125 -15.984375 28.328125 -16.546875 C 27.835938 -17.109375 27.046875 -17.390625 25.953125 -17.390625 C 22.984375 -17.390625 21.5 -15.398438 21.5 -11.421875 L 21.5 0 L 16.09375 0 L 16.09375 -13.8125 C 16.09375 -15.070312 15.84375 -15.984375 15.34375 -16.546875 C 14.84375 -17.109375 14.046875 -17.390625 12.953125 -17.390625 C 11.554688 -17.390625 10.46875 -16.921875 9.6875 -15.984375 C 8.90625 -15.054688 8.515625 -13.578125 8.515625 -11.546875 L 8.515625 0 Z M 3.109375 0 "/></g></g></g><g fill="#000000" fill-opacity="1"><g transform="translate(252.705088, 615.47471)"><g><path d="M 3.109375 0 L 3.109375 -21.546875 L 8.296875 -21.546875 L 8.296875 -18.65625 L 8.71875 -18.578125 C 9.414062 -19.734375 10.234375 -20.582031 11.171875 -21.125 C 12.117188 -21.675781 13.332031 -21.953125 14.8125 -21.953125 C 16.4375 -21.953125 17.742188 -21.628906 18.734375 -20.984375 C 19.722656 -20.335938 20.445312 -19.398438 20.90625 -18.171875 L 21.3125 -18.171875 C 21.976562 -19.453125 22.832031 -20.398438 23.875 -21.015625 C 24.925781 -21.640625 26.234375 -21.953125 27.796875 -21.953125 C 32.265625 -21.953125 34.5 -19.46875 34.5 -14.5 L 34.5 0 L 29.078125 0 L 29.078125 -13.8125 C 29.078125 -15.070312 28.828125 -15.984375 28.328125 -16.546875 C 27.835938 -17.109375 27.046875 -17.390625 25.953125 -17.390625 C 22.984375 -17.390625 21.5 -15.398438 21.5 -11.421875 L 21.5 0 L 16.09375 0 L 16.09375 -13.8125 C 16.09375 -15.070312 15.84375 -15.984375 15.34375 -16.546875 C 14.84375 -17.109375 14.046875 -17.390625 12.953125 -17.390625 C 11.554688 -17.390625 10.46875 -16.921875 9.6875 -15.984375 C 8.90625 -15.054688 8.515625 -13.578125 8.515625 -11.546875 L 8.515625 0 Z M 3.109375 0 "/></g></g></g><g fill="#000000" fill-opacity="1"><g transform="translate(289.967073, 615.47471)"><g><path d="M 21.296875 -9.546875 L 7.4375 -9.546875 C 7.59375 -7.671875 8.125 -6.304688 9.03125 -5.453125 C 9.945312 -4.609375 11.195312 -4.1875 12.78125 -4.1875 C 14.007812 -4.1875 15.007812 -4.414062 15.78125 -4.875 C 16.550781 -5.332031 17.171875 -6.03125 17.640625 -6.96875 L 18.046875 -6.96875 L 21.640625 -4.671875 C 20.941406 -3.160156 19.878906 -1.9375 18.453125 -1 C 17.035156 -0.0625 15.144531 0.40625 12.78125 0.40625 C 10.550781 0.40625 8.625 -0.015625 7 -0.859375 C 5.382812 -1.703125 4.132812 -2.960938 3.25 -4.640625 C 2.375 -6.316406 1.9375 -8.359375 1.9375 -10.765625 C 1.9375 -13.210938 2.394531 -15.273438 3.3125 -16.953125 C 4.238281 -18.628906 5.488281 -19.878906 7.0625 -20.703125 C 8.644531 -21.535156 10.421875 -21.953125 12.390625 -21.953125 C 15.429688 -21.953125 17.757812 -21.144531 19.375 -19.53125 C 21 -17.914062 21.8125 -15.546875 21.8125 -12.421875 C 21.8125 -11.285156 21.773438 -10.40625 21.703125 -9.78125 Z M 16.640625 -13.046875 C 16.585938 -14.691406 16.207031 -15.882812 15.5 -16.625 C 14.789062 -17.375 13.753906 -17.75 12.390625 -17.75 C 9.648438 -17.75 8.039062 -16.179688 7.5625 -13.046875 Z M 16.640625 -13.046875 "/></g></g></g><g fill="#000000" fill-opacity="1"><g transform="translate(313.382759, 615.47471)"><g><path d="M 3.109375 0 L 3.109375 -21.546875 L 8.359375 -21.546875 L 8.359375 -18.34375 L 8.765625 -18.265625 C 9.285156 -19.460938 9.96875 -20.335938 10.8125 -20.890625 C 11.664062 -21.453125 12.695312 -21.734375 13.90625 -21.734375 C 15.132812 -21.734375 16.066406 -21.523438 16.703125 -21.109375 L 15.78125 -16.453125 L 15.375 -16.375 C 15.019531 -16.507812 14.679688 -16.609375 14.359375 -16.671875 C 14.035156 -16.742188 13.640625 -16.78125 13.171875 -16.78125 C 11.660156 -16.78125 10.503906 -16.25 9.703125 -15.1875 C 8.910156 -14.125 8.515625 -12.421875 8.515625 -10.078125 L 8.515625 0 Z M 3.109375 0 "/></g></g></g><g fill="#000000" fill-opacity="1"><g transform="translate(330.275634, 615.47471)"><g><path d="M 12.5625 0.40625 C 10.476562 0.40625 8.632812 -0.0234375 7.03125 -0.890625 C 5.425781 -1.753906 4.175781 -3.023438 3.28125 -4.703125 C 2.382812 -6.390625 1.9375 -8.410156 1.9375 -10.765625 C 1.9375 -13.128906 2.382812 -15.148438 3.28125 -16.828125 C 4.175781 -18.515625 5.414062 -19.789062 7 -20.65625 C 8.59375 -21.519531 10.414062 -21.953125 12.46875 -21.953125 C 17.007812 -21.953125 19.914062 -20.304688 21.1875 -17.015625 L 17.484375 -14.359375 L 17.078125 -14.359375 C 16.628906 -15.367188 16.050781 -16.117188 15.34375 -16.609375 C 14.632812 -17.109375 13.675781 -17.359375 12.46875 -17.359375 C 10.90625 -17.359375 9.6875 -16.816406 8.8125 -15.734375 C 7.9375 -14.660156 7.5 -13.003906 7.5 -10.765625 C 7.5 -8.546875 7.941406 -6.894531 8.828125 -5.8125 C 9.710938 -4.726562 10.957031 -4.1875 12.5625 -4.1875 C 13.726562 -4.1875 14.71875 -4.5 15.53125 -5.125 C 16.351562 -5.757812 16.9375 -6.671875 17.28125 -7.859375 L 17.703125 -7.890625 L 21.546875 -5.78125 C 20.992188 -3.957031 19.976562 -2.46875 18.5 -1.3125 C 17.03125 -0.164062 15.050781 0.40625 12.5625 0.40625 Z M 12.5625 0.40625 "/></g></g></g><g fill="#000000" fill-opacity="1"><g transform="translate(352.480512, 615.47471)"><g><path d="M 21.296875 -9.546875 L 7.4375 -9.546875 C 7.59375 -7.671875 8.125 -6.304688 9.03125 -5.453125 C 9.945312 -4.609375 11.195312 -4.1875 12.78125 -4.1875 C 14.007812 -4.1875 15.007812 -4.414062 15.78125 -4.875 C 16.550781 -5.332031 17.171875 -6.03125 17.640625 -6.96875 L 18.046875 -6.96875 L 21.640625 -4.671875 C 20.941406 -3.160156 19.878906 -1.9375 18.453125 -1 C 17.035156 -0.0625 15.144531 0.40625 12.78125 0.40625 C 10.550781 0.40625 8.625 -0.015625 7 -0.859375 C 5.382812 -1.703125 4.132812 -2.960938 3.25 -4.640625 C 2.375 -6.316406 1.9375 -8.359375 1.9375 -10.765625 C 1.9375 -13.210938 2.394531 -15.273438 3.3125 -16.953125 C 4.238281 -18.628906 5.488281 -19.878906 7.0625 -20.703125 C 8.644531 -21.535156 10.421875 -21.953125 12.390625 -21.953125 C 15.429688 -21.953125 17.757812 -21.144531 19.375 -19.53125 C 21 -17.914062 21.8125 -15.546875 21.8125 -12.421875 C 21.8125 -11.285156 21.773438 -10.40625 21.703125 -9.78125 Z M 16.640625 -13.046875 C 16.585938 -14.691406 16.207031 -15.882812 15.5 -16.625 C 14.789062 -17.375 13.753906 -17.75 12.390625 -17.75 C 9.648438 -17.75 8.039062 -16.179688 7.5625 -13.046875 Z M 16.640625 -13.046875 "/></g></g></g><g fill="#000000" fill-opacity="1"><g transform="translate(375.896199, 615.47471)"><g/></g></g><g fill="#000000" fill-opacity="1"><g transform="translate(385.328877, 615.47471)"><g><path d="M 14.75 -28.5625 C 16.789062 -28.5625 18.535156 -28.1875 19.984375 -27.4375 C 21.441406 -26.6875 22.539062 -25.632812 23.28125 -24.28125 C 24.019531 -22.9375 24.390625 -21.375 24.390625 -19.59375 C 24.390625 -17.8125 24.019531 -16.25 23.28125 -14.90625 C 22.539062 -13.5625 21.441406 -12.515625 19.984375 -11.765625 C 18.535156 -11.015625 16.789062 -10.640625 14.75 -10.640625 L 9.359375 -10.640625 L 9.359375 0 L 3.71875 0 L 3.71875 -28.5625 Z M 14 -15.125 C 17.144531 -15.125 18.71875 -16.613281 18.71875 -19.59375 C 18.71875 -22.582031 17.144531 -24.078125 14 -24.078125 L 9.359375 -24.078125 L 9.359375 -15.125 Z M 14 -15.125 "/></g></g></g><g fill="#000000" fill-opacity="1"><g transform="translate(411.420077, 615.47471)"><g><path d="M 3.109375 0 L 3.109375 -21.546875 L 8.359375 -21.546875 L 8.359375 -18.34375 L 8.765625 -18.265625 C 9.285156 -19.460938 9.96875 -20.335938 10.8125 -20.890625 C 11.664062 -21.453125 12.695312 -21.734375 13.90625 -21.734375 C 15.132812 -21.734375 16.066406 -21.523438 16.703125 -21.109375 L 15.78125 -16.453125 L 15.375 -16.375 C 15.019531 -16.507812 14.679688 -16.609375 14.359375 -16.671875 C 14.035156 -16.742188 13.640625 -16.78125 13.171875 -16.78125 C 11.660156 -16.78125 10.503906 -16.25 9.703125 -15.1875 C 8.910156 -14.125 8.515625 -12.421875 8.515625 -10.078125 L 8.515625 0 Z M 3.109375 0 "/></g></g></g><g fill="#000000" fill-opacity="1"><g transform="translate(428.312952, 615.47471)"><g><path d="M 12.515625 0.40625 C 10.410156 0.40625 8.5625 -0.0234375 6.96875 -0.890625 C 5.375 -1.753906 4.132812 -3.019531 3.25 -4.6875 C 2.375 -6.363281 1.9375 -8.390625 1.9375 -10.765625 C 1.9375 -13.128906 2.375 -15.148438 3.25 -16.828125 C 4.132812 -18.515625 5.375 -19.789062 6.96875 -20.65625 C 8.5625 -21.519531 10.410156 -21.953125 12.515625 -21.953125 C 14.628906 -21.953125 16.484375 -21.519531 18.078125 -20.65625 C 19.671875 -19.789062 20.910156 -18.515625 21.796875 -16.828125 C 22.679688 -15.148438 23.125 -13.128906 23.125 -10.765625 C 23.125 -8.390625 22.679688 -6.363281 21.796875 -4.6875 C 20.910156 -3.019531 19.671875 -1.753906 18.078125 -0.890625 C 16.484375 -0.0234375 14.628906 0.40625 12.515625 0.40625 Z M 12.515625 -4.1875 C 15.867188 -4.1875 17.546875 -6.378906 17.546875 -10.765625 C 17.546875 -13.046875 17.113281 -14.710938 16.25 -15.765625 C 15.394531 -16.828125 14.148438 -17.359375 12.515625 -17.359375 C 9.171875 -17.359375 7.5 -15.160156 7.5 -10.765625 C 7.5 -6.378906 9.171875 -4.1875 12.515625 -4.1875 Z M 12.515625 -4.1875 "/></g></g></g><g fill="#000000" fill-opacity="1"><g transform="translate(453.349556, 615.47471)"><g><path d="M 10.640625 0.40625 C 8.941406 0.40625 7.4375 -0.00390625 6.125 -0.828125 C 4.8125 -1.660156 3.785156 -2.910156 3.046875 -4.578125 C 2.304688 -6.253906 1.9375 -8.316406 1.9375 -10.765625 C 1.9375 -13.222656 2.316406 -15.285156 3.078125 -16.953125 C 3.835938 -18.628906 4.890625 -19.878906 6.234375 -20.703125 C 7.585938 -21.535156 9.148438 -21.953125 10.921875 -21.953125 C 12.265625 -21.953125 13.425781 -21.71875 14.40625 -21.25 C 15.382812 -20.789062 16.210938 -20.078125 16.890625 -19.109375 L 17.3125 -19.203125 L 17.3125 -30.203125 L 22.71875 -30.203125 L 22.71875 0 L 17.3125 0 L 17.3125 -2.796875 L 16.890625 -2.875 C 16.296875 -1.851562 15.476562 -1.050781 14.4375 -0.46875 C 13.394531 0.113281 12.128906 0.40625 10.640625 0.40625 Z M 12.40625 -4.1875 C 13.925781 -4.1875 15.128906 -4.726562 16.015625 -5.8125 C 16.898438 -6.894531 17.34375 -8.546875 17.34375 -10.765625 C 17.34375 -12.972656 16.898438 -14.625 16.015625 -15.71875 C 15.128906 -16.8125 13.925781 -17.359375 12.40625 -17.359375 C 10.8125 -17.359375 9.59375 -16.828125 8.75 -15.765625 C 7.914062 -14.710938 7.5 -13.046875 7.5 -10.765625 C 7.5 -8.492188 7.914062 -6.828125 8.75 -5.765625 C 9.59375 -4.710938 10.8125 -4.1875 12.40625 -4.1875 Z M 12.40625 -4.1875 "/></g></g></g><g fill="#000000" fill-opacity="1"><g transform="translate(479.167335, 615.47471)"><g><path d="M 9.859375 0.40625 C 7.441406 0.40625 5.65625 -0.253906 4.5 -1.578125 C 3.351562 -2.898438 2.78125 -4.796875 2.78125 -7.265625 L 2.78125 -21.546875 L 8.1875 -21.546875 L 8.1875 -7.953125 C 8.1875 -6.640625 8.46875 -5.675781 9.03125 -5.0625 C 9.601562 -4.457031 10.476562 -4.15625 11.65625 -4.15625 C 13.15625 -4.15625 14.320312 -4.644531 15.15625 -5.625 C 15.988281 -6.613281 16.40625 -8.164062 16.40625 -10.28125 L 16.40625 -21.546875 L 21.8125 -21.546875 L 21.8125 0 L 16.625 0 L 16.625 -3.171875 L 16.21875 -3.265625 C 15.519531 -2.023438 14.671875 -1.101562 13.671875 -0.5 C 12.679688 0.101562 11.410156 0.40625 9.859375 0.40625 Z M 9.859375 0.40625 "/></g></g></g><g fill="#000000" fill-opacity="1"><g transform="translate(504.086775, 615.47471)"><g><path d="M 12.5625 0.40625 C 10.476562 0.40625 8.632812 -0.0234375 7.03125 -0.890625 C 5.425781 -1.753906 4.175781 -3.023438 3.28125 -4.703125 C 2.382812 -6.390625 1.9375 -8.410156 1.9375 -10.765625 C 1.9375 -13.128906 2.382812 -15.148438 3.28125 -16.828125 C 4.175781 -18.515625 5.414062 -19.789062 7 -20.65625 C 8.59375 -21.519531 10.414062 -21.953125 12.46875 -21.953125 C 17.007812 -21.953125 19.914062 -20.304688 21.1875 -17.015625 L 17.484375 -14.359375 L 17.078125 -14.359375 C 16.628906 -15.367188 16.050781 -16.117188 15.34375 -16.609375 C 14.632812 -17.109375 13.675781 -17.359375 12.46875 -17.359375 C 10.90625 -17.359375 9.6875 -16.816406 8.8125 -15.734375 C 7.9375 -14.660156 7.5 -13.003906 7.5 -10.765625 C 7.5 -8.546875 7.941406 -6.894531 8.828125 -5.8125 C 9.710938 -4.726562 10.957031 -4.1875 12.5625 -4.1875 C 13.726562 -4.1875 14.71875 -4.5 15.53125 -5.125 C 16.351562 -5.757812 16.9375 -6.671875 17.28125 -7.859375 L 17.703125 -7.890625 L 21.546875 -5.78125 C 20.992188 -3.957031 19.976562 -2.46875 18.5 -1.3125 C 17.03125 -0.164062 15.050781 0.40625 12.5625 0.40625 Z M 12.5625 0.40625 "/></g></g></g><g fill="#000000" fill-opacity="1"><g transform="translate(526.291631, 615.47471)"><g><path d="M 14.859375 -5.140625 L 16.265625 -1.140625 C 15.679688 -0.648438 14.945312 -0.269531 14.0625 0 C 13.175781 0.269531 12.175781 0.40625 11.0625 0.40625 C 8.726562 0.40625 6.953125 -0.226562 5.734375 -1.5 C 4.523438 -2.769531 3.921875 -4.613281 3.921875 -7.03125 L 3.921875 -17.265625 L 0.640625 -17.265625 L 0.640625 -21.5625 L 3.921875 -21.5625 L 3.921875 -25.765625 L 9.34375 -26.640625 L 9.34375 -21.5625 L 15.453125 -21.5625 L 15.453125 -17.265625 L 9.34375 -17.265625 L 9.34375 -7.421875 C 9.34375 -6.359375 9.5625 -5.582031 10 -5.09375 C 10.445312 -4.601562 11.09375 -4.359375 11.9375 -4.359375 C 12.894531 -4.359375 13.734375 -4.617188 14.453125 -5.140625 Z M 14.859375 -5.140625 "/></g></g></g><g fill="#000000" fill-opacity="1"><g transform="translate(543.028294, 615.47471)"><g/></g></g><g fill="#000000" fill-opacity="1"><g transform="translate(552.460972, 615.47471)"><g><path d="M 15.609375 0.40625 C 12.972656 0.40625 10.648438 -0.140625 8.640625 -1.234375 C 6.640625 -2.328125 5.070312 -3.96875 3.9375 -6.15625 C 2.8125 -8.351562 2.25 -11.0625 2.25 -14.28125 C 2.25 -17.5 2.8125 -20.203125 3.9375 -22.390625 C 5.070312 -24.585938 6.640625 -26.234375 8.640625 -27.328125 C 10.648438 -28.421875 12.972656 -28.96875 15.609375 -28.96875 C 18.359375 -28.96875 20.691406 -28.429688 22.609375 -27.359375 C 24.523438 -26.285156 25.894531 -24.644531 26.71875 -22.4375 L 22.59375 -19.921875 L 22.109375 -19.9375 C 21.492188 -21.425781 20.660156 -22.492188 19.609375 -23.140625 C 18.566406 -23.785156 17.234375 -24.109375 15.609375 -24.109375 C 13.234375 -24.109375 11.378906 -23.320312 10.046875 -21.75 C 8.722656 -20.175781 8.0625 -17.6875 8.0625 -14.28125 C 8.0625 -10.882812 8.722656 -8.398438 10.046875 -6.828125 C 11.378906 -5.253906 13.234375 -4.46875 15.609375 -4.46875 C 19.316406 -4.46875 21.585938 -6.273438 22.421875 -9.890625 L 22.90625 -9.890625 L 27.078125 -7.71875 C 26.296875 -5.007812 24.957031 -2.976562 23.0625 -1.625 C 21.175781 -0.269531 18.691406 0.40625 15.609375 0.40625 Z M 15.609375 0.40625 "/></g></g></g><g fill="#000000" fill-opacity="1"><g transform="translate(580.466036, 615.47471)"><g><path d="M 8.40625 0.40625 C 7.019531 0.40625 5.816406 0.15625 4.796875 -0.34375 C 3.785156 -0.851562 3.003906 -1.597656 2.453125 -2.578125 C 1.910156 -3.566406 1.640625 -4.753906 1.640625 -6.140625 C 1.640625 -7.410156 1.910156 -8.476562 2.453125 -9.34375 C 3.003906 -10.207031 3.851562 -10.914062 5 -11.46875 C 6.144531 -12.03125 7.644531 -12.457031 9.5 -12.75 C 10.78125 -12.957031 11.753906 -13.1875 12.421875 -13.4375 C 13.097656 -13.6875 13.550781 -13.96875 13.78125 -14.28125 C 14.019531 -14.59375 14.140625 -14.988281 14.140625 -15.46875 C 14.140625 -16.15625 13.898438 -16.679688 13.421875 -17.046875 C 12.941406 -17.410156 12.140625 -17.59375 11.015625 -17.59375 C 9.816406 -17.59375 8.675781 -17.328125 7.59375 -16.796875 C 6.519531 -16.265625 5.582031 -15.5625 4.78125 -14.6875 L 4.390625 -14.6875 L 2.125 -18.109375 C 3.21875 -19.316406 4.550781 -20.257812 6.125 -20.9375 C 7.707031 -21.613281 9.429688 -21.953125 11.296875 -21.953125 C 14.140625 -21.953125 16.195312 -21.347656 17.46875 -20.140625 C 18.75 -18.929688 19.390625 -17.210938 19.390625 -14.984375 L 19.390625 -5.625 C 19.390625 -4.664062 19.816406 -4.1875 20.671875 -4.1875 C 20.992188 -4.1875 21.3125 -4.242188 21.625 -4.359375 L 21.890625 -4.28125 L 22.28125 -0.515625 C 21.988281 -0.316406 21.570312 -0.15625 21.03125 -0.03125 C 20.5 0.09375 19.914062 0.15625 19.28125 0.15625 C 17.988281 0.15625 16.976562 -0.0859375 16.25 -0.578125 C 15.53125 -1.078125 15.015625 -1.851562 14.703125 -2.90625 L 14.296875 -2.953125 C 13.242188 -0.710938 11.28125 0.40625 8.40625 0.40625 Z M 10.125 -3.640625 C 11.375 -3.640625 12.367188 -4.054688 13.109375 -4.890625 C 13.859375 -5.734375 14.234375 -6.90625 14.234375 -8.40625 L 14.234375 -10.59375 L 13.875 -10.671875 C 13.539062 -10.410156 13.109375 -10.191406 12.578125 -10.015625 C 12.054688 -9.835938 11.300781 -9.664062 10.3125 -9.5 C 9.144531 -9.300781 8.300781 -8.960938 7.78125 -8.484375 C 7.269531 -8.015625 7.015625 -7.34375 7.015625 -6.46875 C 7.015625 -5.539062 7.285156 -4.835938 7.828125 -4.359375 C 8.378906 -3.878906 9.144531 -3.640625 10.125 -3.640625 Z M 10.125 -3.640625 "/></g></g></g><g fill="#000000" fill-opacity="1"><g transform="translate(603.178666, 615.47471)"><g><path d="M 14.859375 -5.140625 L 16.265625 -1.140625 C 15.679688 -0.648438 14.945312 -0.269531 14.0625 0 C 13.175781 0.269531 12.175781 0.40625 11.0625 0.40625 C 8.726562 0.40625 6.953125 -0.226562 5.734375 -1.5 C 4.523438 -2.769531 3.921875 -4.613281 3.921875 -7.03125 L 3.921875 -17.265625 L 0.640625 -17.265625 L 0.640625 -21.5625 L 3.921875 -21.5625 L 3.921875 -25.765625 L 9.34375 -26.640625 L 9.34375 -21.5625 L 15.453125 -21.5625 L 15.453125 -17.265625 L 9.34375 -17.265625 L 9.34375 -7.421875 C 9.34375 -6.359375 9.5625 -5.582031 10 -5.09375 C 10.445312 -4.601562 11.09375 -4.359375 11.9375 -4.359375 C 12.894531 -4.359375 13.734375 -4.617188 14.453125 -5.140625 Z M 14.859375 -5.140625 "/></g></g></g><g fill="#000000" fill-opacity="1"><g transform="translate(619.915329, 615.47471)"><g><path d="M 8.40625 0.40625 C 7.019531 0.40625 5.816406 0.15625 4.796875 -0.34375 C 3.785156 -0.851562 3.003906 -1.597656 2.453125 -2.578125 C 1.910156 -3.566406 1.640625 -4.753906 1.640625 -6.140625 C 1.640625 -7.410156 1.910156 -8.476562 2.453125 -9.34375 C 3.003906 -10.207031 3.851562 -10.914062 5 -11.46875 C 6.144531 -12.03125 7.644531 -12.457031 9.5 -12.75 C 10.78125 -12.957031 11.753906 -13.1875 12.421875 -13.4375 C 13.097656 -13.6875 13.550781 -13.96875 13.78125 -14.28125 C 14.019531 -14.59375 14.140625 -14.988281 14.140625 -15.46875 C 14.140625 -16.15625 13.898438 -16.679688 13.421875 -17.046875 C 12.941406 -17.410156 12.140625 -17.59375 11.015625 -17.59375 C 9.816406 -17.59375 8.675781 -17.328125 7.59375 -16.796875 C 6.519531 -16.265625 5.582031 -15.5625 4.78125 -14.6875 L 4.390625 -14.6875 L 2.125 -18.109375 C 3.21875 -19.316406 4.550781 -20.257812 6.125 -20.9375 C 7.707031 -21.613281 9.429688 -21.953125 11.296875 -21.953125 C 14.140625 -21.953125 16.195312 -21.347656 17.46875 -20.140625 C 18.75 -18.929688 19.390625 -17.210938 19.390625 -14.984375 L 19.390625 -5.625 C 19.390625 -4.664062 19.816406 -4.1875 20.671875 -4.1875 C 20.992188 -4.1875 21.3125 -4.242188 21.625 -4.359375 L 21.890625 -4.28125 L 22.28125 -0.515625 C 21.988281 -0.316406 21.570312 -0.15625 21.03125 -0.03125 C 20.5 0.09375 19.914062 0.15625 19.28125 0.15625 C 17.988281 0.15625 16.976562 -0.0859375 16.25 -0.578125 C 15.53125 -1.078125 15.015625 -1.851562 14.703125 -2.90625 L 14.296875 -2.953125 C 13.242188 -0.710938 11.28125 0.40625 8.40625 0.40625 Z M 10.125 -3.640625 C 11.375 -3.640625 12.367188 -4.054688 13.109375 -4.890625 C 13.859375 -5.734375 14.234375 -6.90625 14.234375 -8.40625 L 14.234375 -10.59375 L 13.875 -10.671875 C 13.539062 -10.410156 13.109375 -10.191406 12.578125 -10.015625 C 12.054688 -9.835938 11.300781 -9.664062 10.3125 -9.5 C 9.144531 -9.300781 8.300781 -8.960938 7.78125 -8.484375 C 7.269531 -8.015625 7.015625 -7.34375 7.015625 -6.46875 C 7.015625 -5.539062 7.285156 -4.835938 7.828125 -4.359375 C 8.378906 -3.878906 9.144531 -3.640625 10.125 -3.640625 Z M 10.125 -3.640625 "/></g></g></g><g fill="#000000" fill-opacity="1"><g transform="translate(642.627959, 615.47471)"><g><path d="M 8.953125 0.40625 C 7.003906 0.40625 5.519531 -0.113281 4.5 -1.15625 C 3.476562 -2.207031 2.96875 -3.800781 2.96875 -5.9375 L 2.96875 -30.203125 L 8.375 -30.203125 L 8.375 -6.15625 C 8.375 -4.84375 8.921875 -4.1875 10.015625 -4.1875 C 10.328125 -4.1875 10.660156 -4.238281 11.015625 -4.34375 L 11.296875 -4.265625 L 11.78125 -0.09375 C 11.476562 0.0625 11.078125 0.179688 10.578125 0.265625 C 10.085938 0.359375 9.546875 0.40625 8.953125 0.40625 Z M 8.953125 0.40625 "/></g></g></g><g fill="#000000" fill-opacity="1"><g transform="translate(655.009551, 615.47471)"><g><path d="M 12.515625 0.40625 C 10.410156 0.40625 8.5625 -0.0234375 6.96875 -0.890625 C 5.375 -1.753906 4.132812 -3.019531 3.25 -4.6875 C 2.375 -6.363281 1.9375 -8.390625 1.9375 -10.765625 C 1.9375 -13.128906 2.375 -15.148438 3.25 -16.828125 C 4.132812 -18.515625 5.375 -19.789062 6.96875 -20.65625 C 8.5625 -21.519531 10.410156 -21.953125 12.515625 -21.953125 C 14.628906 -21.953125 16.484375 -21.519531 18.078125 -20.65625 C 19.671875 -19.789062 20.910156 -18.515625 21.796875 -16.828125 C 22.679688 -15.148438 23.125 -13.128906 23.125 -10.765625 C 23.125 -8.390625 22.679688 -6.363281 21.796875 -4.6875 C 20.910156 -3.019531 19.671875 -1.753906 18.078125 -0.890625 C 16.484375 -0.0234375 14.628906 0.40625 12.515625 0.40625 Z M 12.515625 -4.1875 C 15.867188 -4.1875 17.546875 -6.378906 17.546875 -10.765625 C 17.546875 -13.046875 17.113281 -14.710938 16.25 -15.765625 C 15.394531 -16.828125 14.148438 -17.359375 12.515625 -17.359375 C 9.171875 -17.359375 7.5 -15.160156 7.5 -10.765625 C 7.5 -6.378906 9.171875 -4.1875 12.515625 -4.1875 Z M 12.515625 -4.1875 "/></g></g></g><g fill="#000000" fill-opacity="1"><g transform="translate(680.046155, 615.47471)"><g><path d="M 11.171875 9.140625 C 7.617188 9.140625 4.992188 8.617188 3.296875 7.578125 C 1.609375 6.535156 0.765625 5.082031 0.765625 3.21875 C 0.765625 2.09375 1.125 1.164062 1.84375 0.4375 C 2.570312 -0.28125 3.613281 -0.765625 4.96875 -1.015625 L 4.96875 -1.421875 C 4.238281 -1.867188 3.710938 -2.363281 3.390625 -2.90625 C 3.066406 -3.445312 2.90625 -4.070312 2.90625 -4.78125 C 2.90625 -6.519531 4.035156 -7.6875 6.296875 -8.28125 L 6.296875 -8.6875 C 5.128906 -9.351562 4.253906 -10.175781 3.671875 -11.15625 C 3.085938 -12.144531 2.796875 -13.335938 2.796875 -14.734375 C 2.796875 -16.160156 3.125 -17.414062 3.78125 -18.5 C 4.4375 -19.59375 5.398438 -20.441406 6.671875 -21.046875 C 7.941406 -21.648438 9.460938 -21.953125 11.234375 -21.953125 C 13.023438 -21.953125 14.457031 -21.640625 15.53125 -21.015625 C 16.195312 -21.984375 16.582031 -23.097656 16.6875 -24.359375 L 17.09375 -24.609375 L 20.984375 -23.65625 C 20.859375 -22.625 20.554688 -21.757812 20.078125 -21.0625 C 19.597656 -20.363281 18.847656 -19.742188 17.828125 -19.203125 L 17.828125 -18.765625 C 19.046875 -17.703125 19.65625 -16.210938 19.65625 -14.296875 C 19.65625 -12.972656 19.320312 -11.78125 18.65625 -10.71875 C 17.988281 -9.664062 17.019531 -8.832031 15.75 -8.21875 C 14.476562 -7.613281 12.972656 -7.3125 11.234375 -7.3125 L 10.40625 -7.328125 C 9.882812 -7.347656 9.519531 -7.359375 9.3125 -7.359375 C 8.820312 -7.359375 8.4375 -7.222656 8.15625 -6.953125 C 7.875 -6.691406 7.734375 -6.351562 7.734375 -5.9375 C 7.734375 -5.476562 7.914062 -5.125 8.28125 -4.875 C 8.644531 -4.625 9.179688 -4.484375 9.890625 -4.453125 L 14.703125 -4.28125 C 19.472656 -4.132812 21.859375 -2.082031 21.859375 1.875 C 21.859375 3.269531 21.503906 4.507812 20.796875 5.59375 C 20.085938 6.6875 18.9375 7.550781 17.34375 8.1875 C 15.757812 8.820312 13.703125 9.140625 11.171875 9.140625 Z M 11.234375 -11.09375 C 12.273438 -11.09375 13.085938 -11.398438 13.671875 -12.015625 C 14.253906 -12.628906 14.546875 -13.5 14.546875 -14.625 C 14.546875 -15.757812 14.253906 -16.628906 13.671875 -17.234375 C 13.085938 -17.835938 12.273438 -18.140625 11.234375 -18.140625 C 10.179688 -18.140625 9.367188 -17.835938 8.796875 -17.234375 C 8.222656 -16.628906 7.9375 -15.757812 7.9375 -14.625 C 7.9375 -13.476562 8.222656 -12.601562 8.796875 -12 C 9.367188 -11.394531 10.179688 -11.09375 11.234375 -11.09375 Z M 11.171875 5.21875 C 13.023438 5.21875 14.367188 4.957031 15.203125 4.4375 C 16.046875 3.914062 16.46875 3.238281 16.46875 2.40625 C 16.46875 1.726562 16.25 1.226562 15.8125 0.90625 C 15.382812 0.59375 14.703125 0.421875 13.765625 0.390625 L 9.515625 0.203125 C 9.367188 0.203125 9.234375 0.191406 9.109375 0.171875 C 8.984375 0.160156 8.863281 0.15625 8.75 0.15625 C 7.84375 0.15625 7.148438 0.347656 6.671875 0.734375 C 6.191406 1.128906 5.953125 1.671875 5.953125 2.359375 C 5.953125 3.273438 6.390625 3.976562 7.265625 4.46875 C 8.140625 4.96875 9.441406 5.21875 11.171875 5.21875 Z M 11.171875 5.21875 "/></g></g></g></svg>