<svg xmlns="http://www.w3.org/2000/svg" xmlns:xlink="http://www.w3.org/1999/xlink" width="1000" zoomAndPan="magnify" viewBox="0 0 750 749.999995" height="1000" preserveAspectRatio="xMidYMid meet" version="1.0"><defs><g/><clipPath id="762b941c7c"><path d="M 234.25 120 L 543 120 L 543 508.621094 L 234.25 508.621094 Z M 234.25 120 " clip-rule="nonzero"/></clipPath><clipPath id="b272627250"><path d="M 528 156.300781 L 570.449219 156.300781 L 570.449219 184 L 528 184 Z M 528 156.300781 " clip-rule="nonzero"/></clipPath></defs><rect x="-75" width="900" fill="#ffffff" y="-74.999999" height="899.999994" fill-opacity="1"/><rect x="-75" width="900" fill="#38b6ff" y="-74.999999" height="899.999994" fill-opacity="1"/><path fill="#ffbc36" d="M 324.410156 415.34375 C 324.410156 415.34375 320.34375 389.210938 308.5 379.40625 C 279.964844 355.816406 244.039062 309.285156 275.070312 225.636719 C 303.433594 149.300781 488.027344 148.992188 509.050781 261.53125 C 520.28125 321.671875 493.011719 350.472656 443.015625 396.214844 C 419.636719 417.621094 428.8125 416.484375 419.941406 425.71875 L 324.410156 415.34375 " fill-opacity="1" fill-rule="evenodd"/><g clip-path="url(#762b941c7c)"><path fill="#ffffff" d="M 308.894531 408.558594 C 308.851562 408.601562 308.761719 408.648438 308.675781 408.734375 C 305.75 411.097656 303.824219 414.554688 303.433594 418.320312 C 302.996094 422.128906 304.085938 425.894531 306.492188 428.871094 C 307.628906 430.269531 309.027344 431.453125 310.554688 432.371094 C 308.851562 432.898438 307.234375 433.730469 305.835938 434.867188 C 302.863281 437.230469 300.984375 440.6875 300.546875 444.496094 C 300.152344 448.261719 301.246094 452.023438 303.605469 455 C 305.3125 457.101562 307.539062 458.679688 310.03125 459.554688 C 307.410156 459.859375 304.875 460.910156 302.777344 462.617188 C 299.847656 464.980469 297.925781 468.441406 297.53125 472.203125 C 297.09375 475.96875 298.230469 479.777344 300.589844 482.753906 C 302.207031 484.722656 304.261719 486.253906 306.621094 487.128906 C 307.363281 488.792969 308.28125 490.371094 309.460938 491.769531 C 313.046875 496.324219 318.289062 499.210938 324.015625 499.824219 C 345.035156 502.144531 381.921875 506.171875 402.765625 508.492188 C 410.765625 509.367188 418.191406 505.777344 422.605469 499.738281 C 424.921875 499.296875 427.109375 498.335938 428.988281 496.804688 C 431.914062 494.441406 433.839844 490.980469 434.230469 487.21875 C 434.625 483.410156 433.53125 479.644531 431.171875 476.667969 C 429.511719 474.566406 427.285156 473.035156 424.792969 472.117188 C 427.414062 471.808594 429.90625 470.757812 432.003906 469.097656 C 434.976562 466.6875 436.855469 463.230469 437.246094 459.464844 C 437.683594 455.703125 436.59375 451.894531 434.1875 448.917969 C 433.050781 447.515625 431.652344 446.335938 430.125 445.460938 C 431.828125 444.933594 433.445312 444.058594 434.84375 442.921875 C 437.816406 440.558594 439.695312 437.097656 440.132812 433.335938 C 440.523438 429.527344 439.433594 425.761719 437.074219 422.785156 C 436.984375 422.699219 436.941406 422.652344 436.898438 422.566406 C 492.050781 403.917969 534.398438 354.414062 541.171875 292.390625 C 550.480469 207.382812 489.472656 130.828125 405.039062 121.589844 C 320.605469 112.3125 244.476562 173.8125 235.214844 258.859375 C 228.394531 320.882812 259.074219 378.402344 308.894531 408.558594 Z M 422.519531 485.90625 C 422.433594 486.605469 422.125 487.175781 421.601562 487.613281 C 421.078125 488.050781 420.421875 488.222656 419.765625 488.136719 C 396.996094 485.640625 334.199219 478.769531 311.472656 476.273438 C 310.816406 476.230469 310.207031 475.878906 309.769531 475.355469 C 309.375 474.832031 309.15625 474.171875 309.246094 473.515625 C 309.289062 472.816406 309.636719 472.203125 310.160156 471.808594 C 310.6875 471.371094 311.34375 471.195312 311.996094 471.242188 C 334.765625 473.734375 397.566406 480.652344 420.292969 483.148438 C 420.945312 483.191406 421.558594 483.539062 421.996094 484.066406 C 422.390625 484.589844 422.605469 485.246094 422.519531 485.90625 Z M 425.535156 458.195312 C 425.492188 458.855469 425.140625 459.464844 424.617188 459.902344 C 424.09375 460.296875 423.4375 460.472656 422.78125 460.429688 C 400.011719 457.933594 337.257812 451.0625 314.488281 448.566406 C 313.832031 448.480469 313.222656 448.128906 312.828125 447.605469 C 312.390625 447.078125 312.214844 446.421875 312.257812 445.765625 C 312.347656 445.109375 312.695312 444.496094 313.222656 444.058594 C 313.703125 443.664062 314.402344 443.445312 315.058594 443.535156 C 337.78125 446.027344 400.582031 452.902344 423.304688 455.394531 C 424.003906 455.484375 424.617188 455.789062 425.011719 456.316406 C 425.449219 456.839844 425.621094 457.539062 425.535156 458.195312 Z M 428.417969 432.019531 C 428.332031 432.722656 428.027344 433.335938 427.5 433.730469 C 426.976562 434.167969 426.277344 434.339844 425.621094 434.253906 C 402.898438 431.800781 340.097656 424.886719 317.371094 422.390625 C 316.671875 422.347656 316.105469 421.996094 315.667969 421.472656 C 315.230469 420.945312 315.058594 420.289062 315.144531 419.632812 C 315.144531 419.589844 315.144531 419.589844 315.144531 419.589844 C 315.1875 418.933594 315.539062 418.320312 316.0625 417.925781 C 316.585938 417.488281 317.242188 417.3125 317.898438 417.402344 C 340.667969 419.851562 403.421875 426.769531 426.191406 429.265625 C 426.847656 429.308594 427.457031 429.65625 427.894531 430.183594 C 428.289062 430.707031 428.464844 431.363281 428.417969 432.019531 Z M 322.53125 402.824219 L 425.535156 414.117188 C 426.101562 413.679688 426.714844 413.375 427.414062 413.199219 C 481.167969 397.527344 522.992188 350.5625 529.457031 291.121094 C 538.066406 212.59375 481.734375 141.859375 403.726562 133.324219 C 325.761719 124.742188 255.492188 181.601562 246.882812 260.128906 C 240.328125 320.140625 271.703125 375.597656 321.65625 402.210938 C 322.003906 402.386719 322.265625 402.605469 322.53125 402.824219 " fill-opacity="1" fill-rule="evenodd"/></g><path fill="#ffffff" d="M 390.179688 315.589844 C 385.109375 317.425781 379.34375 317.734375 374.054688 314.757812 C 376.414062 311.867188 378.378906 308.410156 379.777344 304.382812 C 381.351562 299.742188 381.351562 293.265625 379.253906 288.230469 C 376.675781 282.101562 371.519531 277.769531 363.347656 278.953125 C 359.152344 279.5625 355.4375 282.671875 353.425781 287.925781 C 350.980469 294.402344 351.328125 304.820312 356.792969 313.792969 C 356.050781 314.1875 355.304688 314.539062 354.605469 314.84375 C 354.125 315.0625 353.644531 315.238281 353.164062 315.457031 C 352.289062 313.003906 351.417969 310.816406 350.5 308.933594 C 347.703125 303.289062 344.511719 296.941406 340.359375 292.785156 C 336.6875 289.105469 332.320312 286.960938 327.164062 287.179688 C 322.617188 287.398438 318.683594 290.113281 316.28125 294.445312 C 313.308594 299.65625 312.695312 307.183594 315.449219 313.003906 C 317.898438 318.214844 323.359375 324.429688 329.390625 327.886719 C 334.328125 330.691406 339.574219 331.652344 344.117188 330.121094 C 344.425781 330.03125 344.863281 329.902344 345.429688 329.8125 C 353.90625 360.847656 359.328125 412.585938 359.328125 412.585938 C 359.675781 415.824219 362.5625 418.191406 365.792969 417.839844 C 369.027344 417.488281 371.386719 414.601562 371.039062 411.359375 C 371.039062 411.359375 365.359375 359.183594 356.660156 326.75 C 357.535156 326.398438 358.453125 326.050781 359.371094 325.65625 C 361.207031 324.824219 363.042969 323.859375 364.832031 322.765625 C 375.191406 330.691406 387.078125 329.945312 396.78125 325.613281 C 397.960938 326.707031 399.140625 327.714844 400.449219 328.675781 C 401.9375 329.726562 403.507812 330.691406 405.082031 331.519531 C 389.570312 363.824219 376.152344 412.894531 376.152344 412.894531 C 375.277344 416.042969 377.15625 419.285156 380.261719 420.160156 C 383.40625 420.992188 386.640625 419.109375 387.515625 416 C 387.515625 416 400.667969 366.671875 415.789062 335.941406 C 420.726562 337.472656 424.703125 338.128906 425.710938 338.304688 C 436.941406 340.101562 450.050781 335.546875 453.546875 325.042969 C 457.570312 312.960938 454.335938 302.28125 445.246094 298.953125 C 433.664062 294.710938 424.3125 302.9375 418.148438 310.03125 C 415.613281 312.917969 413.082031 316.683594 410.546875 321.105469 C 409.453125 320.492188 408.359375 319.835938 407.355469 319.089844 L 407.179688 318.957031 C 412.597656 314.273438 416.707031 308.496094 418.675781 303.246094 C 420.640625 297.949219 420.554688 293.046875 418.71875 289.5 C 417.230469 286.613281 414.695312 284.335938 410.675781 283.242188 C 403.289062 281.269531 397.960938 284.378906 394.289062 289.761719 C 391.578125 293.789062 389.960938 299.261719 389.261719 303.859375 C 388.605469 308.234375 389 312.128906 390.179688 315.589844 Z M 341.800781 318.609375 C 341.191406 316.945312 340.535156 315.457031 339.921875 314.144531 C 338 310.25 335.988281 305.914062 333.367188 302.632812 C 331.792969 300.617188 330.089844 298.867188 327.6875 298.953125 C 327.378906 299 327.25 299.261719 327.03125 299.480469 C 326.59375 300.003906 326.289062 300.664062 326.027344 301.363281 C 325.28125 303.417969 325.152344 305.957031 326.113281 307.972656 C 327.6875 311.386719 331.3125 315.414062 335.246094 317.644531 C 336.996094 318.652344 338.742188 319.484375 340.359375 318.914062 C 340.710938 318.828125 341.191406 318.695312 341.800781 318.609375 Z M 421.558594 325.394531 C 424.574219 326.179688 426.890625 326.53125 427.546875 326.664062 C 430.824219 327.1875 434.363281 326.96875 437.378906 325.789062 C 439.652344 324.957031 441.617188 323.554688 442.359375 321.277344 C 443.410156 318.171875 443.847656 315.238281 443.320312 312.785156 C 443.015625 311.515625 442.449219 310.46875 441.222656 310.03125 C 438.644531 309.066406 436.375 309.765625 434.363281 310.949219 C 431.480469 312.699219 429.03125 315.457031 427.019531 317.777344 C 425.1875 319.878906 423.351562 322.417969 421.558594 325.394531 Z M 365.925781 305.957031 C 367.019531 304.382812 367.9375 302.589844 368.636719 300.53125 C 369.421875 298.296875 369.378906 295.191406 368.375 292.785156 C 367.847656 291.515625 366.929688 290.507812 365.3125 290.59375 C 365.09375 290.945312 364.394531 292.125 364.175781 293.046875 C 363.433594 295.804688 363.566406 299.4375 364.746094 303.070312 C 365.050781 304.03125 365.445312 304.996094 365.925781 305.957031 Z M 400.800781 308.847656 C 403.988281 305.828125 406.4375 302.324219 407.617188 299.085938 C 408.054688 297.992188 408.316406 296.941406 408.359375 295.980469 C 408.402344 295.367188 408.273438 294.796875 407.617188 294.621094 C 405.957031 294.183594 404.863281 295.191406 404.035156 296.417969 C 402.285156 299 401.367188 302.632812 400.929688 305.609375 C 400.757812 306.746094 400.710938 307.839844 400.800781 308.847656 " fill-opacity="1" fill-rule="evenodd"/><path fill="#ffffff" d="M 411.199219 96.117188 L 414.914062 62.0625 C 415.265625 58.824219 412.949219 55.890625 409.714844 55.539062 C 406.480469 55.191406 403.554688 57.507812 403.203125 60.75 L 399.488281 94.847656 C 399.140625 98.085938 401.457031 100.976562 404.6875 101.324219 C 407.921875 101.71875 410.851562 99.355469 411.199219 96.117188 " fill-opacity="1" fill-rule="evenodd"/><path fill="#ffffff" d="M 493.667969 128.113281 L 516.085938 102.726562 C 518.226562 100.273438 518.007812 96.554688 515.5625 94.410156 C 513.15625 92.21875 509.398438 92.484375 507.257812 94.890625 L 484.839844 120.277344 C 482.699219 122.730469 482.914062 126.492188 485.363281 128.640625 C 487.8125 130.785156 491.523438 130.566406 493.667969 128.113281 " fill-opacity="1" fill-rule="evenodd"/><g clip-path="url(#b272627250)"><path fill="#ffffff" d="M 536.625 182.433594 L 567.128906 167.816406 C 570.058594 166.414062 571.324219 162.867188 569.925781 159.9375 C 568.527344 157.003906 564.988281 155.734375 562.058594 157.132812 L 531.511719 171.796875 C 528.585938 173.199219 527.359375 176.699219 528.757812 179.675781 C 530.15625 182.609375 533.699219 183.835938 536.625 182.433594 " fill-opacity="1" fill-rule="evenodd"/></g><path fill="#ffffff" d="M 336.164062 104.695312 L 322.964844 73.484375 C 321.699219 70.464844 318.246094 69.066406 315.230469 70.335938 C 312.257812 71.605469 310.859375 75.0625 312.128906 78.082031 L 325.328125 109.292969 C 326.550781 112.269531 330.046875 113.667969 333.019531 112.441406 C 336.035156 111.175781 337.433594 107.671875 336.164062 104.695312 " fill-opacity="1" fill-rule="evenodd"/><path fill="#ffffff" d="M 276.292969 140.632812 L 249.679688 119.664062 C 247.144531 117.695312 243.429688 118.132812 241.417969 120.671875 C 239.410156 123.253906 239.84375 126.976562 242.425781 128.945312 L 268.996094 149.910156 C 271.574219 151.925781 275.289062 151.488281 277.296875 148.90625 C 279.308594 146.367188 278.828125 142.644531 276.292969 140.632812 " fill-opacity="1" fill-rule="evenodd"/><g fill="#000000" fill-opacity="1"><g transform="translate(214.450305, 643.427917)"><g><path d="M 41.421875 12.96875 C 36.835938 12.96875 33.03125 11.863281 30 9.65625 C 26.96875 7.445312 24.925781 4.367188 23.875 0.421875 C 19.90625 -0.140625 16.441406 -1.484375 13.484375 -3.609375 C 10.523438 -5.742188 8.21875 -8.6875 6.5625 -12.4375 C 4.914062 -16.195312 4.09375 -20.738281 4.09375 -26.0625 C 4.09375 -32.019531 5.125 -37 7.1875 -41 C 9.257812 -45.007812 12.117188 -47.988281 15.765625 -49.9375 C 19.421875 -51.882812 23.632812 -52.859375 28.40625 -52.859375 C 33.1875 -52.859375 37.394531 -51.890625 41.03125 -49.953125 C 44.664062 -48.015625 47.507812 -45.035156 49.5625 -41.015625 C 51.613281 -37.003906 52.640625 -32.019531 52.640625 -26.0625 C 52.640625 -18.257812 50.96875 -12.273438 47.625 -8.109375 C 44.289062 -3.941406 39.609375 -1.347656 33.578125 -0.328125 L 33.40625 0.390625 C 34.132812 1.648438 35.226562 2.617188 36.6875 3.296875 C 38.15625 3.972656 39.863281 4.3125 41.8125 4.3125 C 43.375 4.3125 44.785156 4.109375 46.046875 3.703125 L 46.765625 3.84375 L 48.234375 11.90625 C 47.472656 12.1875 46.445312 12.429688 45.15625 12.640625 C 43.875 12.859375 42.628906 12.96875 41.421875 12.96875 Z M 28.40625 -8.203125 C 32.820312 -8.203125 36.195312 -9.617188 38.53125 -12.453125 C 40.863281 -15.296875 42.03125 -19.832031 42.03125 -26.0625 C 42.03125 -32.28125 40.863281 -36.816406 38.53125 -39.671875 C 36.195312 -42.523438 32.820312 -43.953125 28.40625 -43.953125 C 23.96875 -43.953125 20.578125 -42.523438 18.234375 -39.671875 C 15.890625 -36.816406 14.71875 -32.28125 14.71875 -26.0625 C 14.71875 -19.832031 15.890625 -15.296875 18.234375 -12.453125 C 20.578125 -9.617188 23.96875 -8.203125 28.40625 -8.203125 Z M 28.40625 -8.203125 "/></g></g></g><g fill="#000000" fill-opacity="1"><g transform="translate(271.229008, 643.427917)"><g><path d="M 18 0.75 C 13.582031 0.75 10.320312 -0.453125 8.21875 -2.859375 C 6.113281 -5.273438 5.0625 -8.742188 5.0625 -13.265625 L 5.0625 -39.3125 L 14.9375 -39.3125 L 14.9375 -14.5 C 14.9375 -12.101562 15.453125 -10.351562 16.484375 -9.25 C 17.515625 -8.144531 19.113281 -7.59375 21.28125 -7.59375 C 24.007812 -7.59375 26.132812 -8.488281 27.65625 -10.28125 C 29.175781 -12.070312 29.9375 -14.894531 29.9375 -18.75 L 29.9375 -39.3125 L 39.8125 -39.3125 L 39.8125 0 L 30.328125 0 L 30.328125 -5.78125 L 29.578125 -5.953125 C 28.328125 -3.691406 26.789062 -2.007812 24.96875 -0.90625 C 23.15625 0.195312 20.832031 0.75 18 0.75 Z M 18 0.75 "/></g></g></g><g fill="#000000" fill-opacity="1"><g transform="translate(316.708994, 643.427917)"><g><path d="M 10.59375 -44.015625 C 8.800781 -44.015625 7.347656 -44.554688 6.234375 -45.640625 C 5.117188 -46.722656 4.5625 -48.117188 4.5625 -49.828125 C 4.5625 -51.515625 5.117188 -52.898438 6.234375 -53.984375 C 7.347656 -55.066406 8.800781 -55.609375 10.59375 -55.609375 C 11.78125 -55.609375 12.835938 -55.359375 13.765625 -54.859375 C 14.691406 -54.359375 15.410156 -53.671875 15.921875 -52.796875 C 16.429688 -51.929688 16.6875 -50.941406 16.6875 -49.828125 C 16.6875 -48.710938 16.429688 -47.710938 15.921875 -46.828125 C 15.410156 -45.953125 14.691406 -45.265625 13.765625 -44.765625 C 12.835938 -44.265625 11.78125 -44.015625 10.59375 -44.015625 Z M 5.671875 0 L 5.671875 -39.3125 L 15.546875 -39.3125 L 15.546875 0 Z M 5.671875 0 "/></g></g></g><g fill="#000000" fill-opacity="1"><g transform="translate(337.880711, 643.427917)"><g><path d="M 33 0 L 2.0625 0 L 2.0625 -8.15625 L 21.109375 -30.765625 L 20.890625 -31.515625 L 2.953125 -31.515625 L 2.953125 -39.359375 L 32.71875 -39.359375 L 32.71875 -31.1875 L 13.6875 -8.59375 L 13.9375 -7.84375 L 33 -7.84375 Z M 33 0 "/></g></g></g><g fill="#000000" fill-opacity="1"><g transform="translate(372.953052, 643.427917)"><g><path d="M 33 0 L 2.0625 0 L 2.0625 -8.15625 L 21.109375 -30.765625 L 20.890625 -31.515625 L 2.953125 -31.515625 L 2.953125 -39.359375 L 32.71875 -39.359375 L 32.71875 -31.1875 L 13.6875 -8.59375 L 13.9375 -7.84375 L 33 -7.84375 Z M 33 0 "/></g></g></g><g fill="#000000" fill-opacity="1"><g transform="translate(408.025392, 643.427917)"><g/></g></g><g fill="#000000" fill-opacity="1"><g transform="translate(425.240784, 643.427917)"><g><path d="M 50.015625 0 L 39.171875 0 L 35.25 -12.015625 L 15.296875 -12.015625 L 11.375 0 L 0.78125 0 L 18.78125 -52.109375 L 32.015625 -52.109375 Z M 24.765625 -41.234375 L 18.078125 -20.671875 L 32.40625 -20.671875 L 25.671875 -41.234375 Z M 24.765625 -41.234375 "/></g></g></g><g fill="#000000" fill-opacity="1"><g transform="translate(476.031515, 643.427917)"><g><path d="M 26.90625 -52.109375 C 30.644531 -52.109375 33.835938 -51.425781 36.484375 -50.0625 C 39.128906 -48.695312 41.128906 -46.785156 42.484375 -44.328125 C 43.835938 -41.867188 44.515625 -39.007812 44.515625 -35.75 C 44.515625 -32.5 43.835938 -29.648438 42.484375 -27.203125 C 41.128906 -24.753906 39.128906 -22.84375 36.484375 -21.46875 C 33.835938 -20.101562 30.644531 -19.421875 26.90625 -19.421875 L 17.078125 -19.421875 L 17.078125 0 L 6.765625 0 L 6.765625 -52.109375 Z M 25.5625 -27.59375 C 31.28125 -27.59375 34.140625 -30.3125 34.140625 -35.75 C 34.140625 -41.21875 31.28125 -43.953125 25.5625 -43.953125 L 17.078125 -43.953125 L 17.078125 -27.59375 Z M 25.5625 -27.59375 "/></g></g></g><g fill="#000000" fill-opacity="1"><g transform="translate(523.650058, 643.427917)"><g><path d="M 26.90625 -52.109375 C 30.644531 -52.109375 33.835938 -51.425781 36.484375 -50.0625 C 39.128906 -48.695312 41.128906 -46.785156 42.484375 -44.328125 C 43.835938 -41.867188 44.515625 -39.007812 44.515625 -35.75 C 44.515625 -32.5 43.835938 -29.648438 42.484375 -27.203125 C 41.128906 -24.753906 39.128906 -22.84375 36.484375 -21.46875 C 33.835938 -20.101562 30.644531 -19.421875 26.90625 -19.421875 L 17.078125 -19.421875 L 17.078125 0 L 6.765625 0 L 6.765625 -52.109375 Z M 25.5625 -27.59375 C 31.28125 -27.59375 34.140625 -30.3125 34.140625 -35.75 C 34.140625 -41.21875 31.28125 -43.953125 25.5625 -43.953125 L 17.078125 -43.953125 L 17.078125 -27.59375 Z M 25.5625 -27.59375 "/></g></g></g></svg>