<svg xmlns="http://www.w3.org/2000/svg" xmlns:xlink="http://www.w3.org/1999/xlink" width="1000" zoomAndPan="magnify" viewBox="0 0 750 749.999995" height="1000" preserveAspectRatio="xMidYMid meet" version="1.0"><defs><g/><clipPath id="1670072eea"><path d="M 93.164062 50.785156 L 657.0625 50.785156 L 657.0625 557.765625 L 93.164062 557.765625 Z M 93.164062 50.785156 " clip-rule="nonzero"/></clipPath></defs><rect x="-75" width="900" fill="#ffffff" y="-74.999999" height="899.999994" fill-opacity="1"/><rect x="-75" width="900" fill="#ffffff" y="-74.999999" height="899.999994" fill-opacity="1"/><g clip-path="url(#1670072eea)"><path fill="#999999" d="M 562.761719 557.765625 L 255.660156 557.765625 C 203.664062 557.765625 161.363281 514.066406 161.363281 460.355469 C 161.363281 446.804688 164.082031 433.539062 169.308594 421.308594 C 168.429688 421.28125 167.492188 421.269531 166.496094 421.269531 C 159.753906 421.269531 151.75 421.820312 142.03125 422.945312 C 140.976562 423.070312 139.90625 423.132812 138.847656 423.132812 C 127.285156 423.132812 116.90625 415.804688 113.023438 404.894531 C 109.140625 393.996094 112.5625 381.753906 121.539062 374.433594 C 139.210938 360.007812 145.738281 351.789062 148.105469 348.015625 C 144.441406 345.347656 135.074219 340.03125 112.5 333.054688 C 100.9375 329.484375 93.164062 318.949219 93.164062 306.839844 C 93.164062 294.730469 100.9375 284.195312 112.507812 280.628906 C 135.074219 273.652344 144.441406 268.332031 148.105469 265.664062 C 145.738281 261.890625 139.207031 253.671875 121.53125 239.242188 C 112.5625 231.925781 109.148438 219.683594 113.023438 208.785156 C 116.90625 197.878906 127.285156 190.550781 138.847656 190.550781 C 139.910156 190.550781 140.976562 190.613281 142.035156 190.738281 C 151.957031 191.886719 160.089844 192.449219 166.894531 192.449219 C 172.328125 192.449219 176 192.074219 178.386719 191.675781 C 177.253906 186.820312 173.863281 176.914062 163.835938 158.75 C 159.160156 150.28125 159.304688 139.863281 164.210938 131.550781 C 169.128906 123.21875 178.179688 118.042969 187.832031 118.042969 C 192.449219 118.042969 197.035156 119.226562 201.097656 121.46875 C 219.125 131.429688 228.957031 134.882812 234.050781 136.023438 C 234.859375 131.070312 235.503906 120.527344 233.085938 99.664062 C 232.183594 91.882812 234.640625 84.082031 239.832031 78.257812 C 245.039062 72.414062 252.515625 69.0625 260.347656 69.0625 C 268.605469 69.0625 276.347656 72.742188 281.582031 79.164062 C 296.027344 96.871094 304.207031 103.382812 307.960938 105.738281 C 310.617188 102.128906 315.949219 92.816406 322.957031 70.125 C 326.53125 58.558594 337.066406 50.785156 349.164062 50.785156 C 361.261719 50.785156 371.792969 58.558594 375.367188 70.117188 C 382.378906 92.808594 387.707031 102.125 390.363281 105.738281 C 394.121094 103.382812 402.300781 96.871094 416.753906 79.15625 C 421.992188 72.738281 429.726562 69.0625 437.988281 69.0625 C 445.816406 69.0625 453.292969 72.414062 458.496094 78.257812 C 463.6875 84.082031 466.144531 91.882812 465.25 99.65625 C 462.824219 120.523438 463.46875 131.066406 464.277344 136.019531 C 469.375 134.882812 479.203125 131.429688 497.222656 121.472656 C 501.289062 119.230469 505.878906 118.042969 510.496094 118.042969 C 520.152344 118.042969 529.203125 123.21875 534.121094 131.554688 C 539.023438 139.867188 539.167969 150.285156 534.492188 158.75 C 524.476562 176.890625 521.082031 186.792969 519.941406 191.65625 C 522.363281 192.066406 526.050781 192.449219 531.425781 192.449219 C 538.238281 192.449219 546.371094 191.886719 556.296875 190.738281 C 557.351562 190.613281 558.417969 190.550781 559.480469 190.550781 C 571.039062 190.550781 581.417969 197.875 585.300781 208.777344 C 589.1875 219.675781 585.769531 231.917969 576.804688 239.234375 C 559.125 253.671875 552.59375 261.890625 550.226562 265.664062 C 553.890625 268.332031 563.257812 273.652344 585.828125 280.632812 C 597.390625 284.195312 605.164062 294.730469 605.164062 306.839844 C 605.164062 318.949219 597.390625 329.484375 585.820312 333.054688 C 577.652344 335.578125 571.226562 337.902344 566.1875 339.964844 C 573.996094 347.445312 580.601562 356.308594 585.742188 366.226562 C 627.363281 377.050781 657.0625 415.816406 657.0625 460.355469 C 657.0625 514.066406 614.757812 557.765625 562.761719 557.765625 " fill-opacity="1" fill-rule="nonzero"/></g><path fill="#f9e7bd" d="M 584.542969 369.246094 C 577.367188 353.566406 566.429688 340.820312 553.136719 332.046875 C 560.726562 327.257812 572.652344 322.335938 588.664062 317.382812 C 595.914062 315.148438 600.785156 308.550781 600.785156 300.972656 C 600.785156 293.390625 595.914062 286.792969 588.671875 284.558594 C 548.566406 272.164062 544.988281 263.601562 544.679688 262.011719 C 544.375 260.445312 544.457031 251.324219 576.191406 225.421875 C 581.804688 220.835938 583.945312 213.171875 581.511719 206.351562 C 579.082031 199.523438 572.585938 194.933594 565.351562 194.933594 C 564.6875 194.933594 564.011719 194.976562 563.351562 195.050781 C 553.027344 196.25 544.507812 196.828125 537.292969 196.828125 C 521.460938 196.828125 516.210938 193.8125 515.527344 192.652344 C 515.058594 191.859375 511.539062 183.875 531.386719 147.921875 C 534.3125 142.625 534.230469 136.097656 531.15625 130.894531 C 528.078125 125.671875 522.40625 122.425781 516.367188 122.425781 C 513.476562 122.425781 510.605469 123.171875 508.050781 124.582031 C 488.417969 135.425781 474.367188 140.925781 466.285156 140.925781 C 463.671875 140.925781 463.144531 140.332031 462.945312 140.109375 C 461.382812 138.355469 456.621094 129.75 460.929688 92.605469 C 461.496094 87.734375 459.957031 82.851562 456.714844 79.207031 C 453.449219 75.546875 448.765625 73.441406 443.855469 73.441406 C 438.691406 73.441406 433.84375 75.75 430.566406 79.773438 C 407.320312 108.257812 397.617188 111.335938 394.519531 111.335938 C 393.550781 111.335938 384.667969 110.101562 371.445312 67.277344 C 369.203125 60.035156 362.609375 55.171875 355.03125 55.171875 C 347.457031 55.171875 340.863281 60.035156 338.625 67.28125 C 325.398438 110.097656 316.511719 111.335938 315.542969 111.335938 C 312.449219 111.335938 302.75 108.261719 279.503906 79.773438 C 276.226562 75.75 271.378906 73.441406 266.214844 73.441406 C 261.304688 73.441406 256.621094 75.546875 253.355469 79.207031 C 250.109375 82.851562 248.570312 87.734375 249.136719 92.609375 C 253.445312 129.746094 248.683594 138.351562 247.121094 140.109375 C 246.921875 140.332031 246.394531 140.925781 243.78125 140.925781 C 235.703125 140.925781 221.648438 135.425781 202.015625 124.578125 C 199.464844 123.171875 196.589844 122.425781 193.699219 122.425781 C 187.660156 122.425781 181.992188 125.671875 178.910156 130.894531 C 175.839844 136.09375 175.753906 142.621094 178.679688 147.921875 C 198.53125 183.867188 195 191.855469 194.535156 192.648438 C 194.507812 192.6875 191.84375 196.828125 172.773438 196.828125 L 172.765625 196.828125 C 165.554688 196.828125 157.039062 196.25 146.71875 195.050781 C 146.054688 194.976562 145.382812 194.933594 144.714844 194.933594 C 137.480469 194.933594 130.984375 199.523438 128.554688 206.351562 C 126.125 213.175781 128.261719 220.839844 133.882812 225.425781 C 165.609375 251.324219 165.691406 260.445312 165.386719 262.011719 C 165.078125 263.601562 161.503906 272.164062 121.402344 284.558594 C 114.152344 286.792969 109.28125 293.390625 109.28125 300.972656 C 109.28125 308.550781 114.152344 315.148438 121.394531 317.382812 C 161.503906 329.777344 165.078125 338.339844 165.386719 339.929688 C 165.691406 341.496094 165.609375 350.621094 133.886719 376.515625 C 128.265625 381.097656 126.125 388.761719 128.550781 395.585938 C 130.984375 402.414062 137.476562 407.007812 144.714844 407.007812 C 145.378906 407.007812 146.054688 406.964844 146.71875 406.890625 C 156.828125 405.714844 165.21875 405.148438 172.367188 405.148438 C 180.253906 405.148438 186.386719 405.855469 190.589844 407.253906 C 190.707031 407.292969 190.824219 407.324219 190.941406 407.359375 C 182.1875 421.3125 177.484375 437.566406 177.484375 454.484375 C 177.484375 502.539062 215.191406 541.640625 261.53125 541.640625 L 568.632812 541.640625 C 614.972656 541.640625 652.679688 502.539062 652.679688 454.484375 C 652.679688 412.714844 623.457031 377.070312 584.542969 369.246094 " fill-opacity="1" fill-rule="nonzero"/><path fill="#646464" d="M 246.617188 363.695312 C 262.644531 337.574219 289.230469 321.507812 318.632812 320.675781 C 340.132812 286.976562 377.949219 266.558594 420.402344 266.558594 C 445.160156 266.558594 468.394531 273.585938 487.796875 286.265625 C 480.445312 219.476562 423.738281 167.328125 355.03125 167.328125 C 281.359375 167.328125 221.417969 227.28125 221.417969 300.972656 C 221.417969 324.449219 227.5625 346.488281 238.261719 365.652344 C 241.003906 364.875 243.78125 364.199219 246.617188 363.695312 " fill-opacity="1" fill-rule="nonzero"/><path fill="#646464" d="M 195.449219 392.660156 C 202.167969 384.84375 210.136719 378.304688 218.976562 373.304688 C 207.304688 351.449219 200.921875 326.773438 200.921875 300.972656 C 200.921875 215.972656 270.054688 146.820312 355.027344 146.820312 C 440.015625 146.820312 509.152344 215.972656 509.152344 300.972656 C 509.152344 302.011719 509.011719 303.027344 508.976562 304.058594 C 511.929688 307.207031 514.753906 310.5 517.359375 313.992188 C 526.171875 314.871094 534.570312 317.230469 542.492188 320.640625 C 551.554688 314.335938 565.289062 308.507812 584.132812 302.6875 C 585.824219 302.167969 585.824219 299.773438 584.132812 299.253906 C 516.640625 278.398438 512.171875 257.824219 566.464844 213.511719 C 567.859375 212.367188 566.910156 210.125 565.121094 210.328125 C 495.664062 218.394531 484.203125 201.5625 517.925781 140.488281 C 518.800781 138.902344 517.070312 137.171875 515.484375 138.042969 C 454.425781 171.777344 437.59375 160.308594 445.65625 90.839844 C 445.863281 89.050781 443.617188 88.101562 442.476562 89.496094 C 398.171875 143.800781 377.597656 139.332031 356.75 71.824219 C 356.226562 70.128906 353.84375 70.128906 353.316406 71.824219 C 332.46875 139.332031 311.894531 143.800781 267.589844 89.496094 C 266.449219 88.101562 264.207031 89.050781 264.410156 90.839844 C 272.472656 160.308594 255.644531 171.777344 194.585938 138.042969 C 193 137.171875 191.269531 138.902344 192.140625 140.488281 C 225.867188 201.5625 214.402344 218.394531 144.945312 210.328125 C 143.15625 210.125 142.207031 212.367188 143.605469 213.511719 C 197.898438 257.824219 193.425781 278.398438 125.933594 299.253906 C 124.242188 299.773438 124.242188 302.167969 125.933594 302.6875 C 193.425781 323.542969 197.898438 344.121094 143.605469 388.433594 C 142.207031 389.574219 143.15625 391.816406 144.945312 391.613281 C 168.132812 388.921875 184.710938 389.085938 195.449219 392.660156 " fill-opacity="1" fill-rule="nonzero"/><path fill="#646464" d="M 573.582031 383.230469 C 563.855469 354.875 538.53125 332.925781 506.210938 334.117188 C 466.371094 268.070312 363.515625 272.40625 330.316406 341.792969 C 298.03125 337.367188 271.765625 356.359375 259.558594 382.914062 C 222.714844 384.046875 192.863281 415.710938 192.863281 454.484375 C 192.863281 493.960938 223.765625 526.257812 261.53125 526.257812 L 568.632812 526.257812 C 606.398438 526.257812 637.300781 493.960938 637.300781 454.484375 C 637.300781 416.777344 609.023438 385.953125 573.582031 383.230469 " fill-opacity="1" fill-rule="nonzero"/><g fill="#000000" fill-opacity="1"><g transform="translate(147.567315, 662.499948)"><g><path d="M 18.75 0 L 10.078125 0 L 1.078125 -39.265625 L 8.8125 -39.265625 L 14.75 -11.65625 L 15.421875 -11.65625 L 22.453125 -39.265625 L 29.078125 -39.265625 L 36.25 -11.65625 L 36.921875 -11.65625 L 42.890625 -39.265625 L 50.359375 -39.265625 L 41.390625 0 L 32.6875 0 L 25.8125 -25.328125 L 25.25 -25.328125 Z M 18.75 0 "/></g></g></g><g fill="#000000" fill-opacity="1"><g transform="translate(198.965029, 662.499948)"><g><path d="M 4.265625 0 L 4.265625 -41.515625 L 11.703125 -41.515625 L 11.703125 -25.75 L 12.265625 -25.640625 C 13.253906 -27.097656 14.460938 -28.21875 15.890625 -29 C 17.328125 -29.789062 19.054688 -30.1875 21.078125 -30.1875 C 27.617188 -30.1875 30.890625 -26.476562 30.890625 -19.0625 L 30.890625 0 L 23.4375 0 L 23.4375 -18.125 C 23.4375 -20.144531 23.035156 -21.613281 22.234375 -22.53125 C 21.429688 -23.445312 20.179688 -23.90625 18.484375 -23.90625 C 16.398438 -23.90625 14.75 -23.207031 13.53125 -21.8125 C 12.3125 -20.425781 11.703125 -18.265625 11.703125 -15.328125 L 11.703125 0 Z M 4.265625 0 "/></g></g></g><g fill="#000000" fill-opacity="1"><g transform="translate(233.659828, 662.499948)"><g><path d="M 29.265625 -13.125 L 10.234375 -13.125 C 10.441406 -10.550781 11.171875 -8.675781 12.421875 -7.5 C 13.679688 -6.332031 15.394531 -5.75 17.5625 -5.75 C 19.257812 -5.75 20.632812 -6.066406 21.6875 -6.703125 C 22.75 -7.335938 23.601562 -8.300781 24.25 -9.59375 L 24.8125 -9.59375 L 29.75 -6.421875 C 28.789062 -4.335938 27.332031 -2.648438 25.375 -1.359375 C 23.425781 -0.078125 20.820312 0.5625 17.5625 0.5625 C 14.5 0.5625 11.851562 -0.015625 9.625 -1.171875 C 7.394531 -2.335938 5.675781 -4.070312 4.46875 -6.375 C 3.257812 -8.675781 2.65625 -11.484375 2.65625 -14.796875 C 2.65625 -18.160156 3.289062 -21 4.5625 -23.3125 C 5.832031 -25.625 7.550781 -27.347656 9.71875 -28.484375 C 11.882812 -29.617188 14.320312 -30.1875 17.03125 -30.1875 C 21.21875 -30.1875 24.425781 -29.078125 26.65625 -26.859375 C 28.882812 -24.640625 30 -21.378906 30 -17.078125 C 30 -15.523438 29.945312 -14.316406 29.84375 -13.453125 Z M 22.875 -17.9375 C 22.8125 -20.195312 22.289062 -21.835938 21.3125 -22.859375 C 20.332031 -23.890625 18.90625 -24.40625 17.03125 -24.40625 C 13.269531 -24.40625 11.054688 -22.25 10.390625 -17.9375 Z M 22.875 -17.9375 "/></g></g></g><g fill="#000000" fill-opacity="1"><g transform="translate(265.857253, 662.499948)"><g><path d="M 11.546875 0.5625 C 9.648438 0.5625 8.003906 0.210938 6.609375 -0.484375 C 5.210938 -1.179688 4.132812 -2.207031 3.375 -3.5625 C 2.625 -4.914062 2.25 -6.539062 2.25 -8.4375 C 2.25 -10.1875 2.625 -11.65625 3.375 -12.84375 C 4.132812 -14.039062 5.300781 -15.019531 6.875 -15.78125 C 8.445312 -16.539062 10.503906 -17.125 13.046875 -17.53125 C 14.816406 -17.820312 16.164062 -18.132812 17.09375 -18.46875 C 18.019531 -18.8125 18.640625 -19.195312 18.953125 -19.625 C 19.273438 -20.0625 19.4375 -20.609375 19.4375 -21.265625 C 19.4375 -22.210938 19.101562 -22.9375 18.4375 -23.4375 C 17.78125 -23.945312 16.679688 -24.203125 15.140625 -24.203125 C 13.492188 -24.203125 11.925781 -23.832031 10.4375 -23.09375 C 8.957031 -22.363281 7.671875 -21.398438 6.578125 -20.203125 L 6.046875 -20.203125 L 2.921875 -24.890625 C 4.429688 -26.554688 6.269531 -27.851562 8.4375 -28.78125 C 10.601562 -29.71875 12.960938 -30.1875 15.515625 -30.1875 C 19.441406 -30.1875 22.28125 -29.351562 24.03125 -27.6875 C 25.789062 -26.019531 26.671875 -23.65625 26.671875 -20.59375 L 26.671875 -7.734375 C 26.671875 -6.410156 27.25 -5.75 28.40625 -5.75 C 28.851562 -5.75 29.296875 -5.828125 29.734375 -5.984375 L 30.109375 -5.875 L 30.640625 -0.703125 C 30.234375 -0.429688 29.660156 -0.207031 28.921875 -0.03125 C 28.191406 0.132812 27.382812 0.21875 26.5 0.21875 C 24.726562 0.21875 23.34375 -0.117188 22.34375 -0.796875 C 21.351562 -1.484375 20.644531 -2.550781 20.21875 -4 L 19.65625 -4.0625 C 18.207031 -0.976562 15.503906 0.5625 11.546875 0.5625 Z M 13.90625 -5 C 15.625 -5 17 -5.570312 18.03125 -6.71875 C 19.0625 -7.875 19.578125 -9.484375 19.578125 -11.546875 L 19.578125 -14.5625 L 19.0625 -14.65625 C 18.613281 -14.300781 18.023438 -14.003906 17.296875 -13.765625 C 16.578125 -13.523438 15.539062 -13.285156 14.1875 -13.046875 C 12.570312 -12.785156 11.410156 -12.328125 10.703125 -11.671875 C 9.992188 -11.015625 9.640625 -10.085938 9.640625 -8.890625 C 9.640625 -7.617188 10.015625 -6.648438 10.765625 -5.984375 C 11.515625 -5.328125 12.5625 -5 13.90625 -5 Z M 13.90625 -5 "/></g></g></g><g fill="#000000" fill-opacity="1"><g transform="translate(297.087949, 662.499948)"><g><path d="M 20.4375 -7.0625 L 22.375 -1.5625 C 21.5625 -0.894531 20.546875 -0.375 19.328125 0 C 18.117188 0.375 16.742188 0.5625 15.203125 0.5625 C 11.992188 0.5625 9.554688 -0.304688 7.890625 -2.046875 C 6.222656 -3.796875 5.390625 -6.335938 5.390625 -9.671875 L 5.390625 -23.734375 L 0.890625 -23.734375 L 0.890625 -29.65625 L 5.390625 -29.65625 L 5.390625 -35.421875 L 12.84375 -36.625 L 12.84375 -29.65625 L 21.25 -29.65625 L 21.25 -23.734375 L 12.84375 -23.734375 L 12.84375 -10.203125 C 12.84375 -8.734375 13.144531 -7.660156 13.75 -6.984375 C 14.351562 -6.316406 15.238281 -5.984375 16.40625 -5.984375 C 17.726562 -5.984375 18.882812 -6.34375 19.875 -7.0625 Z M 20.4375 -7.0625 "/></g></g></g><g fill="#000000" fill-opacity="1"><g transform="translate(320.101455, 662.499948)"><g><path d="M 4.265625 0 L 4.265625 -41.515625 L 11.703125 -41.515625 L 11.703125 -25.75 L 12.265625 -25.640625 C 13.253906 -27.097656 14.460938 -28.21875 15.890625 -29 C 17.328125 -29.789062 19.054688 -30.1875 21.078125 -30.1875 C 27.617188 -30.1875 30.890625 -26.476562 30.890625 -19.0625 L 30.890625 0 L 23.4375 0 L 23.4375 -18.125 C 23.4375 -20.144531 23.035156 -21.613281 22.234375 -22.53125 C 21.429688 -23.445312 20.179688 -23.90625 18.484375 -23.90625 C 16.398438 -23.90625 14.75 -23.207031 13.53125 -21.8125 C 12.3125 -20.425781 11.703125 -18.265625 11.703125 -15.328125 L 11.703125 0 Z M 4.265625 0 "/></g></g></g><g fill="#000000" fill-opacity="1"><g transform="translate(354.796255, 662.499948)"><g><path d="M 29.265625 -13.125 L 10.234375 -13.125 C 10.441406 -10.550781 11.171875 -8.675781 12.421875 -7.5 C 13.679688 -6.332031 15.394531 -5.75 17.5625 -5.75 C 19.257812 -5.75 20.632812 -6.066406 21.6875 -6.703125 C 22.75 -7.335938 23.601562 -8.300781 24.25 -9.59375 L 24.8125 -9.59375 L 29.75 -6.421875 C 28.789062 -4.335938 27.332031 -2.648438 25.375 -1.359375 C 23.425781 -0.078125 20.820312 0.5625 17.5625 0.5625 C 14.5 0.5625 11.851562 -0.015625 9.625 -1.171875 C 7.394531 -2.335938 5.675781 -4.070312 4.46875 -6.375 C 3.257812 -8.675781 2.65625 -11.484375 2.65625 -14.796875 C 2.65625 -18.160156 3.289062 -21 4.5625 -23.3125 C 5.832031 -25.625 7.550781 -27.347656 9.71875 -28.484375 C 11.882812 -29.617188 14.320312 -30.1875 17.03125 -30.1875 C 21.21875 -30.1875 24.425781 -29.078125 26.65625 -26.859375 C 28.882812 -24.640625 30 -21.378906 30 -17.078125 C 30 -15.523438 29.945312 -14.316406 29.84375 -13.453125 Z M 22.875 -17.9375 C 22.8125 -20.195312 22.289062 -21.835938 21.3125 -22.859375 C 20.332031 -23.890625 18.90625 -24.40625 17.03125 -24.40625 C 13.269531 -24.40625 11.054688 -22.25 10.390625 -17.9375 Z M 22.875 -17.9375 "/></g></g></g><g fill="#000000" fill-opacity="1"><g transform="translate(386.993679, 662.499948)"><g><path d="M 4.265625 0 L 4.265625 -29.625 L 11.5 -29.625 L 11.5 -25.21875 L 12.0625 -25.109375 C 12.769531 -26.753906 13.707031 -27.960938 14.875 -28.734375 C 16.039062 -29.503906 17.457031 -29.890625 19.125 -29.890625 C 20.800781 -29.890625 22.082031 -29.601562 22.96875 -29.03125 L 21.703125 -22.609375 L 21.140625 -22.5 C 20.648438 -22.695312 20.179688 -22.835938 19.734375 -22.921875 C 19.285156 -23.015625 18.738281 -23.0625 18.09375 -23.0625 C 16.019531 -23.0625 14.4375 -22.332031 13.34375 -20.875 C 12.25 -19.414062 11.703125 -17.078125 11.703125 -13.859375 L 11.703125 0 Z M 4.265625 0 "/></g></g></g><g fill="#000000" fill-opacity="1"><g transform="translate(410.222025, 662.499948)"><g/></g></g><g fill="#000000" fill-opacity="1"><g transform="translate(423.1923, 662.499948)"><g><path d="M 30 -39.265625 L 30 -32.765625 L 12.859375 -32.765625 L 12.859375 -22.375 L 28.40625 -22.375 L 28.40625 -15.953125 L 12.859375 -15.953125 L 12.859375 0 L 5.109375 0 L 5.109375 -39.265625 Z M 30 -39.265625 "/></g></g></g><g fill="#000000" fill-opacity="1"><g transform="translate(454.93322, 662.499948)"><g><path d="M 17.21875 0.5625 C 14.3125 0.5625 11.757812 -0.03125 9.5625 -1.21875 C 7.375 -2.414062 5.675781 -4.160156 4.46875 -6.453125 C 3.257812 -8.753906 2.65625 -11.535156 2.65625 -14.796875 C 2.65625 -18.054688 3.257812 -20.835938 4.46875 -23.140625 C 5.675781 -25.453125 7.375 -27.203125 9.5625 -28.390625 C 11.757812 -29.585938 14.3125 -30.1875 17.21875 -30.1875 C 20.113281 -30.1875 22.65625 -29.585938 24.84375 -28.390625 C 27.039062 -27.203125 28.75 -25.453125 29.96875 -23.140625 C 31.1875 -20.835938 31.796875 -18.054688 31.796875 -14.796875 C 31.796875 -11.535156 31.1875 -8.753906 29.96875 -6.453125 C 28.75 -4.160156 27.039062 -2.414062 24.84375 -1.21875 C 22.65625 -0.03125 20.113281 0.5625 17.21875 0.5625 Z M 17.21875 -5.75 C 21.8125 -5.75 24.109375 -8.765625 24.109375 -14.796875 C 24.109375 -17.929688 23.519531 -20.226562 22.34375 -21.6875 C 21.164062 -23.144531 19.457031 -23.875 17.21875 -23.875 C 12.613281 -23.875 10.3125 -20.847656 10.3125 -14.796875 C 10.3125 -8.765625 12.613281 -5.75 17.21875 -5.75 Z M 17.21875 -5.75 "/></g></g></g><g fill="#000000" fill-opacity="1"><g transform="translate(489.359472, 662.499948)"><g><path d="M 4.265625 0 L 4.265625 -29.625 L 11.5 -29.625 L 11.5 -25.21875 L 12.0625 -25.109375 C 12.769531 -26.753906 13.707031 -27.960938 14.875 -28.734375 C 16.039062 -29.503906 17.457031 -29.890625 19.125 -29.890625 C 20.800781 -29.890625 22.082031 -29.601562 22.96875 -29.03125 L 21.703125 -22.609375 L 21.140625 -22.5 C 20.648438 -22.695312 20.179688 -22.835938 19.734375 -22.921875 C 19.285156 -23.015625 18.738281 -23.0625 18.09375 -23.0625 C 16.019531 -23.0625 14.4375 -22.332031 13.34375 -20.875 C 12.25 -19.414062 11.703125 -17.078125 11.703125 -13.859375 L 11.703125 0 Z M 4.265625 0 "/></g></g></g><g fill="#000000" fill-opacity="1"><g transform="translate(512.587819, 662.499948)"><g><path d="M 29.265625 -13.125 L 10.234375 -13.125 C 10.441406 -10.550781 11.171875 -8.675781 12.421875 -7.5 C 13.679688 -6.332031 15.394531 -5.75 17.5625 -5.75 C 19.257812 -5.75 20.632812 -6.066406 21.6875 -6.703125 C 22.75 -7.335938 23.601562 -8.300781 24.25 -9.59375 L 24.8125 -9.59375 L 29.75 -6.421875 C 28.789062 -4.335938 27.332031 -2.648438 25.375 -1.359375 C 23.425781 -0.078125 20.820312 0.5625 17.5625 0.5625 C 14.5 0.5625 11.851562 -0.015625 9.625 -1.171875 C 7.394531 -2.335938 5.675781 -4.070312 4.46875 -6.375 C 3.257812 -8.675781 2.65625 -11.484375 2.65625 -14.796875 C 2.65625 -18.160156 3.289062 -21 4.5625 -23.3125 C 5.832031 -25.625 7.550781 -27.347656 9.71875 -28.484375 C 11.882812 -29.617188 14.320312 -30.1875 17.03125 -30.1875 C 21.21875 -30.1875 24.425781 -29.078125 26.65625 -26.859375 C 28.882812 -24.640625 30 -21.378906 30 -17.078125 C 30 -15.523438 29.945312 -14.316406 29.84375 -13.453125 Z M 22.875 -17.9375 C 22.8125 -20.195312 22.289062 -21.835938 21.3125 -22.859375 C 20.332031 -23.890625 18.90625 -24.40625 17.03125 -24.40625 C 13.269531 -24.40625 11.054688 -22.25 10.390625 -17.9375 Z M 22.875 -17.9375 "/></g></g></g><g fill="#000000" fill-opacity="1"><g transform="translate(544.78522, 662.499948)"><g><path d="M 17.265625 0.5625 C 14.398438 0.5625 11.863281 -0.03125 9.65625 -1.21875 C 7.457031 -2.414062 5.738281 -4.164062 4.5 -6.46875 C 3.269531 -8.78125 2.65625 -11.554688 2.65625 -14.796875 C 2.65625 -18.054688 3.269531 -20.835938 4.5 -23.140625 C 5.738281 -25.453125 7.453125 -27.203125 9.640625 -28.390625 C 11.828125 -29.585938 14.328125 -30.1875 17.140625 -30.1875 C 23.378906 -30.1875 27.378906 -27.921875 29.140625 -23.390625 L 24.03125 -19.734375 L 23.46875 -19.734375 C 22.863281 -21.128906 22.070312 -22.164062 21.09375 -22.84375 C 20.113281 -23.53125 18.796875 -23.875 17.140625 -23.875 C 14.984375 -23.875 13.304688 -23.128906 12.109375 -21.640625 C 10.910156 -20.160156 10.3125 -17.878906 10.3125 -14.796875 C 10.3125 -11.753906 10.921875 -9.484375 12.140625 -7.984375 C 13.359375 -6.492188 15.066406 -5.75 17.265625 -5.75 C 18.878906 -5.75 20.242188 -6.179688 21.359375 -7.046875 C 22.484375 -7.921875 23.285156 -9.171875 23.765625 -10.796875 L 24.328125 -10.84375 L 29.625 -7.953125 C 28.875 -5.441406 27.476562 -3.394531 25.4375 -1.8125 C 23.40625 -0.226562 20.679688 0.5625 17.265625 0.5625 Z M 17.265625 0.5625 "/></g></g></g><g fill="#000000" fill-opacity="1"><g transform="translate(575.317735, 662.499948)"><g><path d="M 11.546875 0.5625 C 9.648438 0.5625 8.003906 0.210938 6.609375 -0.484375 C 5.210938 -1.179688 4.132812 -2.207031 3.375 -3.5625 C 2.625 -4.914062 2.25 -6.539062 2.25 -8.4375 C 2.25 -10.1875 2.625 -11.65625 3.375 -12.84375 C 4.132812 -14.039062 5.300781 -15.019531 6.875 -15.78125 C 8.445312 -16.539062 10.503906 -17.125 13.046875 -17.53125 C 14.816406 -17.820312 16.164062 -18.132812 17.09375 -18.46875 C 18.019531 -18.8125 18.640625 -19.195312 18.953125 -19.625 C 19.273438 -20.0625 19.4375 -20.609375 19.4375 -21.265625 C 19.4375 -22.210938 19.101562 -22.9375 18.4375 -23.4375 C 17.78125 -23.945312 16.679688 -24.203125 15.140625 -24.203125 C 13.492188 -24.203125 11.925781 -23.832031 10.4375 -23.09375 C 8.957031 -22.363281 7.671875 -21.398438 6.578125 -20.203125 L 6.046875 -20.203125 L 2.921875 -24.890625 C 4.429688 -26.554688 6.269531 -27.851562 8.4375 -28.78125 C 10.601562 -29.71875 12.960938 -30.1875 15.515625 -30.1875 C 19.441406 -30.1875 22.28125 -29.351562 24.03125 -27.6875 C 25.789062 -26.019531 26.671875 -23.65625 26.671875 -20.59375 L 26.671875 -7.734375 C 26.671875 -6.410156 27.25 -5.75 28.40625 -5.75 C 28.851562 -5.75 29.296875 -5.828125 29.734375 -5.984375 L 30.109375 -5.875 L 30.640625 -0.703125 C 30.234375 -0.429688 29.660156 -0.207031 28.921875 -0.03125 C 28.191406 0.132812 27.382812 0.21875 26.5 0.21875 C 24.726562 0.21875 23.34375 -0.117188 22.34375 -0.796875 C 21.351562 -1.484375 20.644531 -2.550781 20.21875 -4 L 19.65625 -4.0625 C 18.207031 -0.976562 15.503906 0.5625 11.546875 0.5625 Z M 13.90625 -5 C 15.625 -5 17 -5.570312 18.03125 -6.71875 C 19.0625 -7.875 19.578125 -9.484375 19.578125 -11.546875 L 19.578125 -14.5625 L 19.0625 -14.65625 C 18.613281 -14.300781 18.023438 -14.003906 17.296875 -13.765625 C 16.578125 -13.523438 15.539062 -13.285156 14.1875 -13.046875 C 12.570312 -12.785156 11.410156 -12.328125 10.703125 -11.671875 C 9.992188 -11.015625 9.640625 -10.085938 9.640625 -8.890625 C 9.640625 -7.617188 10.015625 -6.648438 10.765625 -5.984375 C 11.515625 -5.328125 12.5625 -5 13.90625 -5 Z M 13.90625 -5 "/></g></g></g><g fill="#000000" fill-opacity="1"><g transform="translate(606.548431, 662.499948)"><g><path d="M 13.859375 0.5625 C 11.835938 0.5625 9.984375 0.328125 8.296875 -0.140625 C 6.617188 -0.617188 5.179688 -1.273438 3.984375 -2.109375 C 2.796875 -2.941406 1.914062 -3.894531 1.34375 -4.96875 L 5.484375 -9.421875 L 6.046875 -9.421875 C 7.023438 -8.097656 8.1875 -7.101562 9.53125 -6.4375 C 10.875 -5.78125 12.332031 -5.453125 13.90625 -5.453125 C 15.363281 -5.453125 16.457031 -5.710938 17.1875 -6.234375 C 17.914062 -6.753906 18.28125 -7.492188 18.28125 -8.453125 C 18.28125 -9.210938 18.015625 -9.847656 17.484375 -10.359375 C 16.960938 -10.867188 16.113281 -11.265625 14.9375 -11.546875 L 11.015625 -12.484375 C 8.078125 -13.179688 5.929688 -14.25 4.578125 -15.6875 C 3.222656 -17.132812 2.546875 -18.96875 2.546875 -21.1875 C 2.546875 -23.03125 3.015625 -24.628906 3.953125 -25.984375 C 4.898438 -27.347656 6.226562 -28.390625 7.9375 -29.109375 C 9.644531 -29.828125 11.632812 -30.1875 13.90625 -30.1875 C 16.570312 -30.1875 18.78125 -29.800781 20.53125 -29.03125 C 22.289062 -28.257812 23.664062 -27.226562 24.65625 -25.9375 L 20.671875 -21.640625 L 20.140625 -21.640625 C 19.316406 -22.578125 18.390625 -23.257812 17.359375 -23.6875 C 16.328125 -24.113281 15.175781 -24.328125 13.90625 -24.328125 C 10.96875 -24.328125 9.5 -23.414062 9.5 -21.59375 C 9.5 -20.820312 9.769531 -20.191406 10.3125 -19.703125 C 10.863281 -19.222656 11.832031 -18.832031 13.21875 -18.53125 L 16.859375 -17.71875 C 19.867188 -17.082031 22.066406 -16.050781 23.453125 -14.625 C 24.847656 -13.195312 25.546875 -11.285156 25.546875 -8.890625 C 25.546875 -7.003906 25.078125 -5.34375 24.140625 -3.90625 C 23.210938 -2.476562 21.867188 -1.375 20.109375 -0.59375 C 18.359375 0.175781 16.273438 0.5625 13.859375 0.5625 Z M 13.859375 0.5625 "/></g></g></g><g fill="#000000" fill-opacity="1"><g transform="translate(633.858519, 662.499948)"><g><path d="M 20.4375 -7.0625 L 22.375 -1.5625 C 21.5625 -0.894531 20.546875 -0.375 19.328125 0 C 18.117188 0.375 16.742188 0.5625 15.203125 0.5625 C 11.992188 0.5625 9.554688 -0.304688 7.890625 -2.046875 C 6.222656 -3.796875 5.390625 -6.335938 5.390625 -9.671875 L 5.390625 -23.734375 L 0.890625 -23.734375 L 0.890625 -29.65625 L 5.390625 -29.65625 L 5.390625 -35.421875 L 12.84375 -36.625 L 12.84375 -29.65625 L 21.25 -29.65625 L 21.25 -23.734375 L 12.84375 -23.734375 L 12.84375 -10.203125 C 12.84375 -8.734375 13.144531 -7.660156 13.75 -6.984375 C 14.351562 -6.316406 15.238281 -5.984375 16.40625 -5.984375 C 17.726562 -5.984375 18.882812 -6.34375 19.875 -7.0625 Z M 20.4375 -7.0625 "/></g></g></g></svg>